<svg width="36" height="31" viewBox="0 0 36 31" fill="none" xmlns="http://www.w3.org/2000/svg">
<path fill-rule="evenodd" clip-rule="evenodd" d="M8.32975 0C7.59617 0.00740497 6.88246 0.239348 6.28468 0.664615C5.6869 1.08988 5.23374 1.68806 4.98618 2.37865H30.7025C30.4547 1.68735 30.0008 1.08867 29.4021 0.66334C28.8035 0.238012 28.0888 0.00649155 27.3544 0H8.32975ZM3.57246 4.75729C2.62603 4.76319 1.7201 5.14208 1.05128 5.81174C0.382461 6.4814 0.00470797 7.3878 0 8.33424V27.3544C0 29.3112 1.61568 30.9314 3.57695 30.9314H32.1162C33.0614 30.9243 33.9658 30.5447 34.6329 29.8751C35.3 29.2054 35.6762 28.2997 35.6797 27.3544V8.33424C35.6762 7.38898 35.3 6.48325 34.6329 5.81359C33.9658 5.14393 33.0614 4.76438 32.1162 4.75729H3.57246ZM17.8219 9.50112C18.4951 9.48766 19.0471 10.0397 19.0337 10.7129V22.1124L21.7669 19.3837C21.8733 19.2584 22.0046 19.1566 22.1525 19.0846C22.3003 19.0127 22.4615 18.9722 22.6257 18.9656C22.79 18.9591 22.9539 18.9867 23.107 19.0467C23.2601 19.1067 23.399 19.1977 23.5151 19.3141C23.6312 19.4306 23.722 19.5698 23.7815 19.723C23.8411 19.8763 23.8683 20.0402 23.8613 20.2045C23.8543 20.3687 23.8133 20.5298 23.741 20.6774C23.6686 20.8251 23.5664 20.9561 23.4409 21.0622L18.6836 25.8195C18.4607 26.0415 18.1589 26.1662 17.8443 26.1662C17.5297 26.1662 17.228 26.0415 17.0051 25.8195L12.2478 21.0622C12.0848 20.9042 11.9705 20.7028 11.9183 20.4818C11.8661 20.2609 11.8783 20.0296 11.9533 19.8154C12.0284 19.6011 12.1632 19.4128 12.3418 19.2727C12.5204 19.1326 12.7354 19.0465 12.9614 19.0247C13.1388 19.0084 13.3177 19.0322 13.4847 19.0944C13.6517 19.1565 13.8026 19.2554 13.9263 19.3837L16.655 22.1169V10.7084C16.652 10.5522 16.6799 10.397 16.7369 10.2515C16.7939 10.1061 16.8791 9.97331 16.9874 9.86078C17.0958 9.74826 17.2253 9.65818 17.3684 9.5957C17.5116 9.53321 17.6657 9.50404 17.8219 9.50112Z" fill="#166AAF"/>
</svg>
