<svg width="38" height="37" viewBox="0 0 38 37" fill="none" xmlns="http://www.w3.org/2000/svg">
<path d="M4.375 7.49799C5.26065 7.49747 6.1175 7.18335 6.79364 6.61132C7.46978 6.03929 7.92151 5.24632 8.06875 4.37299H15.3663L14.5581 5.18112L15.4419 6.06487L17.7587 3.74799L15.4419 1.43112L14.5581 2.31487L15.3663 3.12299H8.06875C7.91201 2.1964 7.41292 1.3625 6.67036 0.786522C5.92781 0.210544 4.99598 -0.0654783 4.05952 0.0131497C3.12307 0.0917776 2.25031 0.519318 1.6142 1.21105C0.978087 1.90279 0.625034 2.80824 0.625 3.74799C0.625 4.74256 1.02009 5.69638 1.72335 6.39965C2.42661 7.10291 3.38044 7.49799 4.375 7.49799ZM29.6875 3.12299H25.5687C25.412 2.1964 24.9129 1.3625 24.1704 0.786522C23.4278 0.210544 22.496 -0.0654783 21.5595 0.0131497C20.6231 0.0917776 19.7503 0.519318 19.1142 1.21105C18.4781 1.90279 18.125 2.80824 18.125 3.74799C18.125 4.68775 18.4781 5.5932 19.1142 6.28494C19.7503 6.97667 20.6231 7.40421 21.5595 7.48284C22.496 7.56147 23.4278 7.28545 24.1704 6.70947C24.9129 6.13349 25.412 5.29959 25.5687 4.37299H29.6875C33.3062 4.37299 36.25 7.31674 36.25 10.9355C36.25 14.5542 33.3062 17.498 29.6875 17.498H19.6338L20.4419 16.6899L19.5581 15.8061L17.2413 18.123L19.5581 20.4399L20.4419 19.5561L19.6338 18.748H29.6875C33.9956 18.748 37.5 15.2436 37.5 10.9355C37.5 6.62737 33.9956 3.12299 29.6875 3.12299Z" fill="#166AAF"/>
<path d="M33.125 36.248C35.1961 36.248 36.875 34.5691 36.875 32.498C36.875 30.4269 35.1961 28.748 33.125 28.748C31.0539 28.748 29.375 30.4269 29.375 32.498C29.375 34.5691 31.0539 36.248 33.125 36.248Z" fill="#166AAF"/>
<path d="M15.625 28.748C14.6304 28.748 13.6766 29.1431 12.9733 29.8463C12.2701 30.5496 11.875 31.5034 11.875 32.498C11.875 33.4925 12.2701 34.4464 12.9733 35.1496C13.6766 35.8529 14.6304 36.248 15.625 36.248C16.5106 36.2475 17.3675 35.9333 18.0436 35.3613C18.7198 34.7893 19.1715 33.9963 19.3187 33.123H26.6162L25.8081 33.9311L26.6919 34.8149L29.0088 32.498L26.6919 30.1811L25.8081 31.0649L26.6162 31.873H19.3187C19.1715 30.9997 18.7198 30.2067 18.0436 29.6347C17.3675 29.0626 16.5106 28.7485 15.625 28.748Z" fill="#166AAF"/>
<path d="M7.8125 33.123H9.11625L8.30813 33.9311L9.19188 34.8149L11.5087 32.498L9.19188 30.1811L8.30813 31.0649L9.11625 31.873H7.8125C4.19375 31.873 1.25 28.9292 1.25 25.3105C1.25 21.6917 4.19375 18.748 7.8125 18.748H9.43125C9.58799 19.6746 10.0871 20.5085 10.8296 21.0845C11.5722 21.6604 12.504 21.9365 13.4405 21.8578C14.3769 21.7792 15.2497 21.3517 15.8858 20.6599C16.5219 19.9682 16.875 19.0627 16.875 18.123C16.875 17.1832 16.5219 16.2778 15.8858 15.5861C15.2497 14.8943 14.3769 14.4668 13.4405 14.3881C12.504 14.3095 11.5722 14.5855 10.8296 15.1615C10.0871 15.7375 9.58799 16.5714 9.43125 17.498H7.8125C3.50437 17.498 0 21.0024 0 25.3105C0 29.6186 3.50437 33.123 7.8125 33.123Z" fill="#166AAF"/>
</svg>
