<svg width="48" height="23" viewBox="0 0 48 23" fill="none" xmlns="http://www.w3.org/2000/svg">
<path d="M36.5352 5.56331C36.3719 5.49582 36.1884 5.49596 36.0252 5.5637C35.862 5.63144 35.7323 5.76123 35.6648 5.92453L34.1763 9.52509L32.6878 5.92453C32.6544 5.84365 32.6053 5.77015 32.5435 5.70822C32.4817 5.64629 32.4082 5.59715 32.3274 5.5636C32.2466 5.53004 32.1599 5.51274 32.0724 5.51268C31.9849 5.51261 31.8982 5.52979 31.8173 5.56322C31.7365 5.59665 31.663 5.64569 31.601 5.70752C31.5391 5.76936 31.49 5.84279 31.4564 5.92362C31.4229 6.00445 31.4056 6.0911 31.4055 6.17862C31.4054 6.26613 31.4226 6.35281 31.456 6.43369L33.5266 11.4423C33.7594 12.0053 34.6013 11.9854 34.8259 11.4423L36.8964 6.43369C36.9299 6.35282 36.9471 6.26616 36.9471 6.17864C36.947 6.09113 36.9297 6.00448 36.8962 5.92365C36.8626 5.84282 36.8135 5.76939 36.7516 5.70756C36.6896 5.64573 36.6161 5.59672 36.5352 5.56331ZM41.0919 9.3735C42.9892 8.37647 42.2637 5.51269 40.1429 5.51269H38.4579C38.2812 5.51269 38.1117 5.58289 37.9867 5.70786C37.8618 5.83283 37.7916 6.00233 37.7916 6.17906V11.2359C37.7916 11.4127 37.8618 11.5822 37.9867 11.7071C38.1117 11.8321 38.2812 11.9023 38.4579 11.9023C38.6347 11.9023 38.8042 11.8321 38.9291 11.7071C39.0541 11.5822 39.1243 11.4127 39.1243 11.2359V9.60759H39.6491L40.9679 11.6033C41.0161 11.6764 41.0783 11.7392 41.1508 11.7882C41.2233 11.8371 41.3048 11.8714 41.3905 11.8889C41.4763 11.9064 41.5646 11.9068 41.6505 11.8902C41.7365 11.8735 41.8182 11.8401 41.8912 11.7919C41.9643 11.7436 42.0271 11.6815 42.0761 11.609C42.1251 11.5365 42.1593 11.455 42.1768 11.3693C42.1944 11.2835 42.1948 11.1952 42.1782 11.1093C42.1615 11.0233 42.1281 10.9415 42.0799 10.8685L41.0919 9.3735ZM40.1429 8.27475H39.1243V6.84544H40.1429C40.5369 6.84544 40.8576 7.16606 40.8576 7.56009C40.8576 7.95412 40.537 8.27475 40.1429 8.27475ZM4.55119 11.057C4.37445 11.057 4.20496 11.1272 4.07999 11.2521C3.95502 11.3771 3.88481 11.5466 3.88481 11.7233V12.7693C3.88481 12.946 3.95502 13.1155 4.07999 13.2405C4.20496 13.3655 4.37445 13.4357 4.55119 13.4357C4.72792 13.4357 4.89742 13.3655 5.02239 13.2405C5.14736 13.1155 5.21756 12.946 5.21756 12.7693V11.7233C5.21756 11.5466 5.14736 11.3771 5.02239 11.2521C4.89742 11.1272 4.72792 11.057 4.55119 11.057ZM7.82822 3.90019C5.54316 3.90019 3.88472 5.55862 3.88472 7.84369V9.45712C3.88472 9.63386 3.95493 9.80335 4.0799 9.92832C4.20487 10.0533 4.37436 10.1235 4.55109 10.1235C4.72783 10.1235 4.89732 10.0533 5.02229 9.92832C5.14726 9.80335 5.21747 9.63386 5.21747 9.45712V7.84369C5.21747 6.54422 6.02466 5.23303 7.82812 5.23303C8.00486 5.23303 8.17435 5.16282 8.29932 5.03785C8.42429 4.91288 8.4945 4.74339 8.4945 4.56666C8.49454 4.47914 8.47733 4.39247 8.44386 4.31161C8.41039 4.23074 8.36132 4.15727 8.29944 4.09538C8.23757 4.03348 8.16411 3.98439 8.08325 3.9509C8.0024 3.91741 7.91574 3.90017 7.82822 3.90019ZM1.71066 16.0692H0.924844C0.414094 16.0692 0 15.6551 0 15.1444V10.0153C0 9.50456 0.414094 9.09047 0.924844 9.09047H1.71066V16.0692ZM20.5106 0.924843C20.5106 0.414093 20.9247 0 21.4355 0H26.5646C27.0754 0 27.4894 0.414 27.4894 0.92475V1.71066H20.5106V0.924843ZM45.4245 17.4333C45.4245 20.2735 43.1138 22.5843 40.2735 22.5843H29.2822C28.5766 22.5843 28.0026 22.0102 28.0026 21.3046C28.0026 19.7347 26.7253 18.4575 25.1555 18.4575H22.8445C21.2746 18.4575 19.9974 19.7347 19.9974 21.3046C19.9974 22.0102 19.4234 22.5843 18.7178 22.5843H7.7265C4.88625 22.5843 2.5755 20.2735 2.5755 17.4333V7.72659C2.5755 4.88634 4.88625 2.57559 7.7265 2.57559H40.2736C43.1138 2.57559 45.4246 4.88634 45.4246 7.72659L45.4245 17.4333ZM48 15.1445C48 15.6552 47.586 16.0692 47.0752 16.0692H46.2894V9.09047H47.0752C47.586 9.09047 48 9.50447 48 10.0152V15.1445Z" fill="#166AAF"/>
</svg>
