<svg width="32" height="34" viewBox="0 0 32 34" fill="none" xmlns="http://www.w3.org/2000/svg">
<path d="M18.9922 0.587036V6.44141H24.7868L18.9922 0.587036ZM23.3086 27.874V32.4063C23.3086 33.2861 24.0225 34 24.9023 34C25.7822 34 26.4961 33.2861 26.4961 32.4063V27.886C25.981 27.9777 25.4588 28.0237 24.9355 28.0234C24.3797 28.0234 23.8365 27.9723 23.3086 27.874Z" fill="#166AAF"/>
<path d="M24.9355 26.0312C28.7314 26.0312 31.8086 22.9541 31.8086 19.1582C31.8086 15.3623 28.7314 12.2852 24.9355 12.2852C21.1397 12.2852 18.0625 15.3623 18.0625 19.1582C18.0625 22.9541 21.1397 26.0312 24.9355 26.0312Z" fill="#166AAF"/>
<path d="M5.17969 6.30859H11.6875V10.6914H5.17969V6.30859Z" fill="#166AAF"/>
<path d="M16.3047 21.1836H4.18359C3.63348 21.1836 3.1875 20.7376 3.1875 20.1875C3.1875 19.6374 3.63348 19.1914 4.18359 19.1914H16.0709C16.0708 19.1803 16.0703 19.1693 16.0703 19.1582C16.0703 18.3902 16.1686 17.6447 16.3531 16.9336H4.18359C3.63348 16.9336 3.1875 16.4876 3.1875 15.9375C3.1875 15.3874 3.63348 14.9414 4.18359 14.9414H17.1391C18.6412 12.1752 21.5727 10.293 24.9355 10.293C25.0803 10.293 25.2244 10.2963 25.3672 10.3036V8.43359H17.9961C17.4463 8.43359 17 7.98734 17 7.4375V0H2.98828C1.34074 0 0 1.34074 0 2.98828V28.8203C0 30.4679 1.34074 31.8086 2.98828 31.8086H21.3164V27.2505C18.8251 26.1317 16.941 23.8954 16.3047 21.1836ZM3.1875 5.3125C3.1875 4.76239 3.63348 4.31641 4.18359 4.31641H12.6836C13.2337 4.31641 13.6797 4.76239 13.6797 5.3125V11.6875C13.6797 12.2376 13.2337 12.6836 12.6836 12.6836H4.18359C3.63348 12.6836 3.1875 12.2376 3.1875 11.6875V5.3125ZM11.0898 25.4336H4.18359C3.63348 25.4336 3.1875 24.9876 3.1875 24.4375C3.1875 23.8874 3.63348 23.4414 4.18359 23.4414H11.0898C11.64 23.4414 12.0859 23.8874 12.0859 24.4375C12.0859 24.9876 11.64 25.4336 11.0898 25.4336Z" fill="#166AAF"/>
</svg>
