<svg width="41" height="28" viewBox="0 0 41 28" fill="none" xmlns="http://www.w3.org/2000/svg">
<path d="M2.15625 7.16594H2.29281V8.86938H19.7656C19.6359 8.48895 19.6156 8.07972 19.7071 7.68832C19.7985 7.29692 19.9982 6.9391 20.2831 6.65563L22.6047 4.34125C22.8287 4.11476 23.1005 3.9411 23.4001 3.83292C23.6998 3.72475 24.0198 3.68478 24.3369 3.71594V2.15625C24.3365 1.58449 24.1092 1.03626 23.7049 0.631972C23.3006 0.227679 22.7524 0.00038079 22.1806 0H2.15625C1.5849 0.00170638 1.03744 0.22943 0.633436 0.633436C0.22943 1.03744 0.00170638 1.5849 0 2.15625V5.00969C0.00170638 5.58104 0.22943 6.1285 0.633436 6.5325C1.03744 6.93651 1.5849 7.16423 2.15625 7.16594ZM9.32937 2.86062C9.52 2.86062 9.70282 2.93635 9.83761 3.07114C9.9724 3.20593 10.0481 3.38875 10.0481 3.57937C10.0481 3.77 9.9724 3.95282 9.83761 4.08761C9.70282 4.2224 9.52 4.29812 9.32937 4.29812C9.13875 4.29812 8.95593 4.2224 8.82114 4.08761C8.68635 3.95282 8.61062 3.77 8.61062 3.57937C8.61062 3.38875 8.68635 3.20593 8.82114 3.07114C8.95593 2.93635 9.13875 2.86062 9.32937 2.86062ZM6.45437 2.86062C6.645 2.86062 6.82782 2.93635 6.96261 3.07114C7.0974 3.20593 7.17312 3.38875 7.17312 3.57937C7.17312 3.77 7.0974 3.95282 6.96261 4.08761C6.82782 4.2224 6.645 4.29812 6.45437 4.29812C6.26375 4.29812 6.08093 4.2224 5.94614 4.08761C5.81135 3.95282 5.73562 3.77 5.73562 3.57937C5.73562 3.38875 5.81135 3.20593 5.94614 3.07114C6.08093 2.93635 6.26375 2.86062 6.45437 2.86062ZM3.57937 2.86062C3.77 2.86062 3.95282 2.93635 4.08761 3.07114C4.2224 3.20593 4.29812 3.38875 4.29812 3.57937C4.29812 3.77 4.2224 3.95282 4.08761 4.08761C3.95282 4.2224 3.77 4.29812 3.57937 4.29812C3.38875 4.29812 3.20593 4.2224 3.07114 4.08761C2.93635 3.95282 2.86063 3.77 2.86063 3.57937C2.86063 3.38875 2.93635 3.20593 3.07114 3.07114C3.20593 2.93635 3.38875 2.86062 3.57937 2.86062ZM22.6047 23.4312C22.2928 23.0654 20.0538 21.0062 19.9022 20.6066H2.15625C1.5849 20.6083 1.03744 20.836 0.633436 21.24C0.22943 21.644 0.00170638 22.1915 0 22.7628V25.6162C0.00170638 26.1876 0.22943 26.7351 0.633436 27.1391C1.03744 27.5431 1.5849 27.7708 2.15625 27.7725H22.1806C22.7524 27.7721 23.3006 27.5448 23.7049 27.1405C24.1092 26.7362 24.3365 26.188 24.3369 25.6162V24.0566C24.0198 24.0877 23.6998 24.0478 23.4001 23.9396C23.1005 23.8314 22.8287 23.6577 22.6047 23.4312ZM3.57937 24.9119C3.38875 24.9119 3.20593 24.8362 3.07114 24.7014C2.93635 24.5666 2.86063 24.3837 2.86063 24.1931C2.86063 24.0025 2.93635 23.8197 3.07114 23.6849C3.20593 23.5501 3.38875 23.4744 3.57937 23.4744C3.77 23.4744 3.95282 23.5501 4.08761 23.6849C4.2224 23.8197 4.29812 24.0025 4.29812 24.1931C4.29812 24.3837 4.2224 24.5666 4.08761 24.7014C3.95282 24.8362 3.77 24.9119 3.57937 24.9119ZM6.45437 24.9119C6.26375 24.9119 6.08093 24.8362 5.94614 24.7014C5.81135 24.5666 5.73562 24.3837 5.73562 24.1931C5.73562 24.0025 5.81135 23.8197 5.94614 23.6849C6.08093 23.5501 6.26375 23.4744 6.45437 23.4744C6.645 23.4744 6.82782 23.5501 6.96261 23.6849C7.0974 23.8197 7.17312 24.0025 7.17312 24.1931C7.17312 24.3837 7.0974 24.5666 6.96261 24.7014C6.82782 24.8362 6.645 24.9119 6.45437 24.9119ZM9.32937 24.9119C9.13875 24.9119 8.95593 24.8362 8.82114 24.7014C8.68635 24.5666 8.61062 24.3837 8.61062 24.1931C8.61062 24.0025 8.68635 23.8197 8.82114 23.6849C8.95593 23.5501 9.13875 23.4744 9.32937 23.4744C9.52 23.4744 9.70282 23.5501 9.83761 23.6849C9.9724 23.8197 10.0481 24.0025 10.0481 24.1931C10.0481 24.3837 9.9724 24.5666 9.83761 24.7014C9.70282 24.8362 9.52 24.9119 9.32937 24.9119ZM2.15625 17.4656H2.29281V19.1691H19.6937C19.767 18.8213 19.9222 18.496 20.1466 18.2203L20.5419 17.7388L19.9094 17.6741C19.3763 17.6221 18.8818 17.373 18.5228 16.9754C18.1638 16.5779 17.9662 16.0606 17.9688 15.525V12.2475C17.9668 11.8431 18.0792 11.4465 18.2928 11.1031C18.5064 10.7598 18.8127 10.4838 19.1763 10.3069H2.15625C1.58449 10.3073 1.03626 10.5346 0.631972 10.9388C0.227679 11.3431 0.00038079 11.8914 0 12.4631V15.3094C0.00038079 15.8811 0.227679 16.4294 0.631972 16.8337C1.03626 17.2379 1.58449 17.4652 2.15625 17.4656ZM9.32937 13.1675C9.52 13.1675 9.70282 13.2432 9.83761 13.378C9.9724 13.5128 10.0481 13.6956 10.0481 13.8862C10.0481 14.0769 9.9724 14.2597 9.83761 14.3945C9.70282 14.5293 9.52 14.605 9.32937 14.605C9.13875 14.605 8.95593 14.5293 8.82114 14.3945C8.68635 14.2597 8.61062 14.0769 8.61062 13.8862C8.61062 13.6956 8.68635 13.5128 8.82114 13.378C8.95593 13.2432 9.13875 13.1675 9.32937 13.1675ZM6.45437 13.1675C6.645 13.1675 6.82782 13.2432 6.96261 13.378C7.0974 13.5128 7.17312 13.6956 7.17312 13.8862C7.17312 14.0769 7.0974 14.2597 6.96261 14.3945C6.82782 14.5293 6.645 14.605 6.45437 14.605C6.26375 14.605 6.08093 14.5293 5.94614 14.3945C5.81135 14.2597 5.73562 14.0769 5.73562 13.8862C5.73562 13.6956 5.81135 13.5128 5.94614 13.378C6.08093 13.2432 6.26375 13.1675 6.45437 13.1675ZM3.57937 13.1675C3.77 13.1675 3.95282 13.2432 4.08761 13.378C4.2224 13.5128 4.29812 13.6956 4.29812 13.8862C4.29812 14.0769 4.2224 14.2597 4.08761 14.3945C3.95282 14.5293 3.77 14.605 3.57937 14.605C3.38875 14.605 3.20593 14.5293 3.07114 14.3945C2.93635 14.2597 2.86063 14.0769 2.86063 13.8862C2.86063 13.6956 2.93635 13.5128 3.07114 13.378C3.20593 13.2432 3.38875 13.1675 3.57937 13.1675Z" fill="#166AAF"/>
<path d="M39.6031 11.5287L37.95 11.3634C37.7966 11.3362 37.6525 11.2708 37.5311 11.1731C37.4096 11.0755 37.3148 10.9488 37.2553 10.8048C37.1958 10.6608 37.1737 10.5041 37.1908 10.3492C37.208 10.1943 37.2639 10.0463 37.3534 9.91874L38.4028 8.63937C38.5167 8.50223 38.5754 8.32756 38.5674 8.14947C38.5595 7.97137 38.4854 7.80265 38.3597 7.67624L36.0381 5.35468C35.9117 5.22898 35.743 5.15491 35.5649 5.14693C35.3868 5.13896 35.2121 5.19765 35.075 5.31155L33.7884 6.36093C33.6609 6.44824 33.5136 6.50232 33.3598 6.51828C33.2061 6.53424 33.0508 6.51157 32.908 6.45232C32.7652 6.39307 32.6395 6.29912 32.5422 6.17899C32.4449 6.05885 32.3792 5.91634 32.3509 5.76437L32.1856 4.11124C32.1678 3.93333 32.0842 3.76848 31.9513 3.64886C31.8184 3.52925 31.6457 3.46347 31.4669 3.46436H28.1894C28.0106 3.46347 27.8379 3.52925 27.705 3.64886C27.5721 3.76848 27.4885 3.93333 27.4706 4.11124L27.3053 5.76437C27.2771 5.91634 27.2113 6.05885 27.1141 6.17899C27.0168 6.29912 26.8911 6.39307 26.7483 6.45232C26.6055 6.51157 26.4502 6.53424 26.2965 6.51828C26.1427 6.50232 25.9954 6.44824 25.8678 6.36093L24.5813 5.31155C24.4441 5.19765 24.2695 5.13896 24.0914 5.14693C23.9133 5.15491 23.7445 5.22898 23.6181 5.35468L21.2966 7.67624C21.1709 7.80265 21.0968 7.97137 21.0888 8.14947C21.0809 8.32756 21.1395 8.50223 21.2534 8.63937L22.3028 9.92593C22.3903 10.0534 22.4446 10.2008 22.4606 10.3546C22.4767 10.5084 22.454 10.6638 22.3948 10.8066C22.3355 10.9495 22.2415 11.0752 22.1212 11.1725C22.001 11.2697 21.8583 11.3353 21.7063 11.3634L20.0531 11.5287C19.8752 11.5466 19.7104 11.6302 19.5908 11.7631C19.4711 11.896 19.4054 12.0687 19.4063 12.2475V15.525C19.4054 15.7038 19.4711 15.8765 19.5908 16.0094C19.7104 16.1423 19.8752 16.2259 20.0531 16.2437L21.7063 16.4091C21.8589 16.4376 22.002 16.5038 22.1225 16.6017C22.243 16.6996 22.3372 16.826 22.3964 16.9696C22.4557 17.1131 22.4782 17.2691 22.4618 17.4235C22.4455 17.5779 22.3908 17.7258 22.3028 17.8537L21.2534 19.1331C21.1395 19.2703 21.0809 19.4449 21.0888 19.623C21.0968 19.8011 21.1709 19.9698 21.2966 20.0962L23.6181 22.4178C23.7445 22.5435 23.9133 22.6176 24.0914 22.6255C24.2695 22.6335 24.4441 22.5748 24.5813 22.4609L25.8678 21.4116C25.9954 21.3242 26.1427 21.2702 26.2965 21.2542C26.4502 21.2382 26.6055 21.2609 26.7483 21.3202C26.8911 21.3794 27.0168 21.4734 27.1141 21.5935C27.2113 21.7136 27.2771 21.8561 27.3053 22.0081L27.4706 23.6612C27.4885 23.8391 27.5721 24.004 27.705 24.1236C27.8379 24.2432 28.0106 24.309 28.1894 24.3081H31.4669C31.6457 24.309 31.8184 24.2432 31.9513 24.1236C32.0842 24.004 32.1678 23.8391 32.1856 23.6612L32.3509 22.0081C32.3746 21.8499 32.4405 21.7009 32.5417 21.5769C32.6429 21.453 32.7756 21.3586 32.9259 21.3037C33.0665 21.2443 33.2202 21.223 33.3717 21.2419C33.5231 21.2609 33.6668 21.3194 33.7884 21.4116L35.075 22.4609C35.2121 22.5748 35.3868 22.6335 35.5649 22.6255C35.743 22.6176 35.9117 22.5435 36.0381 22.4178L38.3597 20.0962C38.4854 19.9698 38.5595 19.8011 38.5674 19.623C38.5754 19.4449 38.5167 19.2703 38.4028 19.1331L37.3534 17.8466C37.2659 17.719 37.2117 17.5717 37.1956 17.4179C37.1796 17.2641 37.2022 17.1087 37.2615 16.9659C37.3208 16.823 37.4148 16.6973 37.5351 16.6C37.6553 16.5028 37.7979 16.4371 37.95 16.4091L39.6031 16.2437C39.781 16.2259 39.9459 16.1423 40.0655 16.0094C40.1851 15.8765 40.2509 15.7038 40.25 15.525V12.2475C40.2509 12.0687 40.1851 11.896 40.0655 11.7631C39.9459 11.6302 39.781 11.5466 39.6031 11.5287ZM29.8281 17.48C25.0779 17.3319 25.0794 10.4398 29.8281 10.2925C34.5784 10.4406 34.5769 17.3326 29.8281 17.48Z" fill="#166AAF"/>
</svg>
