<svg width="41" height="41" viewBox="0 0 41 41" fill="none" xmlns="http://www.w3.org/2000/svg">
<path fill-rule="evenodd" clip-rule="evenodd" d="M0.000958264 28.7653V37.8733C0.000832389 38.1881 0.0627026 38.4998 0.183036 38.7906C0.30337 39.0815 0.479811 39.3457 0.702285 39.5684C0.924758 39.7911 1.18891 39.9677 1.47965 40.0883C1.7704 40.2088 2.08204 40.271 2.39679 40.2711H11.5067C11.761 40.2711 12.0049 40.1701 12.1847 39.9903C12.3645 39.8104 12.4655 39.5666 12.4655 39.3123C12.4655 39.058 12.3645 38.8141 12.1847 38.6343C12.0049 38.4545 11.761 38.3535 11.5067 38.3535H2.39679C2.26957 38.353 2.14766 38.3024 2.05754 38.2126C1.96809 38.1223 1.91782 38.0004 1.91763 37.8733V28.7653C1.91763 28.511 1.81661 28.2672 1.6368 28.0874C1.45698 27.9075 1.21311 27.8065 0.958813 27.8065C0.70452 27.8065 0.460642 27.9075 0.28083 28.0874C0.101018 28.2672 0.000958264 28.511 0.000958264 28.7653ZM28.7653 40.2701H37.8733C38.1882 40.2703 38.5001 40.2083 38.7911 40.0879C39.082 39.9674 39.3464 39.7908 39.5691 39.5681C39.7918 39.3454 39.9684 39.0811 40.0888 38.7901C40.2093 38.4991 40.2712 38.1873 40.2711 37.8724V28.7644C40.2711 28.5101 40.1701 28.2662 39.9903 28.0864C39.8104 27.9066 39.5666 27.8056 39.3123 27.8056C39.058 27.8056 38.8141 27.9066 38.6343 28.0864C38.4545 28.2662 38.3535 28.5101 38.3535 28.7644V37.8724C38.3525 37.9991 38.3017 38.1204 38.212 38.2101C38.1224 38.2997 38.0011 38.3505 37.8743 38.3515H28.7653C28.5109 38.3515 28.2669 38.4526 28.087 38.6325C27.9071 38.8124 27.806 39.0564 27.806 39.3108C27.806 39.5653 27.9071 39.8093 28.087 39.9892C28.2669 40.1691 28.5109 40.2701 28.7653 40.2701ZM40.2701 11.5067V2.39679C40.2701 2.08196 40.2081 1.77021 40.0876 1.47936C39.9671 1.1885 39.7904 0.924241 39.5678 0.701666C39.3451 0.47909 39.0808 0.302564 38.7899 0.18217C38.499 0.0617762 38.1872 -0.000125691 37.8724 1.91608e-07H28.7644C28.5102 1.96964e-07 28.2665 0.100967 28.0867 0.28069C27.907 0.460412 27.806 0.704168 27.806 0.958334C27.806 1.2125 27.907 1.45626 28.0867 1.63598C28.2665 1.8157 28.5102 1.91667 28.7644 1.91667H37.8724C37.9991 1.91767 38.1204 1.96847 38.2101 2.05812C38.2997 2.14776 38.3505 2.26906 38.3515 2.39583V11.5058C38.3515 11.7602 38.4526 12.0042 38.6325 12.1841C38.8124 12.364 39.0564 12.465 39.3108 12.465C39.5653 12.465 39.8093 12.364 39.9892 12.1841C40.1691 12.0042 40.2701 11.7611 40.2701 11.5067ZM11.5067 0.000958455H2.39679C1.76129 0.000958405 1.1518 0.253345 0.702343 0.702624C0.252885 1.1519 0.000254099 1.76129 0 2.39679V11.5067C5.35614e-09 11.7609 0.100967 12.0046 0.280689 12.1844C0.460412 12.3641 0.704168 12.465 0.958334 12.465C1.2125 12.465 1.45626 12.3641 1.63598 12.1844C1.8157 12.0046 1.91667 11.7609 1.91667 11.5067V2.39679C1.91767 2.27002 1.96847 2.14872 2.05812 2.05908C2.14776 1.96943 2.26906 1.91863 2.39583 1.91763H11.5058C11.76 1.91763 12.0039 1.81661 12.1837 1.6368C12.3635 1.45698 12.4646 1.21311 12.4646 0.958813C12.4646 0.70452 12.3635 0.460642 12.1837 0.28083C12.0039 0.101018 11.76 1.91608e-07 11.5058 1.91608e-07L11.5067 0.000958455ZM30.2373 14.3827H27.3326C27.2537 14.3825 27.1761 14.363 27.1065 14.3257C27.037 14.2884 26.9777 14.2346 26.934 14.169L25.231 11.615C25.0122 11.2866 24.7156 11.0174 24.3677 10.8311C24.0198 10.6449 23.6313 10.5474 23.2367 10.5474H17.1053C16.3041 10.5474 15.5557 10.948 15.112 11.615L13.408 14.169C13.3643 14.2346 13.305 14.2884 13.2355 14.3257C13.1659 14.363 13.0883 14.3825 13.0094 14.3827H10.1037C9.46804 14.3827 8.85841 14.6352 8.40892 15.0847C7.95944 15.5342 7.70692 16.1438 7.70692 16.7795V27.3269C7.70679 27.6416 7.76867 27.9532 7.88901 28.244C8.00936 28.5348 8.18581 28.799 8.4083 29.0216C8.63079 29.2442 8.89494 29.4207 9.18568 29.5412C9.47642 29.6617 9.78804 29.7237 10.1028 29.7237H30.2383C30.5532 29.7239 30.865 29.6621 31.1559 29.5418C31.4469 29.4214 31.7113 29.2449 31.934 29.0223C32.1567 28.7997 32.3333 28.5354 32.4538 28.2445C32.5742 27.9535 32.6362 27.6417 32.636 27.3269V16.7795C32.636 16.4646 32.574 16.1529 32.4535 15.862C32.333 15.5712 32.1564 15.3069 31.9337 15.0843C31.711 14.8618 31.4467 14.6852 31.1558 14.5648C30.8649 14.4444 30.5522 14.3825 30.2373 14.3827ZM20.17 16.3003C18.9189 16.3309 17.7293 16.8495 16.8553 17.7452C15.9812 18.6409 15.492 19.8428 15.492 21.0944C15.492 22.3459 15.9812 23.5478 16.8553 24.4435C17.7293 25.3392 18.9189 25.8578 20.17 25.8884C22.816 25.8884 24.9646 23.7408 24.9646 21.0948C24.9646 18.4489 22.816 16.3003 20.17 16.3003ZM20.17 18.2179C20.9172 18.2415 21.6258 18.5549 22.146 19.0918C22.6661 19.6287 22.957 20.3468 22.957 21.0944C22.957 21.8419 22.6661 22.56 22.146 23.0969C21.6258 23.6338 20.9172 23.9472 20.17 23.9708C19.4229 23.9472 18.7143 23.6338 18.1941 23.0969C17.674 22.56 17.3831 21.8419 17.3831 21.0944C17.3831 20.3468 17.674 19.6287 18.1941 19.0918C18.7143 18.5549 19.4229 18.2415 20.17 18.2179Z" fill="#166AAF"/>
</svg>
