<svg width="42" height="42" viewBox="0 0 42 42" fill="none" xmlns="http://www.w3.org/2000/svg">
<path d="M12.3894 4.56914C12.3894 2.04972 10.3397 0 7.82023 0C1.75861 0.251016 1.76033 8.88825 7.82023 9.13828C10.3397 9.13828 12.3894 7.08857 12.3894 4.56914Z" fill="#166AAF"/>
<path d="M15.6407 18.3641V16.9586C15.2098 6.58128 0.426973 6.58932 0 16.9586V18.364C0 19.0436 0.550922 19.5945 1.23047 19.5945H14.4102C15.0897 19.5946 15.6407 19.0436 15.6407 18.3641ZM38.7489 4.56914C38.7489 2.04971 36.6991 0 34.1797 0C28.1181 0.251016 28.1198 8.88825 34.1797 9.13828C36.6991 9.13828 38.7489 7.08857 38.7489 4.56914ZM34.1797 9.13828C29.8676 9.13828 26.3594 12.6465 26.3594 16.9586V18.364C26.3594 19.0436 26.9104 19.5945 27.5899 19.5945H40.7695C41.4491 19.5945 42 19.0436 42 18.364V16.9586C42 12.6465 38.4919 9.13828 34.1797 9.13828ZM7.73284 22.318C7.73284 22.2302 7.73448 22.1429 7.73612 22.0555H5.27518C5.17724 27.3301 7.73415 32.0955 11.6936 34.9974C12.0458 34.2504 12.4864 33.5484 13.0061 32.9066C9.80298 30.4846 7.73284 26.6433 7.73284 22.318ZM15.5699 10.2097C18.8426 8.67702 23.1574 8.67702 26.4301 10.2097C27.0147 9.53918 27.6831 8.94672 28.419 8.44692C24.0635 5.99427 17.9365 5.99435 13.5811 8.44692C14.3169 8.94677 14.9853 9.53923 15.5699 10.2097ZM34.2639 22.0555C34.3594 26.4515 32.2623 30.4446 28.9939 32.9066C29.5135 33.5484 29.9542 34.2504 30.3064 34.9974C34.2657 32.0957 36.8228 27.3299 36.7248 22.0555H34.2639ZM25.5691 26.9746C25.5691 24.4552 23.5194 22.4054 21 22.4054C14.9384 22.6565 14.9401 31.2937 21 31.5437C23.5194 31.5437 25.5691 29.4941 25.5691 26.9746ZM21 31.5437C16.6879 31.5437 13.1797 35.052 13.1797 39.364V40.7695C13.1797 41.4491 13.7306 42 14.4102 42H27.5899C28.2694 42 28.8204 41.4491 28.8204 40.7695V39.3641C28.8203 35.052 25.3121 31.5437 21 31.5437Z" fill="#166AAF"/>
</svg>
