<svg width="35" height="31" viewBox="0 0 35 31" fill="none" xmlns="http://www.w3.org/2000/svg">
<path d="M27.7353 14.941L28.2438 14.4179C28.4864 14.1687 28.5682 13.806 28.4573 13.4715C28.3473 13.1394 28.0675 12.9052 27.7275 12.8604L25.5428 12.5723V7.27995C25.5428 7.18121 25.5176 7.0842 25.4696 6.99869C25.4216 6.91318 25.3525 6.84218 25.2694 6.79282L17.7051 2.30084C17.6219 2.25147 17.5276 2.22548 17.4316 2.22548C17.3356 2.22548 17.2413 2.25147 17.1582 2.30084L9.5939 6.79282C9.51075 6.84218 9.44171 6.91318 9.39371 6.99869C9.34571 7.0842 9.32045 7.18121 9.32046 7.27995V16.264C9.32045 16.3627 9.34571 16.4597 9.39371 16.5452C9.44171 16.6307 9.51075 16.7018 9.5939 16.7511L17.1582 21.2432C17.2428 21.2934 17.3372 21.3185 17.4316 21.3185C17.526 21.3185 17.6205 21.2934 17.7051 21.2432L23.2235 17.966C23.331 18.1533 23.5002 18.2946 23.7005 18.3642C24.0256 18.4781 24.378 18.3942 24.6202 18.145L25.1292 17.6216L27.4491 20.0077C27.5416 20.1033 27.6515 20.179 27.7726 20.2306C27.8938 20.2821 28.0236 20.3084 28.1547 20.308C28.4214 20.308 28.672 20.2013 28.8603 20.0078L30.0552 18.7788C30.4441 18.3786 30.4442 17.7275 30.0552 17.3271L27.7352 14.9409L27.7353 14.941ZM14.4892 10.0246L16.8848 8.60196V11.4397L14.4892 12.7981V10.0245V10.0246ZM17.9785 11.4417V8.60196L20.3741 10.0246V12.8171L17.9785 11.4417ZM16.8848 19.7818L10.4142 15.9392V8.25427L13.3954 10.0247V13.8442C13.3954 13.9429 13.4207 14.0399 13.4687 14.1254C13.5167 14.2109 13.5857 14.2819 13.6689 14.3313L16.8848 16.241V19.7818ZM22.827 12.5731C22.7304 12.6719 22.6572 12.7923 22.6133 12.9249C22.5693 13.0576 22.5557 13.1989 22.5735 13.3378L23.0046 16.7971L17.9786 19.7818V16.2409L21.1945 14.3312C21.2776 14.2819 21.3467 14.2109 21.3947 14.1254C21.4427 14.0399 21.4679 13.9429 21.4679 13.8441V10.0246L24.4491 8.2542V12.428L23.5705 12.3121C23.4354 12.2938 23.298 12.3078 23.1691 12.3531C23.0401 12.3983 22.9231 12.4736 22.827 12.5731V12.5731ZM32.5535 0H2.3098C1.03619 0 0 1.0658 0 2.37586V24.2044C0 25.5144 1.03619 26.5802 2.3098 26.5802H10.1169L8.44354 29.5339C8.29356 29.7985 8.29158 30.1133 8.43835 30.3761C8.58553 30.6397 8.85931 30.8034 9.15271 30.8034H25.7106C26.004 30.8034 26.2777 30.6397 26.4249 30.3763C26.5716 30.1136 26.5698 29.7987 26.4199 29.534L24.7465 26.5802H32.5536C33.8272 26.5802 34.8634 25.5144 34.8634 24.2044V2.37586C34.8634 1.06587 33.8272 0 32.5536 0H32.5535ZM25.2358 29.6783H9.62753L11.3829 26.5802H23.4806L25.2358 29.6783ZM33.7695 22.419H1.09375V2.37586C1.09375 1.68616 1.63926 1.125 2.3098 1.125H32.5535C33.224 1.125 33.7695 1.68609 33.7695 2.37586V22.419Z" fill="#1B6DB1"/>
</svg>
