<svg width="38" height="38" viewBox="0 0 38 38" fill="none" xmlns="http://www.w3.org/2000/svg">
<path d="M19 15.7344C19.6148 15.7344 20.1133 15.2359 20.1133 14.6211V12.2481L21.1019 11.589C21.2544 11.4874 21.3794 11.3496 21.4659 11.188C21.5524 11.0264 21.5977 10.846 21.5977 10.6627V9.05469H16.4023V10.6627C16.4023 11.0349 16.5884 11.3826 16.8981 11.589L17.8867 12.2481V14.6211C17.8867 15.2359 18.3852 15.7344 19 15.7344ZM14.5469 6.82812H23.4531C24.4779 6.82812 25.3086 5.99739 25.3086 4.97266V3.48828C25.3086 2.46354 24.4779 1.63281 23.4531 1.63281H14.5469C13.5221 1.63281 12.6914 2.46354 12.6914 3.48828V4.97266C12.6914 5.99739 13.5221 6.82812 14.5469 6.82812ZM2.96875 36.8867C2.96875 37.5015 3.4672 38 4.08203 38H33.918C34.5328 38 35.0312 37.5015 35.0312 36.8867V35.0312H2.96875V36.8867ZM8.16406 5.34375H10.4648V3.11719H8.16406V2.59766C8.16406 1.16301 7.00105 0 5.56641 0C4.13176 0 2.96875 1.16301 2.96875 2.59766V20.9297H8.16406V5.34375ZM29.8359 20.9297H35.0312V2.59766C35.0312 1.16301 33.8682 0 32.4336 0C30.9989 0 29.8359 1.16301 29.8359 2.59766V3.11719H27.5352V5.34375H29.8359V20.9297ZM26.793 19.0742C26.793 18.4594 26.2945 17.9609 25.6797 17.9609H12.3203C11.7055 17.9609 11.207 18.4594 11.207 19.0742V20.9297H26.793V19.0742ZM35.4023 23.1562H2.59766C1.16301 23.1562 0 24.3193 0 25.7539V30.207C0 31.6417 1.16301 32.8047 2.59766 32.8047H35.4023C36.837 32.8047 38 31.6417 38 30.207V25.7539C38 24.3193 36.837 23.1562 35.4023 23.1562ZM5.56641 29.0938C4.95158 29.0938 4.45312 28.5953 4.45312 27.9805C4.45312 27.3656 4.95158 26.8672 5.56641 26.8672C6.18123 26.8672 6.67969 27.3656 6.67969 27.9805C6.67969 28.5953 6.18123 29.0938 5.56641 29.0938ZM10.0195 29.0938C9.4047 29.0938 8.90625 28.5953 8.90625 27.9805C8.90625 27.3656 9.4047 26.8672 10.0195 26.8672C10.6344 26.8672 11.1328 27.3656 11.1328 27.9805C11.1328 28.5953 10.6344 29.0938 10.0195 29.0938ZM14.4727 29.0938C13.8578 29.0938 13.3594 28.5953 13.3594 27.9805C13.3594 27.3656 13.8578 26.8672 14.4727 26.8672C15.0875 26.8672 15.5859 27.3656 15.5859 27.9805C15.5859 28.5953 15.0875 29.0938 14.4727 29.0938ZM32.4336 28.7227H26.4961C25.8813 28.7227 25.3828 28.2242 25.3828 27.6094C25.3828 26.9945 25.8813 26.4961 26.4961 26.4961H32.4336C33.0484 26.4961 33.5469 26.9945 33.5469 27.6094C33.5469 28.2242 33.0484 28.7227 32.4336 28.7227Z" fill="#166AAF"/>
</svg>
