<svg width="36" height="36" viewBox="0 0 36 36" fill="none" xmlns="http://www.w3.org/2000/svg">
<path d="M7.12514 4.25067e-06C6.96781 0.000597969 6.81712 0.0635153 6.70608 0.174978C6.59503 0.286441 6.53269 0.437366 6.53269 0.594701V3.5637H11.2835V0.594701C11.2835 0.437752 11.2215 0.287165 11.1109 0.175766C11.0004 0.0643666 10.8503 0.00118877 10.6933 4.25067e-06H7.12514ZM24.9436 4.25067e-06C24.8653 -0.000291168 24.7877 0.0148731 24.7153 0.0446271C24.6429 0.0743811 24.5771 0.118139 24.5216 0.173392C24.4662 0.228644 24.4222 0.294302 24.3921 0.366601C24.3621 0.438899 24.3467 0.516415 24.3467 0.594701V14.2548H29.0975V0.596945C29.0978 0.518471 29.0826 0.440713 29.0527 0.368155C29.0228 0.295597 28.9788 0.229673 28.9233 0.174183C28.8678 0.118692 28.8019 0.0747334 28.7293 0.0448394C28.6568 0.0149454 28.579 -0.000292443 28.5006 4.25067e-06H24.9436ZM12.4707 2.37655V14.2548H17.2193V2.37655C17.2187 2.2196 17.1561 2.06925 17.0451 1.95827C16.9341 1.84729 16.7838 1.78469 16.6268 1.78409H13.0362C12.6996 1.78409 12.4707 2.07134 12.4707 2.37655ZM19.0011 3.5637C18.923 3.5637 18.8457 3.57908 18.7735 3.60896C18.7014 3.63885 18.6358 3.68266 18.5806 3.73788C18.5254 3.7931 18.4816 3.85866 18.4517 3.93081C18.4218 4.00296 18.4064 4.0803 18.4064 4.15839V7.12739H23.1573V4.15615C23.1573 3.9992 23.0952 3.84861 22.9847 3.73721C22.8741 3.62581 22.724 3.56264 22.5671 3.56145L19.0011 3.5637ZM6.53269 4.75309V5.94024H11.2835V4.75085L6.53269 4.75309ZM1.7796 5.94024C1.30856 5.94201 0.857273 6.12976 0.52398 6.46264C0.190687 6.79551 0.00236376 7.24655 0 7.7176V29.0953C0 30.0715 0.803402 30.8749 1.7796 30.8749H33.8416C34.3135 30.8731 34.7655 30.6852 35.0996 30.352C35.4337 30.0187 35.6227 29.5671 35.6257 29.0953V7.7176C35.6222 7.24614 35.4328 6.7951 35.0988 6.46236C34.7648 6.12961 34.3131 5.942 33.8416 5.94024H30.2824V8.30781H32.6545C32.9843 8.30781 33.2514 8.5771 33.2492 8.90475V25.5293C33.2492 25.857 32.9821 26.1218 32.6545 26.1218H2.969C2.81205 26.1212 2.6617 26.0586 2.55072 25.9476C2.43974 25.8366 2.37713 25.6863 2.37654 25.5293V8.90699C2.3743 8.57935 2.63911 8.31229 2.969 8.31005H5.34329V5.94024H1.7796ZM6.53269 7.12739L6.53044 20.1883H11.2813L11.2835 7.12739H6.53269ZM18.4042 8.31454V9.50393H23.1573V8.31454H18.4042ZM18.4042 10.6911V20.1905H23.155L23.1573 10.6911H18.4042ZM12.4729 15.4419V16.6246H17.2215V15.4442L12.4729 15.4419ZM24.3489 15.4419V16.6246H29.0997V15.4442L24.3489 15.4419ZM12.4707 17.8117V20.1905H17.2148V17.8117H12.4707ZM24.3467 17.8117L24.3444 20.1905H29.0953V17.8117H24.3467ZM5.34554 21.3754C5.26706 21.3751 5.18931 21.3904 5.11675 21.4203C5.04419 21.4502 4.97827 21.4941 4.92278 21.5496C4.86728 21.6051 4.82333 21.671 4.79343 21.7436C4.76354 21.8161 4.7483 21.8939 4.7486 21.9724V23.1618C4.7486 23.4894 5.01789 23.7542 5.34554 23.752H30.2779C30.356 23.7526 30.4335 23.7378 30.5058 23.7084C30.5782 23.6791 30.6441 23.6358 30.6997 23.581C30.7554 23.5262 30.7997 23.4609 30.8301 23.389C30.8605 23.3171 30.8765 23.2399 30.8771 23.1618V21.9724C30.8774 21.8939 30.8622 21.8161 30.8323 21.7436C30.8024 21.671 30.7584 21.6051 30.7029 21.5496C30.6474 21.4941 30.5815 21.4502 30.5089 21.4203C30.4364 21.3904 30.3586 21.3751 30.2802 21.3754H5.34554ZM16.6268 27.3112H19.0011C19.7753 27.3291 19.7753 28.4826 19.0011 28.5006H16.6268C15.8526 28.4804 15.8526 27.3291 16.6268 27.3112ZM13.797 32.062C13.6107 32.4749 13.393 32.8699 13.1619 33.2177C12.731 33.8663 12.3809 34.2523 12.2081 34.4386H10.6597C9.8383 34.4745 9.89441 35.6639 10.6866 35.6279H24.9369C25.729 35.6279 25.729 34.4386 24.9369 34.4386H23.4176C23.0657 34.0593 22.7466 33.6509 22.4638 33.2177C22.2219 32.8503 22.0103 32.4638 21.831 32.062H13.797Z" fill="#166AAF"/>
</svg>
