<svg width="37" height="37" viewBox="0 0 37 37" fill="none" xmlns="http://www.w3.org/2000/svg">
<path fill-rule="evenodd" clip-rule="evenodd" d="M28.875 27.0191V1.3125C28.875 0.964403 28.7367 0.630564 28.4906 0.384422C28.2444 0.138281 27.9106 0 27.5625 0H19.6875C19.3394 0 19.0056 0.138281 18.7594 0.384422C18.5133 0.630564 18.375 0.964403 18.375 1.3125V3.9375H22.3125C22.6606 3.9375 22.9944 4.07578 23.2406 4.32192C23.4867 4.56806 23.625 4.9019 23.625 5.25C23.625 5.5981 23.4867 5.93194 23.2406 6.17808C22.9944 6.42422 22.6606 6.5625 22.3125 6.5625H18.375V9.1875H22.3125C22.6606 9.1875 22.9944 9.32578 23.2406 9.57192C23.4867 9.81806 23.625 10.1519 23.625 10.5C23.625 10.8481 23.4867 11.1819 23.2406 11.4281C22.9944 11.6742 22.6606 11.8125 22.3125 11.8125H18.375V14.4375H22.3125C22.6606 14.4375 22.9944 14.5758 23.2406 14.8219C23.4867 15.0681 23.625 15.4019 23.625 15.75C23.625 16.0981 23.4867 16.4319 23.2406 16.6781C22.9944 16.9242 22.6606 17.0625 22.3125 17.0625H18.9184L2.24044 0.384562C2.05688 0.201063 1.82304 0.0761042 1.56848 0.0254842C1.31392 -0.0251357 1.05006 0.000855799 0.810266 0.100173C0.570472 0.19949 0.365509 0.367673 0.221285 0.583461C0.0770623 0.799249 5.54194e-05 1.05295 0 1.3125V35.4375C0 35.7856 0.138281 36.1194 0.384422 36.3656C0.630564 36.6117 0.964403 36.75 1.3125 36.75H35.4375C35.6965 36.7487 35.9493 36.671 36.1643 36.5265C36.3793 36.3821 36.5468 36.1774 36.646 35.9381C36.7451 35.6988 36.7713 35.4356 36.7214 35.1815C36.6715 34.9273 36.5477 34.6936 36.3654 34.5096L28.875 27.0191ZM2.625 4.48088L32.2691 34.125H2.625V4.48088ZM7.49044 13.5096C7.30688 13.3261 7.07304 13.2011 6.81848 13.1505C6.56392 13.0999 6.30006 13.1259 6.06027 13.2252C5.82047 13.3245 5.61551 13.4927 5.47129 13.7085C5.32706 13.9242 5.25006 14.178 5.25 14.4375V30.1875C5.25 30.5356 5.38828 30.8694 5.63442 31.1156C5.88056 31.3617 6.2144 31.5 6.5625 31.5H22.3125C22.5715 31.4987 22.8243 31.421 23.0393 31.2765C23.2543 31.1321 23.4218 30.9274 23.521 30.6881C23.6201 30.4488 23.6463 30.1856 23.5964 29.9315C23.5465 29.6773 23.4227 29.4436 23.2404 29.2596L7.49044 13.5096ZM7.875 17.6059L19.1441 28.875H7.875V17.6059Z" fill="#166AAF"/>
</svg>
