<svg width="46" height="46" viewBox="0 0 46 46" fill="none" xmlns="http://www.w3.org/2000/svg">
<path d="M15.5588 2.70591H23.6764C24.4237 2.70591 25.0294 3.31164 25.0294 4.05887V12.1765C25.0294 12.9238 24.4237 13.5295 23.6764 13.5295H15.5588C14.8116 13.5295 14.2058 12.9238 14.2058 12.1765V4.05887C14.2059 3.31164 14.8116 2.70591 15.5588 2.70591ZM36.5294 0H44.647C45.3943 0 46 0.605727 46 1.35296V9.47061C46 10.2178 45.3943 10.8236 44.647 10.8236H36.5294C35.7822 10.8236 35.1764 10.2178 35.1764 9.47061V1.35296C35.1764 0.605727 35.7823 0 36.5294 0ZM31.7941 18.2647H39.9117C40.659 18.2647 41.2647 18.8704 41.2647 19.6177V27.7353C41.2647 28.4825 40.659 29.0883 39.9117 29.0883H31.7941C31.0469 29.0883 30.4411 28.4825 30.4411 27.7353V19.6177C30.4412 18.8704 31.0469 18.2647 31.7941 18.2647ZM29.7647 35.1764C30.5119 35.1764 31.1177 35.7822 31.1177 36.5294V44.647C31.1177 45.3943 30.5119 46 29.7647 46H1.35296C0.605727 46 0 45.3943 0 44.647V16.2353C0 15.4881 0.605727 14.8823 1.35296 14.8823H9.47061C10.2178 14.8823 10.8236 15.4881 10.8236 16.2353V25.0294H19.6177C20.3649 25.0294 20.9706 25.6351 20.9706 26.3823V35.1764H29.7647Z" fill="#1B6DB1"/>
</svg>
