<svg width="39" height="38" viewBox="0 0 39 38" fill="none" xmlns="http://www.w3.org/2000/svg">
<path d="M18.3646 19.25C23.8069 19.25 28.2188 14.9407 28.2188 9.625C28.2188 4.30926 23.8069 0 18.3646 0C12.9223 0 8.51044 4.30926 8.51044 9.625C8.51044 14.9407 12.9223 19.25 18.3646 19.25Z" fill="white"/>
<path fill-rule="evenodd" clip-rule="evenodd" d="M29.1146 22.2146C27.4538 22.2617 25.8772 22.9392 24.7196 24.1032C23.5619 25.2672 22.9143 26.8262 22.9143 28.449C22.9143 30.0718 23.5619 31.6307 24.7196 32.7948C25.8772 33.9588 27.4538 34.6363 29.1146 34.6833C32.637 34.6833 35.4983 31.8886 35.4983 28.4481C35.4983 25.0076 32.637 22.2146 29.1146 22.2146ZM29.1146 24.8396C31.1535 24.8396 32.8108 26.4566 32.8108 28.4481C32.8108 30.4396 31.1535 32.0583 29.1146 32.0583C27.0756 32.0583 25.4184 30.4396 25.4184 28.4481C25.4184 26.4566 27.0756 24.8396 29.1146 24.8396Z" fill="white"/>
<path fill-rule="evenodd" clip-rule="evenodd" d="M30.4583 23.5252V20.573C30.4583 20.2249 30.3167 19.8911 30.0647 19.6449C29.8127 19.3988 29.4709 19.2605 29.1146 19.2605C28.7582 19.2605 28.4164 19.3988 28.1644 19.6449C27.9124 19.8911 27.7708 20.2249 27.7708 20.573V23.527C27.7711 23.8751 27.9129 24.2088 28.165 24.4548C28.4172 24.7008 28.7591 24.8389 29.1155 24.8386C29.4718 24.8384 29.8135 24.6999 30.0654 24.4536C30.3172 24.2073 30.4586 23.8733 30.4583 23.5252ZM33.6278 25.8965L35.7652 23.807C36.0171 23.561 36.1586 23.2274 36.1586 22.8795C36.1586 22.5316 36.0171 22.198 35.7652 21.952C35.5134 21.706 35.1718 21.5678 34.8156 21.5678C34.4595 21.5678 34.1179 21.706 33.8661 21.952L31.7268 24.0397C31.4755 24.2864 31.3344 24.6202 31.3344 24.9681C31.3344 25.3161 31.4755 25.6499 31.7268 25.8965C31.9793 26.142 32.321 26.2798 32.6773 26.2798C33.0335 26.2798 33.3753 26.142 33.6278 25.8965ZM34.1527 29.7605H37.1771C37.5334 29.7605 37.8752 29.6222 38.1272 29.3761C38.3792 29.1299 38.5208 28.7961 38.5208 28.448C38.5208 28.0999 38.3792 27.7661 38.1272 27.5199C37.8752 27.2738 37.5334 27.1355 37.1771 27.1355H34.1527C33.7963 27.1355 33.4546 27.2738 33.2026 27.5199C32.9506 27.7661 32.809 28.0999 32.809 28.448C32.809 28.7961 32.9506 29.1299 33.2026 29.3761C33.4546 29.6222 33.7963 29.7605 34.1527 29.7605ZM31.7268 32.8562L33.8661 34.944C33.9908 35.0658 34.1388 35.1624 34.3017 35.2283C34.4647 35.2943 34.6393 35.3282 34.8156 35.3282C34.992 35.3282 35.1666 35.2943 35.3296 35.2283C35.4925 35.1624 35.6405 35.0658 35.7652 34.944C35.8899 34.8222 35.9888 34.6776 36.0563 34.5185C36.1238 34.3593 36.1586 34.1887 36.1586 34.0165C36.1586 33.8442 36.1238 33.6737 36.0563 33.5145C35.9888 33.3554 35.8899 33.2108 35.7652 33.089L33.6278 30.9995C33.3753 30.754 33.0335 30.6162 32.6773 30.6162C32.321 30.6162 31.9793 30.754 31.7268 30.9995C31.4755 31.2461 31.3344 31.5799 31.3344 31.9279C31.3344 32.2758 31.4755 32.6096 31.7268 32.8562ZM27.7708 33.369V36.323C27.7708 36.6711 27.9124 37.0049 28.1644 37.2511C28.4164 37.4972 28.7582 37.6355 29.1146 37.6355C29.4709 37.6355 29.8127 37.4972 30.0647 37.2511C30.3167 37.0049 30.4583 36.6711 30.4583 36.323V33.369C30.4583 33.0209 30.3167 32.6871 30.0647 32.4409C29.8127 32.1948 29.4709 32.0565 29.1146 32.0565C28.7582 32.0565 28.4164 32.1948 28.1644 32.4409C27.9124 32.6871 27.7708 33.0209 27.7708 33.369ZM24.6014 30.9995L22.4639 33.089C22.3392 33.2108 22.2403 33.3554 22.1728 33.5145C22.1053 33.6737 22.0706 33.8442 22.0706 34.0165C22.0706 34.1887 22.1053 34.3593 22.1728 34.5185C22.2403 34.6776 22.3392 34.8222 22.4639 34.944C22.5886 35.0658 22.7366 35.1624 22.8996 35.2283C23.0625 35.2943 23.2371 35.3282 23.4135 35.3282C23.5898 35.3282 23.7645 35.2943 23.9274 35.2283C24.0903 35.1624 24.2384 35.0658 24.3631 34.944L26.5023 32.8562C26.7536 32.6096 26.8947 32.2758 26.8947 31.9279C26.8947 31.5799 26.7536 31.2461 26.5023 30.9995C26.2498 30.754 25.9081 30.6162 25.5518 30.6162C25.1956 30.6162 24.8538 30.754 24.6014 30.9995ZM24.0746 27.1355H21.0521C20.6957 27.1355 20.3539 27.2738 20.1019 27.5199C19.8499 27.7661 19.7083 28.0999 19.7083 28.448C19.7083 28.7961 19.8499 29.1299 20.1019 29.3761C20.3539 29.6222 20.6957 29.7605 21.0521 29.7605H24.0746C24.431 29.7605 24.7728 29.6222 25.0248 29.3761C25.2768 29.1299 25.4184 28.7961 25.4184 28.448C25.4184 28.0999 25.2768 27.7661 25.0248 27.5199C24.7728 27.2738 24.431 27.1355 24.0746 27.1355ZM26.5023 24.0397L24.3631 21.952C24.2384 21.8302 24.0903 21.7336 23.9274 21.6677C23.7645 21.6017 23.5898 21.5678 23.4135 21.5678C23.2371 21.5678 23.0625 21.6017 22.8996 21.6677C22.7366 21.7336 22.5886 21.8302 22.4639 21.952C22.3392 22.0738 22.2403 22.2184 22.1728 22.3775C22.1053 22.5367 22.0706 22.7072 22.0706 22.8795C22.0706 23.0518 22.1053 23.2223 22.1728 23.3815C22.2403 23.5406 22.3392 23.6852 22.4639 23.807L24.6014 25.8965C24.8538 26.142 25.1956 26.2798 25.5518 26.2798C25.9081 26.2798 26.2498 26.142 26.5023 25.8965C26.7536 25.6499 26.8947 25.3161 26.8947 24.9681C26.8947 24.6202 26.7536 24.2864 26.5023 24.0397Z" fill="white"/>
<path fill-rule="evenodd" clip-rule="evenodd" d="M20.9374 35.896C20.4693 35.3066 20.2374 34.5706 20.2852 33.826C20.333 33.0814 20.6573 32.3795 21.1972 31.8518L21.5448 31.5105H21.0521C20.2205 31.5105 19.423 31.1879 18.835 30.6136C18.247 30.0392 17.9167 29.2603 17.9167 28.448C17.9167 27.6358 18.247 26.8569 18.835 26.2825C19.423 25.7082 20.2205 25.3855 21.0521 25.3855H21.5448L21.1972 25.0443C20.6345 24.4944 20.307 23.7562 20.2811 22.9791C20.2551 22.2021 20.5327 21.4445 21.0575 20.86C20.1615 20.7923 19.2632 20.7585 18.3646 20.7585C12.4127 20.7585 7.14338 22.2128 3.8718 24.3915C1.376 26.054 4.75988e-06 28.1663 4.75988e-06 30.3835V32.921C-0.000703322 33.3119 0.0775962 33.6991 0.230413 34.0603C0.383229 34.4216 0.607557 34.7498 0.89053 35.0262C1.1735 35.3026 1.50955 35.5217 1.87941 35.671C2.24927 35.8203 2.64565 35.8967 3.04584 35.896H20.9374Z" fill="white"/>
</svg>
