<svg width="29" height="37" viewBox="0 0 29 37" fill="none" xmlns="http://www.w3.org/2000/svg">
<path fill-rule="evenodd" clip-rule="evenodd" d="M11.3283 35.3438C9.52531 33.335 8.52905 30.7304 8.53125 28.0312C8.53125 21.9777 13.4489 17.0625 19.5 17.0625C22.3092 17.0625 24.8747 18.1204 26.8125 19.8583V8.02669L18.787 0H4.875C3.58207 0 2.34209 0.513615 1.42785 1.42785C0.513614 2.34209 0 3.58207 0 4.875V30.4688C0 31.7617 0.513614 33.0017 1.42785 33.9159C2.34209 34.8301 3.58207 35.3438 4.875 35.3438H11.3283ZM17.0625 8.53125H23.8692L17.0625 1.72331V8.53125Z" fill="white"/>
<path fill-rule="evenodd" clip-rule="evenodd" d="M19.5 19.5C14.7895 19.5 10.9688 23.3226 10.9688 28.0312C10.9688 32.7399 14.7895 36.5625 19.5 36.5625C24.2105 36.5625 28.0312 32.7399 28.0312 28.0312C28.0312 23.3226 24.2105 19.5 19.5 19.5ZM14.4178 24.6712L22.8577 33.1147C21.8628 33.7756 20.6944 34.1272 19.5 34.125C16.1363 34.125 13.4062 31.3944 13.4062 28.0312C13.4062 26.79 13.778 25.6346 14.4178 24.6712ZM24.5822 31.3913L16.1423 22.9478C17.1372 22.2869 18.3056 21.9353 19.5 21.9375C22.8638 21.9375 25.5938 24.6681 25.5938 28.0312C25.5938 29.2725 25.222 30.4279 24.5822 31.3913Z" fill="white"/>
</svg>
