<svg width="45" height="48" viewBox="0 0 45 48" fill="none" xmlns="http://www.w3.org/2000/svg">
<path d="M25.5682 44.2633H27.3333C27.6439 44.2633 27.9015 44.0109 27.9015 43.7065C27.9015 43.4021 27.6439 43.1497 27.3333 43.1497H25.5682C25.2576 43.1497 25 43.4021 25 43.7065C25 44.0109 25.2576 44.2633 25.5682 44.2633Z" fill="white"/>
<path d="M43.9015 0H32.7803C32.4697 0 32.2121 0.252424 32.2121 0.556818V21.1071C32.2121 21.4115 32.4697 21.6639 32.7803 21.6639H36.7727V23.2973H24.1894V21.6639H27.7955C28.1061 21.6639 28.3636 21.4115 28.3636 21.1071V0.556818C28.3636 0.252424 28.1061 0 27.7955 0H16.6742C16.3636 0 16.1061 0.252424 16.1061 0.556818V21.1071C16.1061 21.4115 16.3636 21.6639 16.6742 21.6639H20.2803V23.2973H7.69697V21.6639H11.6894C12 21.6639 12.2576 21.4115 12.2576 21.1071V0.556818C12.2576 0.252424 12 0 11.6894 0H0.568182C0.257576 0 0 0.252424 0 0.556818V21.1071C0 21.4115 0.257576 21.6639 0.568182 21.6639H4.25758V24.9752C4.25758 25.9106 5.0303 26.6605 5.97727 26.6605H20.2803V27.982H18.4394C18.2121 27.982 18.0076 28.1082 17.9167 28.3161C17.8612 28.4437 17.8584 28.5874 17.9091 28.717C15.5379 28.9917 10.6364 29.8158 10.6364 31.9911V43.9961C10.6364 46.305 16.4697 47.5152 22.2348 47.5152C28 47.5152 33.8333 46.305 33.8333 43.9961V31.9911C33.8333 29.838 29.1288 29.0139 26.5606 28.717C26.6113 28.5874 26.6085 28.4437 26.553 28.3161C26.5093 28.216 26.4364 28.1309 26.3433 28.0714C26.2503 28.0119 26.1414 27.9808 26.0303 27.982H24.1894V26.6605H38.4924C39.4394 26.6605 40.2121 25.9106 40.2121 24.9752V21.6639H43.9015C44.2121 21.6639 44.4697 21.4115 44.4697 21.1071V0.556818C44.4697 0.252424 44.2121 0 43.9015 0ZM1.13636 20.5503V5.44939H11.1212V20.5503H1.13636ZM32.697 43.9961C32.697 44.835 29.1061 46.4015 22.2348 46.4015C15.3636 46.4015 11.7727 44.835 11.7727 43.9961V39.7494C15.7273 42.2588 28.7424 42.2588 32.697 39.7494V43.9961ZM20.5303 37.9453C20.5303 37.0247 21.2955 36.2749 22.2348 36.2749C23.1742 36.2749 23.9394 37.0247 23.9394 37.9453C23.9394 38.8659 23.1742 39.6158 22.2348 39.6158C21.2955 39.6158 20.5303 38.8659 20.5303 37.9453ZM25.6818 29.7489C30.4621 30.1795 32.697 31.3303 32.697 31.9911C32.697 32.83 29.1061 34.3891 22.2348 34.3891C15.3636 34.3891 11.7727 32.83 11.7727 31.9911C11.7727 31.3452 13.9848 30.187 18.7273 29.7564C18.7424 29.7489 18.7576 29.7415 18.7727 29.7415L21.6667 32.8894C21.8182 33.0379 22.0227 33.1195 22.2273 33.1195C22.4394 33.1195 22.6591 33.0305 22.8258 32.8671L25.6818 29.7489ZM17.2424 20.5503V5.44939H27.2273V20.5503H17.2424ZM43.3333 20.5503H33.3485V5.44939H43.3333V20.5503Z" fill="white"/>
<path d="M3.4394 7.92174H8.21213C8.52273 7.92174 8.78031 7.66932 8.78031 7.36492C8.78031 7.06053 8.52273 6.80811 8.21213 6.80811H3.4394C3.28871 6.80811 3.14419 6.86677 3.03763 6.97119C2.93108 7.07562 2.87122 7.21725 2.87122 7.36492C2.87122 7.5126 2.93108 7.65423 3.03763 7.75865C3.14419 7.86308 3.28871 7.92174 3.4394 7.92174ZM3.4394 10.3866H8.21213C8.52273 10.3866 8.78031 10.1342 8.78031 9.82977C8.78031 9.52538 8.52273 9.27295 8.21213 9.27295H3.4394C3.28871 9.27295 3.14419 9.33162 3.03763 9.43604C2.93108 9.54047 2.87122 9.68209 2.87122 9.82977C2.87122 9.97745 2.93108 10.1191 3.03763 10.2235C3.14419 10.3279 3.28871 10.3866 3.4394 10.3866ZM8.21213 12.8589C8.52273 12.8589 8.78031 12.6064 8.78031 12.302C8.78031 11.9977 8.52273 11.7452 8.21213 11.7452H3.4394C3.12879 11.7452 2.87122 11.9977 2.87122 12.302C2.87122 12.6064 3.12879 12.8589 3.4394 12.8589H8.21213ZM24.6061 16.8308C24.6061 18.2786 23.4015 19.4516 21.9242 19.4516C21.216 19.4516 20.5368 19.1759 20.0359 18.6851C19.5351 18.1943 19.2538 17.5286 19.2538 16.8345C19.2538 16.1405 19.5351 15.4748 20.0359 14.984C20.5368 14.4932 21.216 14.2175 21.9242 14.2175C23.4015 14.2175 24.6061 15.3905 24.6061 16.8308ZM8.5 16.8308C8.5 18.2786 7.29546 19.4516 5.81819 19.4516C5.10994 19.4516 4.4307 19.1759 3.92989 18.6851C3.42908 18.1943 3.14773 17.5286 3.14773 16.8345C3.14773 16.1405 3.42908 15.4748 3.92989 14.984C4.4307 14.4932 5.10994 14.2175 5.81819 14.2175C7.29546 14.2175 8.5 15.3905 8.5 16.8308ZM19.5455 7.92174H24.3182C24.6288 7.92174 24.8864 7.66932 24.8864 7.36492C24.8864 7.06053 24.6288 6.80811 24.3182 6.80811H19.5455C19.3948 6.80811 19.2502 6.86677 19.1437 6.97119C19.0371 7.07562 18.9773 7.21725 18.9773 7.36492C18.9773 7.5126 19.0371 7.65423 19.1437 7.75865C19.2502 7.86308 19.3948 7.92174 19.5455 7.92174ZM19.5455 10.3866H24.3182C24.6288 10.3866 24.8864 10.1342 24.8864 9.82977C24.8864 9.52538 24.6288 9.27295 24.3182 9.27295H19.5455C19.3948 9.27295 19.2502 9.33162 19.1437 9.43604C19.0371 9.54047 18.9773 9.68209 18.9773 9.82977C18.9773 9.97745 19.0371 10.1191 19.1437 10.2235C19.2502 10.3279 19.3948 10.3866 19.5455 10.3866ZM24.3182 12.8589C24.6288 12.8589 24.8864 12.6064 24.8864 12.302C24.8864 11.9977 24.6288 11.7452 24.3182 11.7452H19.5455C19.2349 11.7452 18.9773 11.9977 18.9773 12.302C18.9773 12.6064 19.2349 12.8589 19.5455 12.8589H24.3182ZM41.0152 16.8308C41.0152 17.175 40.946 17.5158 40.8116 17.8338C40.6772 18.1517 40.4802 18.4406 40.2319 18.684C39.9836 18.9273 39.6888 19.1204 39.3643 19.2521C39.0399 19.3838 38.6921 19.4516 38.3409 19.4516C37.9897 19.4516 37.642 19.3838 37.3175 19.2521C36.9931 19.1204 36.6983 18.9273 36.4499 18.684C36.2016 18.4406 36.0046 18.1517 35.8702 17.8338C35.7358 17.5158 35.6667 17.175 35.6667 16.8308C35.6667 15.3905 36.8636 14.2175 38.3409 14.2175C39.8106 14.2175 41.0152 15.3905 41.0152 16.8308ZM35.6515 7.92174H40.4242C40.7349 7.92174 40.9924 7.66932 40.9924 7.36492C40.9924 7.06053 40.7349 6.80811 40.4242 6.80811H35.6515C35.5008 6.80811 35.3563 6.86677 35.2498 6.97119C35.1432 7.07562 35.0833 7.21725 35.0833 7.36492C35.0833 7.5126 35.1432 7.65423 35.2498 7.75865C35.3563 7.86308 35.5008 7.92174 35.6515 7.92174ZM35.6515 10.3866H40.4242C40.7349 10.3866 40.9924 10.1342 40.9924 9.82977C40.9924 9.52538 40.7349 9.27295 40.4242 9.27295H35.6515C35.5008 9.27295 35.3563 9.33162 35.2498 9.43604C35.1432 9.54047 35.0833 9.68209 35.0833 9.82977C35.0833 9.97745 35.1432 10.1191 35.2498 10.2235C35.3563 10.3279 35.5008 10.3866 35.6515 10.3866ZM35.6515 12.8589H40.4242C40.7349 12.8589 40.9924 12.6064 40.9924 12.302C40.9924 11.9977 40.7349 11.7452 40.4242 11.7452H35.6515C35.5008 11.7452 35.3563 11.8039 35.2498 11.9083C35.1432 12.0127 35.0833 12.1544 35.0833 12.302C35.0833 12.4497 35.1432 12.5914 35.2498 12.6958C35.3563 12.8002 35.5008 12.8589 35.6515 12.8589Z" fill="white"/>
<path d="M22.2349 38.5021C22.5487 38.5021 22.8031 38.2528 22.8031 37.9452C22.8031 37.6377 22.5487 37.3884 22.2349 37.3884C21.9211 37.3884 21.6667 37.6377 21.6667 37.9452C21.6667 38.2528 21.9211 38.5021 22.2349 38.5021Z" fill="white"/>
<path d="M22.2349 45.8448C23.1763 45.8448 23.9394 45.0969 23.9394 44.1744C23.9394 43.2518 23.1763 42.5039 22.2349 42.5039C21.2935 42.5039 20.5303 43.2518 20.5303 44.1744C20.5303 45.0969 21.2935 45.8448 22.2349 45.8448Z" fill="white"/>
</svg>
