<svg width="41" height="39" viewBox="0 0 41 39" fill="none" xmlns="http://www.w3.org/2000/svg">
<path d="M14.5473 9.225C14.5467 8.16967 14.8668 7.13788 15.467 6.26012C16.0671 5.38237 16.9205 4.69807 17.9191 4.29378C18.9177 3.88949 20.0167 3.78336 21.0771 3.98881C22.1375 4.19427 23.1116 4.70208 23.8763 5.44803C24.3859 5.94302 24.79 6.53164 25.0652 7.17991C25.3405 7.82818 25.4814 8.52325 25.48 9.225V10.778H28.6873C28.9163 10.778 29.1518 10.7905 29.3745 10.8215V9.13803C29.3745 6.6097 28.3245 4.32985 26.6318 2.67742C24.9391 1.025 22.6036 0 20.0136 0C14.8336 0 10.6527 4.09379 10.6527 9.13803V10.8588H14.5536V9.225H14.5473ZM18.8491 22.3885C19.0018 22.4568 19.1163 22.5811 19.18 22.7302C19.2376 22.8838 19.2307 23.0535 19.1609 23.2023L17.5 26.6935L22.3873 26.6873L20.7582 23.2892C20.7216 23.213 20.7015 23.1302 20.6991 23.046C20.6967 22.9619 20.7122 22.8781 20.7444 22.8C20.7766 22.7219 20.825 22.6511 20.8865 22.5921C20.948 22.5331 21.0213 22.487 21.1018 22.4568C22.2218 22.0406 22.9791 20.9783 22.9791 19.8105C22.9791 18.2388 21.6682 16.9591 20.0645 16.9591C18.4609 16.9591 17.1563 18.2388 17.1563 19.8105C17.1563 20.9224 17.8182 21.9288 18.8491 22.3885Z" fill="white"/>
<path d="M11.4418 31.6444H28.6873C31.1818 31.6444 33.2055 29.669 33.2055 27.2338V16.4185C33.2055 13.9834 31.1818 12.0079 28.6873 12.0079H11.4418C8.94727 12.0079 6.92364 13.9834 6.92364 16.4185V27.2338C6.92364 29.669 8.94727 31.6444 11.4418 31.6444ZM20.0645 15.7352C22.3618 15.7352 24.2327 17.5616 24.2327 19.8103C24.2327 21.264 23.4182 22.5996 22.1518 23.3202L23.5136 26.1716C23.6918 26.5505 23.6664 26.9916 23.4373 27.3394C23.2082 27.6935 22.8136 27.9047 22.3809 27.9047H17.4873C17.0609 27.9047 16.6664 27.6935 16.4373 27.3394C16.2082 26.9853 16.1764 26.5505 16.3545 26.1716L17.7673 23.1959C17.1908 22.8269 16.7174 22.3237 16.3897 21.7316C16.0619 21.1395 15.8902 20.4771 15.89 19.8041C15.9027 17.5678 17.7673 15.7352 20.0645 15.7352ZM31.4682 35.0425C30.73 35.0425 30.0873 35.4835 29.8264 36.1109C29.8073 36.1109 29.7945 36.1047 29.7755 36.1047H27.1345C26.5555 36.1047 26.0973 35.645 26.0973 35.0922V32.8682H24.8436V35.0922C24.8436 36.3284 25.8745 37.3285 27.1345 37.3285H29.7882C30.0236 38.0119 30.6855 38.515 31.4682 38.515C32.4482 38.515 33.25 37.7385 33.25 36.7756C33.2462 36.3161 33.057 35.8765 32.7235 35.5521C32.39 35.2277 31.939 35.0446 31.4682 35.0425ZM14.0382 35.0922C14.0382 35.6513 13.5736 36.1047 12.9945 36.1047H10.3536C10.3345 36.1047 10.3218 36.1109 10.3027 36.1109C10.1676 35.7933 9.93873 35.5221 9.64523 35.3318C9.35173 35.1415 9.00687 35.0408 8.65455 35.0425C7.67455 35.0425 6.87909 35.819 6.87909 36.7819C6.87909 37.7447 7.67455 38.5213 8.65455 38.5213C9.44364 38.5213 10.1055 38.0181 10.3409 37.3347H12.9945C14.2609 37.3347 15.2855 36.3284 15.2855 35.0984V32.8744H14.0318V35.0922H14.0382ZM20.6882 35.0984V32.8682H19.4345V35.0984C18.7664 35.3469 18.2827 35.9743 18.2827 36.7197C18.2827 37.6826 19.0845 38.4591 20.0709 38.4591C21.0509 38.4591 21.8464 37.6826 21.8464 36.7197C21.8464 35.9681 21.3691 35.3406 20.6882 35.0984ZM37.6536 14.9214C37.6536 15.4867 37.1891 15.9402 36.6164 15.9402H34.4464C34.4655 16.0955 34.4718 16.2508 34.4718 16.4123V17.164H36.61C37.8764 17.164 38.9009 16.1514 38.9009 14.9214V12.3372C39.2551 12.2224 39.5633 12.0016 39.7815 11.706C39.9997 11.4105 40.1169 11.0553 40.1164 10.6909C40.1164 9.73428 39.3209 8.95776 38.3345 8.95776C37.3482 8.95776 36.5527 9.73428 36.5527 10.6909C36.5527 11.4178 37.0109 12.039 37.6536 12.2999C37.6473 12.3123 37.6409 12.3309 37.6409 12.3434V14.9214H37.6536ZM38.9073 31.309V28.7247C38.9073 27.4885 37.8764 26.4822 36.6164 26.4822H34.4718V27.2338C34.4718 27.3953 34.4655 27.5506 34.4464 27.7059H36.61C37.1891 27.7059 37.6473 28.1656 37.6473 28.7247V31.3028C37.6473 31.3152 37.6536 31.3338 37.66 31.3463C37.3344 31.4785 37.0561 31.7018 36.8602 31.9881C36.6643 32.2744 36.5595 32.6109 36.5591 32.9552C36.5591 33.9119 37.3545 34.6884 38.3409 34.6884C39.3273 34.6884 40.1227 33.9119 40.1227 32.9552C40.1227 32.1849 39.6136 31.5388 38.9073 31.309ZM38.2773 20.0837C37.5136 20.0837 36.8645 20.5558 36.6164 21.2081H34.4655V22.4319H36.6164C36.8709 23.0841 37.5136 23.5562 38.2773 23.5562C39.2636 23.5562 40.0591 22.7797 40.0591 21.8106C40.0591 20.8664 39.2636 20.0837 38.2773 20.0837ZM2.48182 14.9214V12.3434C2.48182 12.3309 2.46909 12.3123 2.46909 12.2999C2.79398 12.1673 3.07134 11.9437 3.26615 11.6573C3.46095 11.371 3.56448 11.0347 3.56364 10.6909C3.56364 9.73428 2.77455 8.95776 1.78818 8.95776C0.801818 8.95776 0 9.73428 0 10.6909C0 11.4612 0.515455 12.1073 1.22182 12.3372V14.9214C1.22182 16.1576 2.25273 17.164 3.51273 17.164H5.65727V16.4123C5.65727 16.2508 5.66364 16.0955 5.68273 15.9402H3.52545C2.94636 15.9464 2.48182 15.4867 2.48182 14.9214ZM2.48182 28.7247C2.48182 28.1594 2.94636 27.7059 3.51909 27.7059H5.68909C5.67 27.5506 5.66364 27.3953 5.66364 27.2338V26.4822H3.52545C2.25909 26.4822 1.23455 27.4947 1.23455 28.7247V31.309C0.879612 31.4234 0.570581 31.644 0.351276 31.9394C0.131971 32.2349 0.0135229 32.5903 0.0127273 32.9552C0.0127273 33.9119 0.814546 34.6884 1.80091 34.6884C2.78727 34.6884 3.57636 33.9119 3.57636 32.9552C3.5772 32.6114 3.47368 32.2752 3.27887 31.9888C3.08407 31.7024 2.80671 31.4788 2.48182 31.3463C2.48182 31.3338 2.49455 31.3152 2.49455 31.3028V28.7247H2.48182ZM1.85818 23.5625C2.62182 23.5625 3.26455 23.0903 3.51909 22.4381H5.67V21.2143H3.51909C3.37344 20.833 3.09511 20.5137 2.73277 20.3125C2.37043 20.1112 1.94714 20.0406 1.53692 20.1132C1.1267 20.1857 0.75565 20.3967 0.488661 20.7093C0.221673 21.0219 0.0757335 21.4161 0.0763636 21.8231C0.0763636 22.7859 0.871818 23.5625 1.85818 23.5625Z" fill="white"/>
</svg>
