<svg width="44" height="45" viewBox="0 0 44 45" fill="none" xmlns="http://www.w3.org/2000/svg">
<path fill-rule="evenodd" clip-rule="evenodd" d="M21.2955 29.1037L16.0339 26.3738L0 44.9543C3.60112 45.071 7.42228 45.1803 9.89241 42.3179L12.0837 39.7785L11.8139 38.4098H11.8149C11.7992 38.3297 11.802 38.247 11.823 38.1681C11.844 38.0892 11.8827 38.0161 11.9362 37.9544L17.4053 31.6169C17.4585 31.5521 17.526 31.5005 17.6026 31.4664C17.6793 31.4323 17.7628 31.4166 17.8465 31.4205L19.2387 31.4871L21.2955 29.1037ZM9.35175 38.108C9.25832 38.216 9.12583 38.2824 8.98342 38.2927C8.84101 38.303 8.70035 38.2563 8.59237 38.1628C8.4844 38.0694 8.41797 37.9369 8.40768 37.7945C8.3974 37.6521 8.4441 37.5114 8.53753 37.4035L14.609 30.3678C14.7024 30.2598 14.8349 30.1934 14.9773 30.1831C15.1197 30.1728 15.2603 30.2195 15.3683 30.3129C15.4763 30.4063 15.5427 30.5388 15.553 30.6812C15.5633 30.8236 15.5166 30.9643 15.4232 31.0722L9.35175 38.108ZM26.3965 17.7814C26.259 17.9603 26.1787 18.0972 26.1971 18.3487C26.2083 18.4984 26.2645 18.6412 26.3581 18.7585C26.4518 18.8757 26.5787 18.962 26.7222 19.0061C26.8657 19.0501 27.0192 19.0498 27.1625 19.0052C27.3058 18.9606 27.4324 18.8738 27.5256 18.7561C27.9082 18.3207 27.5805 17.4977 26.8843 17.5489C26.6984 17.5624 26.5243 17.6454 26.3968 17.7814H26.3965ZM25.5862 17.0712L25.592 17.0655C25.9161 16.7084 26.3686 16.4944 26.8503 16.4706C27.332 16.4467 27.8034 16.6149 28.1613 16.9382L28.1671 16.9441C28.5242 17.2683 28.7381 17.7208 28.762 18.2025C28.7858 18.6841 28.6176 19.1556 28.2943 19.5134L28.2885 19.5192C27.9622 19.8707 27.5105 20.0794 27.0313 20.1002C26.5521 20.1209 26.084 19.952 25.7285 19.6301C25.373 19.3081 25.1587 18.859 25.132 18.3801C25.1054 17.9012 25.2685 17.4311 25.5861 17.0716L25.5862 17.0712ZM38.8934 9.5975C38.7994 9.70547 38.6664 9.77168 38.5236 9.78157C38.3808 9.79146 38.2399 9.74422 38.1319 9.65023C38.0239 9.55624 37.9577 9.42321 37.9478 9.28041C37.938 9.1376 37.9852 8.99672 38.0792 8.88875L38.361 8.56531C38.455 8.45734 38.588 8.39112 38.7308 8.38123C38.8736 8.37134 39.0145 8.41859 39.1225 8.51257C39.2305 8.60656 39.2967 8.73959 39.3066 8.88239C39.3164 9.0252 39.2692 9.16609 39.1752 9.27406L38.8934 9.5975ZM21.4517 27.971L15.4453 24.8547L35.6059 1.49215C36.3527 0.632887 37.4075 0.101682 38.5425 0.0131464C39.6776 -0.0753894 40.8019 0.285841 41.673 1.0189C41.6909 1.03667 41.71 1.05315 41.7302 1.06821C42.5824 1.82254 43.1041 2.88158 43.1827 4.01698C43.2613 5.15239 42.8905 6.27321 42.1504 7.13778L23.3309 28.946L22.4377 28.4826L37.4258 11.2816C37.5198 11.1736 37.5671 11.0328 37.5572 10.89C37.5473 10.7472 37.4811 10.6141 37.3731 10.5201C37.2651 10.4261 37.1242 10.3789 36.9814 10.3888C36.8386 10.3987 36.7056 10.4649 36.6116 10.5729L34.0832 13.4746C33.1343 12.0731 31.7959 10.98 30.233 10.3303C30.1009 10.2761 29.9528 10.2765 29.821 10.3315C29.6893 10.3865 29.5848 10.4915 29.5305 10.6235C29.4763 10.7556 29.4767 10.9037 29.5317 11.0355C29.5867 11.1672 29.6917 11.2717 29.8237 11.326C31.2311 11.9114 32.4293 12.9075 33.2621 14.1841C33.2902 14.2275 33.3244 14.2666 33.3637 14.3002L32.5246 15.2633C32.1101 14.502 31.5447 13.8332 30.8629 13.2979C30.1812 12.7625 29.3974 12.3719 28.5595 12.1497C28.4214 12.1134 28.2744 12.1334 28.151 12.2054C28.0276 12.2774 27.9378 12.3954 27.9015 12.5336C27.8651 12.6718 27.8851 12.8187 27.9571 12.9421C28.0291 13.0656 28.1471 13.1553 28.2853 13.1917C29.0606 13.3957 29.7789 13.7744 30.3853 14.2988C31.4037 15.1776 31.5719 15.918 31.7916 16.1051L30.8691 17.1637C30.6052 16.2472 30.0294 15.4518 29.2412 14.9149C28.4529 14.3781 27.5018 14.1337 26.5524 14.2239C26.4819 14.2303 26.4133 14.2505 26.3506 14.2835C26.2879 14.3165 26.2323 14.3615 26.187 14.416C26.1418 14.4705 26.1077 14.5334 26.0868 14.6011C26.0659 14.6687 26.0586 14.7399 26.0653 14.8104C26.0719 14.881 26.0924 14.9495 26.1257 15.012C26.1589 15.0746 26.2041 15.13 26.2588 15.1751C26.3134 15.2201 26.3765 15.2539 26.4442 15.2746C26.512 15.2952 26.5832 15.3023 26.6537 15.2953C27.2305 15.2396 27.8112 15.3518 28.3258 15.6184C28.8403 15.885 29.2669 16.2947 29.554 16.7981C29.9652 17.5173 29.8047 17.8287 30.0828 18.066L27.1465 21.4352C27.0536 21.3523 26.9346 21.3044 26.8102 21.2997C26.0571 21.267 25.3437 20.953 24.811 20.4198C24.2782 19.8865 23.9648 19.1729 23.9326 18.4198C23.927 18.2772 23.865 18.1426 23.7601 18.0457C23.6553 17.9488 23.5163 17.8975 23.3737 17.9031C23.231 17.9087 23.0964 17.9707 22.9995 18.0755C22.9026 18.1804 22.8513 18.3194 22.8569 18.462C22.8964 19.4154 23.2683 20.325 23.9081 21.0329C24.548 21.7408 25.4154 22.2025 26.36 22.3378L25.4366 23.3972C25.3824 23.349 25.3189 23.3123 25.25 23.2893C24.5406 23.0479 23.8905 22.6586 23.3427 22.1472C22.7949 21.6359 22.362 21.014 22.0724 20.3229C22.0458 20.2567 22.0064 20.1965 21.9563 20.1456C21.9063 20.0948 21.8467 20.0545 21.7809 20.0268C21.7152 19.9992 21.6446 19.9849 21.5733 19.9848C21.502 19.9847 21.4313 19.9987 21.3655 20.026C21.2996 20.0534 21.2398 20.0935 21.1896 20.1441C21.1394 20.1947 21.0997 20.2548 21.0728 20.3209C21.046 20.3869 21.0325 20.4577 21.0332 20.529C21.0339 20.6003 21.0487 20.6708 21.0768 20.7363C21.411 21.5363 21.9052 22.2595 22.5291 22.8616C23.1529 23.4636 23.8931 23.9319 24.7044 24.2376L23.8642 25.2017C23.8254 25.1673 23.7818 25.1386 23.7348 25.1167C22.3561 24.4658 21.2054 23.4148 20.4327 22.1006C20.3605 21.9775 20.2424 21.8881 20.1044 21.8521C19.9663 21.8161 19.8196 21.8364 19.6965 21.9086C19.5735 21.9808 19.4841 22.0989 19.4481 22.2369C19.4121 22.375 19.4324 22.5217 19.5046 22.6448C20.3613 24.1039 21.6272 25.2798 23.1454 26.0268L21.4517 27.971ZM9.32522 6.08H7.35309V8.48684C7.35309 8.63006 7.2962 8.76741 7.19493 8.86868C7.09366 8.96995 6.95631 9.02684 6.81309 9.02684H4.40616V10.999H6.81309C6.88401 10.999 6.95423 11.0129 7.01974 11.0401C7.08526 11.0672 7.14479 11.107 7.19493 11.1571C7.24507 11.2073 7.28485 11.2668 7.31199 11.3323C7.33913 11.3978 7.35309 11.4681 7.35309 11.539V13.9459H9.32522V11.539C9.32522 11.4681 9.33919 11.3978 9.36632 11.3323C9.39346 11.2668 9.43324 11.2073 9.48338 11.1571C9.53352 11.107 9.59305 11.0672 9.65857 11.0401C9.72408 11.0129 9.7943 10.999 9.86522 10.999H12.2722V9.02684H9.86522C9.7943 9.02684 9.72408 9.01287 9.65857 8.98573C9.59305 8.9586 9.53352 8.91882 9.48338 8.86868C9.43324 8.81853 9.39346 8.759 9.36632 8.69349C9.33919 8.62797 9.32522 8.55775 9.32522 8.48684V6.08ZM6.81272 4.99999H9.86484C10.0081 4.99999 10.1454 5.05689 10.2467 5.15816C10.348 5.25943 10.4048 5.39678 10.4048 5.53999V7.94684H12.8122C12.8831 7.94684 12.9533 7.96081 13.0188 7.98795C13.0843 8.01508 13.1438 8.05486 13.194 8.10501C13.2441 8.15515 13.2839 8.21468 13.311 8.2802C13.3381 8.34571 13.3521 8.41593 13.3521 8.48684V11.539C13.3521 11.6099 13.3381 11.6801 13.311 11.7456C13.2839 11.8111 13.2441 11.8707 13.194 11.9208C13.1438 11.9709 13.0843 12.0107 13.0188 12.0379C12.9533 12.065 12.8831 12.079 12.8122 12.079H10.4052V14.4859C10.4052 14.6291 10.3483 14.7665 10.2471 14.8677C10.1458 14.969 10.0084 15.0259 9.86522 15.0259H6.81309C6.66988 15.0259 6.53253 14.969 6.43126 14.8677C6.32999 14.7665 6.27309 14.6291 6.27309 14.4859V12.079H3.86625C3.72303 12.079 3.58568 12.0221 3.48441 11.9208C3.38314 11.8195 3.32625 11.6822 3.32625 11.539V8.48684C3.32625 8.34362 3.38314 8.20627 3.48441 8.105C3.58568 8.00373 3.72303 7.94684 3.86625 7.94684H6.27309V5.54037C6.27309 5.39715 6.32999 5.2598 6.43126 5.15853C6.53253 5.05726 6.66988 5.00037 6.81309 5.00037L6.81272 4.99999ZM13.7708 4.58093C12.6965 3.50657 11.3277 2.77492 9.8375 2.4785C8.34733 2.18208 6.80272 2.33421 5.399 2.91564C3.99528 3.49708 2.7955 4.48171 1.95139 5.74502C1.10727 7.00833 0.65672 8.49358 0.65672 10.0129C0.65672 11.5323 1.10727 13.0176 1.95139 14.2809C2.7955 15.5442 3.99528 16.5288 5.399 17.1103C6.80272 17.6917 8.34733 17.8438 9.8375 17.5474C11.3277 17.251 12.6965 16.5193 13.7708 15.445C15.2115 14.0043 16.0209 12.0504 16.021 10.013C16.021 7.97564 15.2118 6.02167 13.7712 4.58093H13.7708Z" fill="white"/>
</svg>
