<svg width="40" height="40" viewBox="0 0 40 40" fill="none" xmlns="http://www.w3.org/2000/svg">
<path d="M38.8 14.9657C38.6796 14.9946 38.5756 15.07 38.5106 15.1754C38.4456 15.2808 38.4249 15.4076 38.4531 15.5282C38.7948 16.9784 38.9678 18.4633 38.9688 19.9532C38.9627 24.9946 36.9574 29.8278 33.3926 33.3926C29.8277 36.9574 24.9945 38.9628 19.9531 38.9688C15.8125 38.9833 11.783 37.6299 8.49064 35.1188C8.9327 34.4597 9.10932 33.6579 8.98512 32.874C8.86092 32.0901 8.44507 31.3822 7.8209 30.892C7.19674 30.4018 6.41038 30.1656 5.61942 30.2307C4.82845 30.2959 4.09133 30.6575 3.55576 31.2432C3.0202 31.8289 2.72577 32.5954 2.73147 33.389C2.73717 34.1826 3.04259 34.9448 3.58652 35.5227C4.13045 36.1006 4.8727 36.4516 5.66452 36.5054C6.45633 36.5592 7.23922 36.3117 7.85627 35.8126C11.3228 38.4813 15.5784 39.9214 19.9531 39.9063C22.967 39.9031 25.941 39.2179 28.6524 37.9021C31.3638 36.5863 33.7423 34.674 35.6098 32.3084C37.4772 29.9428 38.7851 27.1854 39.4356 24.2426C40.086 21.2998 40.0621 18.2479 39.3656 15.3157C39.3517 15.2555 39.3259 15.1986 39.2899 15.1484C39.2539 15.0981 39.2082 15.0555 39.1557 15.023C39.1031 14.9905 39.0446 14.9687 38.9836 14.9588C38.9225 14.949 38.8601 14.9513 38.8 14.9657ZM0.937519 19.9532C0.937724 16.5707 1.84008 13.2496 3.55156 10.3321C5.26303 7.41455 7.72169 5.00633 10.674 3.35567C13.6264 1.70501 16.9655 0.871654 20.3473 0.941533C23.729 1.01141 27.0309 1.98199 29.9125 3.7532C29.6151 4.38953 29.5675 5.11436 29.7791 5.78413C29.9908 6.45389 30.4463 7.01975 31.0554 7.36961C31.6644 7.71947 32.3827 7.82783 33.0679 7.67322C33.7531 7.51861 34.3552 7.11231 34.755 6.53479C35.1548 5.95727 35.3232 5.25066 35.2267 4.5549C35.1303 3.85914 34.776 3.22499 34.2341 2.77804C33.6923 2.33109 33.0023 2.10395 32.3009 2.1416C31.5995 2.17925 30.9378 2.47894 30.4469 2.98132C27.4243 1.11279 23.9575 0.0853151 20.4049 0.00508739C16.8523 -0.0751404 13.3427 0.794789 10.2388 2.52497C7.13491 4.25515 4.54937 6.78282 2.74938 9.84673C0.949378 12.9107 0.000228579 16.3997 1.88157e-05 19.9532C-0.00166166 21.1712 0.109227 22.3868 0.331269 23.5844C0.350328 23.6924 0.406853 23.7901 0.490887 23.8604C0.574921 23.9307 0.681073 23.9691 0.790644 23.9688C0.819027 23.9688 0.847322 23.9657 0.875019 23.9595C0.997212 23.9374 1.10566 23.8677 1.17655 23.7658C1.24744 23.6638 1.27499 23.5379 1.25314 23.4157C1.04249 22.2736 0.936843 21.1146 0.937519 19.9532Z" fill="white"/>
<path d="M17.1406 16.8563V17.1376H22.7656V16.8563C22.7219 13.0563 17.1844 13.0563 17.1406 16.8563Z" fill="white"/>
<path d="M33.0626 10.2125C27.7876 10.2656 22.7126 7.00627 20.772 5.60002C20.5337 5.42787 20.2472 5.33521 19.9532 5.33521C19.6593 5.33521 19.3728 5.42787 19.1345 5.60002C17.1938 7.00627 12.1063 10.2531 6.84385 10.2125C6.65695 10.2107 6.47154 10.2458 6.29828 10.3159C6.12502 10.386 5.96733 10.4897 5.8343 10.6209C5.70128 10.7522 5.59553 10.9085 5.52315 11.0809C5.45078 11.2532 5.41321 11.4381 5.4126 11.625C5.41572 18.8406 6.85947 29.1625 19.3188 35.4688C19.5153 35.5689 19.7327 35.6211 19.9532 35.6211C20.1737 35.6211 20.3911 35.5689 20.5876 35.4688C33.047 29.1625 34.4907 18.8406 34.4938 11.625C34.491 11.248 34.3387 10.8875 34.0704 10.6227C33.8021 10.3579 33.4396 10.2104 33.0626 10.2125ZM25.1095 24.4813C25.1095 25.1029 24.8625 25.699 24.423 26.1385C23.9835 26.5781 23.3873 26.825 22.7657 26.825H17.1407C16.5191 26.825 15.923 26.5781 15.4834 26.1385C15.0439 25.699 14.797 25.1029 14.797 24.4813V19.4813C14.7972 19.0254 14.9304 18.5796 15.1801 18.1982C15.4299 17.8169 15.7854 17.5167 16.2032 17.3344V16.85C16.2595 11.8344 23.647 11.8344 23.7032 16.85V17.3344C24.121 17.5167 24.4765 17.8169 24.7263 18.1982C24.9761 18.5796 25.1092 19.0254 25.1095 19.4813V24.4813Z" fill="white"/>
<path d="M20.7205 21.4432C20.7136 21.4013 20.7155 21.3583 20.7263 21.3172C20.7371 21.276 20.7564 21.2376 20.783 21.2045C20.8877 21.0531 20.949 20.876 20.9602 20.6923C20.9714 20.5086 20.9322 20.3253 20.8467 20.1623C20.7613 19.9993 20.6329 19.8628 20.4754 19.7675C20.3179 19.6723 20.1374 19.6219 19.9533 19.6219C19.7693 19.6219 19.5888 19.6723 19.4313 19.7675C19.2738 19.8628 19.1454 19.9993 19.0599 20.1623C18.9745 20.3253 18.9352 20.5086 18.9465 20.6923C18.9577 20.876 19.019 21.0531 19.1236 21.2045C19.1501 21.2373 19.1694 21.2753 19.1802 21.3161C19.1909 21.3568 19.193 21.3994 19.1861 21.441C19.1127 21.807 18.9049 22.8532 18.7583 23.5795C18.7405 23.67 18.743 23.7634 18.7656 23.853C18.7881 23.9425 18.8303 24.0259 18.8889 24.0972C18.9476 24.1685 19.0213 24.2259 19.1048 24.2653C19.1883 24.3047 19.2795 24.3251 19.3718 24.3251H20.5343C20.6268 24.3251 20.7181 24.3046 20.8017 24.2651C20.8853 24.2256 20.9591 24.168 21.0178 24.0964C21.0764 24.0249 21.1185 23.9413 21.1409 23.8516C21.1633 23.7619 21.1655 23.6683 21.1474 23.5776L20.7205 21.4432Z" fill="white"/>
</svg>
