<svg width="44" height="43" viewBox="0 0 44 43" fill="none" xmlns="http://www.w3.org/2000/svg">
<path d="M25.9648 22.2812L36.6562 22.2453V36.6562H32.8354C32.7392 36.4516 32.61 36.2641 32.453 36.1014L24.3728 28.0269L20.1624 31.5237C19.9619 31.7247 19.7237 31.8843 19.4614 31.9931C19.1991 32.102 18.9179 32.158 18.634 32.158C18.35 32.158 18.0688 32.102 17.8065 31.9931C17.5443 31.8843 17.306 31.7247 17.1055 31.5237C16.7005 31.1181 16.4729 30.5684 16.4729 29.9952C16.4729 29.4221 16.7005 28.8723 17.1055 28.4668L20.1264 25.8937L23.2048 23.2976C23.977 22.6453 24.9541 22.2855 25.9648 22.2812ZM38.0938 20.125V38.8125H43.125V20.125H38.0938ZM0 38.8125H5.03125V20.125H0V38.8125ZM31.4309 37.0444C29.785 35.1469 24.3225 29.9431 24.3225 29.9431L21.1816 32.5522C20.6871 33.0286 20.0664 33.3534 19.3931 33.4881C18.7197 33.6228 18.0219 33.5617 17.3822 33.3122C16.7425 33.0626 16.1876 32.635 15.7833 32.08C15.3791 31.525 15.1422 30.8657 15.1009 30.1803C15.0938 30.0366 15.0938 29.8856 15.1009 29.7419C15.1418 28.8646 15.5173 28.0363 16.1503 27.4275C16.9647 26.6771 19.5141 24.5453 19.5141 24.5453L18.515 23.5462C17.25 22.2812 15.8125 22.2812 14.375 22.2812H6.46875V36.6562H7.1875C7.72777 36.7467 8.22851 36.997 8.625 37.375L12.5997 41.7378C12.795 41.9428 13.0287 42.1073 13.2877 42.2218C13.5466 42.3364 13.8255 42.3988 14.1085 42.4055C14.3916 42.4122 14.6732 42.363 14.9372 42.2608C15.2012 42.1585 15.4425 42.0052 15.6472 41.8097C15.9667 41.5081 16.1936 41.1216 16.3013 40.6956L14.5403 38.5466C14.4236 38.3994 14.3694 38.2123 14.3895 38.0256C14.4096 37.8388 14.5024 37.6675 14.6477 37.5486C14.7931 37.4297 14.9794 37.3727 15.1664 37.39C15.3534 37.4072 15.5261 37.4974 15.6472 37.6409L18.7522 41.4359C18.9189 41.4791 19.0903 41.5008 19.2625 41.5006C19.8171 41.5026 20.3507 41.2886 20.7503 40.9041C20.9265 40.7363 21.0724 40.5393 21.1816 40.3219L19.5931 38.5753C19.5299 38.5055 19.481 38.4238 19.4493 38.3351C19.4176 38.2464 19.4037 38.1523 19.4084 38.0582C19.4131 37.9641 19.4362 37.8718 19.4766 37.7866C19.5169 37.7015 19.5736 37.6251 19.6434 37.5619C19.7133 37.4986 19.7949 37.4498 19.8836 37.4181C19.9724 37.3864 20.0665 37.3725 20.1606 37.3771C20.2547 37.3818 20.3469 37.405 20.4321 37.4453C20.5173 37.4856 20.5936 37.5423 20.6569 37.6122L22.0009 39.0928L22.0369 39.1359L22.8059 39.9338C23.0012 40.1387 23.235 40.3032 23.4939 40.4178C23.7528 40.5323 24.0317 40.5948 24.3148 40.6014C24.5978 40.6081 24.8794 40.5589 25.1434 40.4567C25.4074 40.3545 25.6487 40.2012 25.8534 40.0056C26.0128 39.8578 26.1506 39.6885 26.2631 39.5025L24.6459 37.8853C24.5106 37.75 24.4346 37.5664 24.4346 37.375C24.4346 37.1836 24.5106 37 24.6459 36.8647C24.7813 36.7293 24.9648 36.6533 25.1562 36.6533C25.3477 36.6533 25.5312 36.7293 25.6666 36.8647L27.6359 38.8341C27.7222 38.8987 27.8156 38.9706 27.9091 39.0353C28.3475 39.4127 28.8927 39.6439 29.4688 39.6966C30.0236 39.6999 30.5577 39.4857 30.9566 39.1C31.2103 38.8943 31.4047 38.6248 31.5196 38.3191C31.6346 38.0134 31.666 37.6825 31.6106 37.3606C31.5682 37.2462 31.5075 37.1394 31.4309 37.0444ZM13.8719 10.1861C14.0136 10.186 14.1521 10.144 14.2701 10.0654L20.4463 5.94766L24.4253 7.27375C24.5441 7.31383 24.6714 7.32197 24.7944 7.29737C24.9174 7.27278 25.0318 7.2163 25.1261 7.13359L30.1875 2.70466V4.3125C30.1875 4.50312 30.2632 4.68594 30.398 4.82073C30.5328 4.95552 30.7156 5.03125 30.9062 5.03125C31.0969 5.03125 31.2797 4.95552 31.4145 4.82073C31.5493 4.68594 31.625 4.50312 31.625 4.3125V0.71875C31.625 0.528126 31.5493 0.345309 31.4145 0.210517C31.2797 0.0757252 31.0969 0 30.9062 0H27.3125C27.1219 0 26.9391 0.0757252 26.8043 0.210517C26.6695 0.345309 26.5938 0.528126 26.5938 0.71875C26.5938 0.909374 26.6695 1.09219 26.8043 1.22698C26.9391 1.36177 27.1219 1.4375 27.3125 1.4375H29.4529L24.4892 5.78019L20.5677 4.4735C20.4641 4.43882 20.3538 4.42831 20.2454 4.44276C20.1371 4.45721 20.0334 4.49624 19.9424 4.55688L13.4737 8.86938C13.3453 8.95496 13.2479 9.07957 13.1959 9.22479C13.1438 9.37001 13.1398 9.52812 13.1846 9.67577C13.2293 9.82341 13.3203 9.95274 13.4442 10.0447C13.5681 10.1366 13.7183 10.1862 13.8726 10.1861H13.8719ZM12.9375 15.0938H8.625V19.4062H12.9375V15.0938ZM20.125 19.4062V12.9375H15.8125V19.4062H20.125ZM23 19.4062H27.3125V10.0625H23V19.4062ZM30.1875 19.4062H34.5V7.1875H30.1875V19.4062Z" fill="#166AAF"/>
</svg>
