<svg width="43" height="43" viewBox="0 0 43 43" fill="none" xmlns="http://www.w3.org/2000/svg">
<path d="M5.83592 10.7155C5.83592 10.556 5.8993 10.403 6.01211 10.2902C6.12493 10.1774 6.27794 10.114 6.43748 10.114H8.14772C8.30727 10.114 8.46028 10.1774 8.57309 10.2902C8.68591 10.403 8.74929 10.556 8.74929 10.7155C8.74929 10.8751 8.68591 11.0281 8.57309 11.1409C8.46028 11.2537 8.30727 11.3171 8.14772 11.3171H6.43748C6.27794 11.3171 6.12493 11.2537 6.01211 11.1409C5.8993 11.0281 5.83592 10.8751 5.83592 10.7155ZM32.2957 16.4647L33.7768 17.3198C33.9145 17.3979 34.0775 17.4184 34.2302 17.3767C34.3829 17.3351 34.513 17.2346 34.5919 17.0973C34.6707 16.9601 34.6921 16.7972 34.6512 16.6442C34.6103 16.4913 34.5106 16.3607 34.3737 16.2811L32.8927 15.426C32.755 15.3479 32.592 15.3274 32.4392 15.3691C32.2865 15.4107 32.1565 15.5112 32.0776 15.6484C31.9987 15.7857 31.9774 15.9486 32.0182 16.1016C32.0591 16.2545 32.1589 16.3851 32.2957 16.4647ZM7.76951 5.14998L9.25056 6.00505C9.38823 6.08323 9.55126 6.10371 9.70399 6.06203C9.85673 6.02036 9.98675 5.91991 10.0656 5.78264C10.1445 5.64538 10.1659 5.48246 10.125 5.32951C10.0841 5.17656 9.98433 5.04602 9.84748 4.96641L8.36644 4.11134C8.22876 4.03316 8.06574 4.01268 7.913 4.05436C7.76027 4.09603 7.63024 4.19648 7.55136 4.33375C7.47247 4.47101 7.45113 4.63393 7.49201 4.78688C7.53289 4.93983 7.63266 5.07037 7.76951 5.14998ZM9.25056 15.4261L7.76951 16.2812C7.63266 16.3608 7.53289 16.4913 7.49201 16.6443C7.45113 16.7972 7.47247 16.9602 7.55136 17.0974C7.63024 17.2347 7.76027 17.3351 7.913 17.3768C8.06574 17.4185 8.22876 17.398 8.36644 17.3198L9.84748 16.4648C9.98433 16.3852 10.0841 16.2546 10.125 16.1017C10.1659 15.9487 10.1445 15.7858 10.0656 15.6485C9.98675 15.5113 9.85673 15.4108 9.70399 15.3691C9.55126 15.3275 9.38823 15.348 9.25056 15.4261ZM32.8927 6.00505L34.3737 5.14998C34.5106 5.07037 34.6103 4.93983 34.6512 4.78688C34.6921 4.63393 34.6707 4.47101 34.5919 4.33375C34.513 4.19648 34.3829 4.09603 34.2302 4.05436C34.0775 4.01268 33.9145 4.03316 33.7768 4.11134L32.2957 4.96641C32.1589 5.04602 32.0591 5.17656 32.0182 5.32951C31.9774 5.48246 31.9987 5.64538 32.0776 5.78264C32.1565 5.91991 32.2865 6.02036 32.4392 6.06203C32.592 6.10371 32.755 6.08323 32.8927 6.00505ZM33.394 10.7155C33.394 10.8751 33.4574 11.0281 33.5702 11.1409C33.683 11.2537 33.836 11.3171 33.9956 11.3171H35.7058C35.8654 11.3171 36.0184 11.2537 36.1312 11.1409C36.244 11.0281 36.3074 10.8751 36.3074 10.7155C36.3074 10.556 36.244 10.403 36.1312 10.2902C36.0184 10.1774 35.8654 10.114 35.7058 10.114H33.9956C33.836 10.114 33.683 10.1774 33.5702 10.2902C33.4574 10.403 33.394 10.556 33.394 10.7155ZM26.7994 20.2657C26.5054 20.2698 26.2027 20.2447 25.8914 20.192C25.2856 20.0893 24.7319 20.3188 24.3761 20.8197C23.9186 21.4638 23.3764 21.9488 22.7354 22.2488L24.575 27.3776L26.3929 25.1842L29.2492 25.4379L26.7995 20.2657H26.7994ZM17.7673 20.8197C17.4114 20.3187 16.8576 20.0894 16.2517 20.192C15.938 20.2452 15.6329 20.2702 15.3367 20.2656L12.8941 25.4228L15.7504 25.1691L17.5683 27.3626L19.4033 22.2467C18.7644 21.9465 18.2236 21.4624 17.7672 20.8198L17.7673 20.8197ZM21.0717 21.3983C20.0419 21.3983 19.3293 20.9412 18.7482 20.123C18.1232 19.243 17.115 18.8255 16.0509 19.0058C15.0613 19.1733 14.2344 18.993 13.5062 18.2646C12.7781 17.5367 12.5973 16.7093 12.7651 15.72C12.9454 14.6559 12.5278 13.6477 11.6478 13.0227C10.8296 12.4415 10.3725 11.729 10.3725 10.6992C10.3725 9.66943 10.8296 8.95692 11.6478 8.37573C12.5278 7.7507 12.9454 6.74257 12.7651 5.67841C12.5976 4.68884 12.778 3.86194 13.5063 3.13371C14.2343 2.40565 15.0617 2.22484 16.051 2.39259C17.1151 2.57288 18.1233 2.15531 18.7483 1.27531C19.3294 0.457102 20.042 0 21.0718 0C22.1016 0 22.8141 0.457102 23.3953 1.27531C24.0203 2.15531 25.0284 2.57288 26.0926 2.3925C27.0822 2.22501 27.9091 2.40539 28.6373 3.13371C29.3653 3.86169 29.5462 4.68901 29.3784 5.67832C29.1981 6.74248 29.6157 7.75062 30.4957 8.37564C31.3139 8.95675 31.771 9.66934 31.771 10.6991C31.771 11.7289 31.3139 12.4414 30.4957 13.0226C29.6157 13.6476 29.1981 14.6558 29.3785 15.7199C29.546 16.7095 29.3656 17.5364 28.6373 18.2646C27.9092 18.9927 27.0819 19.1735 26.0926 19.0058C25.0284 18.8255 24.0203 19.243 23.3953 20.123C22.8141 20.9412 22.1016 21.3983 21.0718 21.3983H21.0717ZM21.0717 17.4357C24.782 17.4357 27.8083 14.4095 27.8083 10.6991C27.8083 6.98878 24.782 3.96258 21.0717 3.96258C17.3613 3.96258 14.3351 6.98878 14.3351 10.6991C14.3351 14.4095 17.3613 17.4357 21.0717 17.4357ZM25.0613 9.11565L22.4831 8.79158L21.3781 6.43973C21.321 6.31812 21.206 6.24508 21.0716 6.24508C20.9372 6.24508 20.8223 6.31812 20.7651 6.43973L19.6602 8.79158L17.082 9.11565C16.9487 9.13241 16.8437 9.2192 16.8021 9.34699C16.7606 9.47478 16.7946 9.60669 16.8926 9.69865L18.7879 11.4763L18.2994 14.0284C18.2742 14.1604 18.3243 14.2871 18.433 14.3661C18.5417 14.4451 18.6776 14.4536 18.7954 14.3888L21.0717 13.1355L23.348 14.3888C23.4657 14.4536 23.6017 14.4451 23.7104 14.3661C23.8191 14.2871 23.8692 14.1604 23.844 14.0284L23.3555 11.4763L25.2507 9.69865C25.3488 9.60678 25.3827 9.47478 25.3412 9.34699C25.2996 9.2192 25.1946 9.13241 25.0613 9.11565ZM35.7376 36.4207L28.1777 38.4465C27.5535 38.6138 27.1796 39.2613 27.3469 39.8856L27.9574 42.1642L37.7873 39.5303L37.1767 37.2517C37.0095 36.6275 36.3619 36.2535 35.7376 36.4208V36.4207ZM41.6261 10.3482C40.9474 8.72884 39.1214 9.25925 39.1213 11.1316C39.1213 14.4121 39.7262 19.9451 37.9455 23.2635C37.0229 24.9558 35.4807 26.6766 34.6075 27.2331C34.2309 27.4734 33.8631 27.3373 33.6933 27.071C33.5234 26.8048 33.6225 26.4069 33.8888 26.2371C34.6445 25.7555 36.0046 24.2195 36.8411 22.685C37.1614 22.0975 37.4013 21.5251 37.4858 21.0464C37.737 19.6225 35.852 18.9964 35.0888 20.4418C30.2869 28.759 23.6258 25.5389 27.8416 37.2804L27.8635 37.2742L35.4234 35.2485C35.4539 35.2403 35.4844 35.233 35.5148 35.2261C35.677 33.2951 36.6348 31.6032 37.7837 29.8624C38.6676 28.5232 39.8235 26.9834 40.6668 25.4452C41.8451 23.2961 42.02 21.663 42.1087 19.2295C42.2097 16.4592 42.1003 11.4796 41.6261 10.3482ZM7.05443 20.4419C6.29122 18.9965 4.40618 19.6226 4.65746 21.0465C4.74194 21.5253 4.9817 22.0976 5.30208 22.6851C6.13859 24.2196 7.49872 25.7555 8.25446 26.2371C8.52069 26.407 8.61978 26.8048 8.44988 27.0711C8.28007 27.3374 7.91234 27.4734 7.53568 27.2332C6.66247 26.6767 5.12032 24.9559 4.19769 23.2636C2.41698 19.9451 3.0219 14.4122 3.0219 11.1317C3.0219 9.25942 1.1959 8.72901 0.517076 10.3482C0.0428725 11.4797 -0.0666119 16.4593 0.0345365 19.2296C0.123224 21.663 0.298107 23.2962 1.4764 25.4453C2.3197 26.9834 3.47573 28.5233 4.35951 29.8625C5.50841 31.6033 6.46619 33.2953 6.62844 35.2262C6.65886 35.2331 6.68928 35.2404 6.71979 35.2486L14.2797 37.2743C14.2871 37.2762 14.2943 37.2784 14.3016 37.2805C18.5175 25.539 11.8564 28.759 7.05443 20.4419ZM13.9655 38.4465L6.4056 36.4208C5.78135 36.2535 5.13372 36.6275 4.96649 37.2517L4.3559 39.5303L14.1858 42.1642L14.7964 39.8856C14.9636 39.2614 14.5897 38.6138 13.9655 38.4465V38.4465Z" fill="#166AAF"/>
</svg>
