<svg width="32" height="34" viewBox="0 0 32 34" fill="none" xmlns="http://www.w3.org/2000/svg">
<path d="M11.7958 29.4609H0.622336C1.32926 26.9991 3.6026 25.2591 6.20578 25.2577L6.20916 25.2577L6.21246 25.2577C8.81557 25.2591 11.0889 26.9991 11.7958 29.4609ZM6.20923 18.4514C4.51659 18.4514 3.13959 19.8285 3.13959 21.521C3.13959 23.2136 4.51477 24.5888 6.20592 24.5906L6.20923 24.5905L6.2126 24.5906C7.90369 24.5888 9.27893 23.2125 9.27893 21.521C9.27893 19.8295 7.90193 18.4514 6.20937 18.4514H6.20923ZM30.931 30.2767H0.829266C0.372023 30.2767 0 30.6487 0 31.1059V32.929C0 32.9929 0.054 33.0468 0.117844 33.0468H31.6424C31.7062 33.0468 31.7602 32.9929 31.7602 32.929V31.1059C31.7602 30.6487 31.3882 30.2767 30.931 30.2767ZM3.00459 5.2972C4.33146 5.2972 5.41097 4.21777 5.41097 2.8909C5.41097 1.56403 4.33146 0.484594 3.00459 0.484594C1.67773 0.484594 0.598289 1.5641 0.598289 2.8909C0.598289 4.2177 1.6778 5.2972 3.00459 5.2972ZM0.424055 17.8456H5.5852C5.69761 17.8455 5.80538 17.8008 5.88486 17.7213C5.96435 17.6418 6.00906 17.534 6.00919 17.4216V11.855L4.85023 12.4559C4.61728 12.5767 4.35621 12.6381 4.09275 12.6381C3.91676 12.6381 3.73971 12.6107 3.56941 12.5553C3.14698 12.4179 2.80793 12.1295 2.61478 11.7431C2.44139 11.3965 2.39013 11.0029 2.47015 10.6348C2.47962 10.5893 2.498 10.5462 2.52423 10.5079C2.55046 10.4696 2.58402 10.4368 2.62296 10.4116C2.66191 10.3863 2.70548 10.369 2.75115 10.3607C2.79682 10.3523 2.84369 10.3531 2.88906 10.363C2.93443 10.3728 2.97739 10.3916 3.01546 10.4182C3.05354 10.4447 3.08598 10.4786 3.11091 10.5177C3.13583 10.5569 3.15276 10.6006 3.1607 10.6464C3.16864 10.6921 3.16744 10.739 3.15717 10.7843C3.11041 10.9992 3.1403 11.222 3.24359 11.4287C3.35194 11.6453 3.54488 11.808 3.78682 11.8867C4.03439 11.9672 4.30404 11.9471 4.52665 11.8317L6.15902 10.9854L10.2865 8.84545C10.8641 8.54606 10.9047 7.99186 10.6888 7.57547C10.4677 7.14916 9.98613 6.85301 9.40887 7.15247L6.04406 8.89699L5.95455 8.43546C5.68083 7.02443 4.4403 6.00033 3.00473 6.00033C1.34803 6.00033 0.000210956 7.34815 0.000210956 9.00492V17.4216C0.000341219 17.534 0.0450527 17.6418 0.124537 17.7213C0.204021 17.8008 0.311788 17.8455 0.424195 17.8456H0.424055ZM15.8801 23.3824H15.8839C17.5756 23.3804 18.9513 22.0036 18.9513 20.3114C18.9513 18.6192 17.5736 17.2402 15.8801 17.2402C14.1867 17.2402 12.8091 18.6179 12.8091 20.3114C12.8091 22.0049 14.1846 23.3803 15.8764 23.3824H15.8801H15.8801ZM25.5484 24.5879L25.5518 24.5879C27.2437 24.5861 28.6196 23.2092 28.6196 21.5168C28.6196 19.8245 27.2419 18.4456 25.5485 18.4456C23.855 18.4456 22.4773 19.8233 22.4773 21.5168C22.4773 23.2103 23.8532 24.586 25.5451 24.5879L25.5484 24.5879ZM31.7602 2.35336V11.5199C31.7602 12.8175 30.7045 13.8732 29.4068 13.8732H11.6485C10.3508 13.8732 9.29503 12.8175 9.29503 11.5199V10.1515L10.6101 9.46969C11.4216 9.04894 11.6324 8.27135 11.4496 7.60219L15.1284 3.30089C15.1584 3.2658 15.1812 3.22515 15.1955 3.18125C15.2098 3.13735 15.2153 3.09106 15.2117 3.04503C15.2081 2.999 15.1955 2.95413 15.1745 2.91298C15.1536 2.87182 15.1248 2.8352 15.0897 2.80519C15.0546 2.77518 15.014 2.75237 14.9701 2.73808C14.9262 2.72378 14.8799 2.71827 14.8338 2.72186C14.7878 2.72545 14.7429 2.73807 14.7018 2.75901C14.6606 2.77994 14.624 2.80877 14.594 2.84386L11.0997 6.92951C10.6923 6.43605 10.0242 6.15994 9.29496 6.43486V2.35336C9.29496 1.05567 10.3507 0 11.6484 0H29.4067C30.7043 0 31.7601 1.05574 31.7601 2.35336H31.7602ZM16.7108 2.32545C16.7108 2.41869 16.7479 2.50811 16.8138 2.57404C16.8797 2.63997 16.9691 2.67701 17.0624 2.67701H22.1865C22.2797 2.67701 22.3691 2.63997 22.4351 2.57404C22.501 2.50811 22.538 2.41869 22.538 2.32545C22.538 2.23221 22.501 2.14278 22.4351 2.07685C22.3691 2.01092 22.2797 1.97388 22.1865 1.97388H17.0624C16.9691 1.97388 16.8797 2.01092 16.8138 2.07685C16.7479 2.14278 16.7108 2.23221 16.7108 2.32545ZM16.4005 5.39958C16.4005 5.49282 16.4376 5.58224 16.5035 5.64817C16.5694 5.7141 16.6589 5.75114 16.7521 5.75114H26.9094C27.0026 5.75114 27.092 5.7141 27.158 5.64817C27.2239 5.58224 27.2609 5.49282 27.2609 5.39958C27.2609 5.30634 27.2239 5.21692 27.158 5.15099C27.092 5.08506 27.0026 5.04802 26.9094 5.04802H16.7521C16.6589 5.04802 16.5694 5.08506 16.5035 5.15099C16.4376 5.21692 16.4005 5.30634 16.4005 5.39958ZM26.9094 8.12208H24.8548C24.7616 8.12208 24.6722 8.15912 24.6062 8.22505C24.5403 8.29098 24.5033 8.3804 24.5033 8.47364C24.5033 8.56688 24.5403 8.6563 24.6062 8.72223C24.6722 8.78816 24.7616 8.8252 24.8548 8.8252H26.9094C27.0026 8.8252 27.092 8.78816 27.158 8.72223C27.2239 8.6563 27.2609 8.56688 27.2609 8.47364C27.2609 8.3804 27.2239 8.29098 27.158 8.22505C27.092 8.15912 27.0026 8.12208 26.9094 8.12208ZM15.6334 8.47371C15.6334 8.56695 15.6705 8.65637 15.7364 8.7223C15.8023 8.78823 15.8917 8.82527 15.985 8.82527H22.503C22.5962 8.82527 22.6856 8.78823 22.7515 8.7223C22.8175 8.65637 22.8545 8.56695 22.8545 8.47371C22.8545 8.38047 22.8175 8.29105 22.7515 8.22512C22.6856 8.15919 22.5962 8.12215 22.503 8.12215H15.985C15.8917 8.12215 15.8023 8.15919 15.7364 8.22512C15.6705 8.29105 15.6334 8.38047 15.6334 8.47371ZM16.9656 11.5478C16.9656 11.4545 16.9286 11.3651 16.8627 11.2992C16.7967 11.2333 16.7073 11.1962 16.6141 11.1962H14.4456C14.3523 11.1962 14.2629 11.2333 14.197 11.2992C14.131 11.3651 14.094 11.4545 14.094 11.5478C14.094 11.641 14.131 11.7304 14.197 11.7964C14.2629 11.8623 14.3523 11.8993 14.4456 11.8993H16.6141C16.7073 11.8993 16.7967 11.8623 16.8627 11.7964C16.9286 11.7304 16.9656 11.641 16.9656 11.5478ZM27.3234 11.5478C27.3234 11.4546 27.2863 11.3652 27.2204 11.2993C27.1545 11.2333 27.065 11.1963 26.9718 11.1963H19.0965C19.0033 11.1963 18.9139 11.2333 18.8479 11.2993C18.782 11.3652 18.745 11.4546 18.745 11.5478C18.745 11.6411 18.782 11.7305 18.8479 11.7964C18.9139 11.8624 19.0033 11.8994 19.0965 11.8994H26.9718C27.065 11.8994 27.1545 11.8624 27.2204 11.7964C27.2863 11.7305 27.3234 11.6411 27.3234 11.5478ZM27.3234 2.32537C27.3234 2.23213 27.2863 2.14271 27.2204 2.07678C27.1545 2.01085 27.065 1.97381 26.9718 1.97381H24.7407C24.6475 1.97381 24.5581 2.01085 24.4921 2.07678C24.4262 2.14271 24.3892 2.23213 24.3892 2.32537C24.3892 2.41862 24.4262 2.50804 24.4921 2.57397C24.5581 2.6399 24.6475 2.67694 24.7407 2.67694H26.9718C27.065 2.67694 27.1545 2.6399 27.2204 2.57397C27.2863 2.50804 27.3234 2.41862 27.3234 2.32537ZM19.9588 29.4609H31.138C30.431 26.9975 28.1565 25.2565 25.5518 25.2549L25.5485 25.255L25.5451 25.2549C22.9403 25.2564 20.6657 26.9975 19.9588 29.4609H19.9588ZM11.0767 26.5866C11.8121 27.3827 12.3575 28.3626 12.6316 29.4609H19.1232C19.3977 28.3609 19.9441 27.3795 20.6809 26.5826C19.5948 24.992 17.8243 24.0508 15.8841 24.0495L15.8803 24.0496L15.8764 24.0495C13.9343 24.0507 12.1625 24.9936 11.0768 26.5867L11.0767 26.5866Z" fill="#166AAF"/>
</svg>
