<svg width="45" height="45" viewBox="0 0 45 45" fill="none" xmlns="http://www.w3.org/2000/svg">
<path fill-rule="evenodd" clip-rule="evenodd" d="M22.1465 0C22.7952 0 23.3258 0.530617 23.3258 1.1792H29.7175L28.3751 3.57129L29.7174 5.96338H23.3257V7.91137H20.9672V1.1792C20.9673 0.530707 21.4979 0 22.1465 0ZM34.7471 24.7318V44.2211H43.5742C43.9701 44.2211 44.293 43.8982 44.293 43.5023V25.4506C44.293 25.0547 43.9701 24.7318 43.5742 24.7318H34.7471ZM38.1543 29.1559H40.8856C40.976 29.1562 41.0627 29.1922 41.1267 29.2561C41.1906 29.3201 41.2267 29.4068 41.227 29.4972V32.2285C41.2267 32.319 41.1907 32.4057 41.1267 32.4697C41.0627 32.5337 40.976 32.5697 40.8856 32.57H38.1543C37.9665 32.57 37.8129 32.4163 37.8129 32.2285V29.4972C37.8132 29.4068 37.8492 29.3201 37.9132 29.2562C37.9772 29.1922 38.0639 29.1562 38.1543 29.1559ZM38.1543 36.3827H40.8856C41.0734 36.3827 41.227 36.5364 41.227 36.7242V39.4554C41.2267 39.5459 41.1906 39.6326 41.1267 39.6965C41.0627 39.7605 40.976 39.7965 40.8856 39.7967H38.1543C38.0638 39.7965 37.9772 39.7605 37.9132 39.6965C37.8492 39.6326 37.8132 39.5459 37.8129 39.4554V36.7242C37.8132 36.6337 37.8492 36.547 37.9132 36.483C37.9772 36.4191 38.0638 36.383 38.1543 36.3827ZM9.5459 44.2211V24.7318H0.71875C0.322898 24.7318 0 25.0547 0 25.4506V43.5023C0 43.8982 0.322898 44.2211 0.71875 44.2211H9.5459ZM3.40732 29.1559H6.13857C6.22903 29.1562 6.31572 29.1922 6.37969 29.2561C6.44366 29.3201 6.47972 29.4068 6.47998 29.4972V32.2285C6.47998 32.4163 6.32635 32.57 6.13857 32.57H3.40732C3.31684 32.5697 3.23014 32.5337 3.16617 32.4697C3.1022 32.4057 3.06616 32.319 3.06592 32.2285V29.4972C3.06618 29.4068 3.10223 29.3201 3.16621 29.2561C3.23018 29.1922 3.31687 29.1562 3.40732 29.1559ZM3.40732 36.3827H6.13857C6.32635 36.3827 6.47998 36.5364 6.47998 36.7242V39.4554C6.47972 39.5459 6.44366 39.6326 6.37969 39.6965C6.31572 39.7605 6.22903 39.7965 6.13857 39.7967H3.40732C3.31687 39.7965 3.23018 39.7605 3.16621 39.6965C3.10223 39.6326 3.06618 39.5459 3.06592 39.4554V36.7242C3.06616 36.6337 3.1022 36.547 3.16617 36.483C3.23014 36.419 3.31684 36.3829 3.40732 36.3827ZM10.6767 9.43871H33.6163C34.4242 9.43871 35.0852 10.0997 35.0852 10.9077C35.0852 11.7156 34.4243 12.3766 33.6163 12.3766H10.6767C9.86871 12.3766 9.20773 11.7156 9.20773 10.9077C9.20773 10.0997 9.8688 9.43871 10.6767 9.43871ZM33.2197 13.9039V44.2208H28.4468V34.4764C28.4468 34.0547 28.1048 33.7127 27.6831 33.7127H16.6099C16.4073 33.7127 16.2131 33.7932 16.0699 33.9364C15.9266 34.0796 15.8461 34.2738 15.8461 34.4764V44.2209H11.0732V13.9039H33.2197ZM26.9194 44.2209V35.24H17.3735V44.2209H26.9194ZM14.3465 17.4297C14.1587 17.4297 14.0051 17.5834 14.0051 17.7712V20.5024C14.0054 20.5929 14.0414 20.6796 14.1054 20.7435C14.1694 20.8075 14.2561 20.8435 14.3465 20.8438H17.0778C17.1682 20.8435 17.2549 20.8075 17.3189 20.7435C17.3829 20.6796 17.4189 20.5929 17.4192 20.5024V17.7712C17.4189 17.6807 17.3829 17.594 17.3189 17.53C17.255 17.466 17.1683 17.4299 17.0778 17.4297H14.3465ZM14.3465 24.6567C14.2561 24.657 14.1694 24.693 14.1054 24.7569C14.0414 24.8209 14.0054 24.9076 14.0051 24.998V27.7293C14.0051 27.9171 14.1587 28.0708 14.3465 28.0708H17.0778C17.2656 28.0708 17.4192 27.9171 17.4192 27.7293V24.998C17.4189 24.9076 17.3829 24.8209 17.3189 24.7569C17.2549 24.693 17.1682 24.657 17.0778 24.6567H14.3465ZM20.7808 17.4297C20.6903 17.43 20.6036 17.4661 20.5397 17.5301C20.4757 17.594 20.4396 17.6807 20.4394 17.7712V20.5024C20.4396 20.5929 20.4757 20.6795 20.5397 20.7435C20.6036 20.8074 20.6903 20.8435 20.7808 20.8438H23.5121C23.6026 20.8435 23.6892 20.8074 23.7532 20.7435C23.8171 20.6795 23.8532 20.5929 23.8534 20.5024V17.7712C23.8532 17.6807 23.8172 17.594 23.7532 17.53C23.6893 17.466 23.6026 17.43 23.5121 17.4297H20.7808ZM20.7808 24.6567C20.6903 24.657 20.6036 24.693 20.5397 24.757C20.4757 24.8209 20.4396 24.9076 20.4394 24.998V27.7293C20.4396 27.8198 20.4757 27.9064 20.5397 27.9704C20.6036 28.0344 20.6903 28.0705 20.7808 28.0708H23.5121C23.6026 28.0705 23.6893 28.0344 23.7532 27.9704C23.8172 27.9064 23.8532 27.8198 23.8534 27.7293V24.998C23.8532 24.9076 23.8171 24.8209 23.7532 24.757C23.6892 24.693 23.6026 24.657 23.5121 24.6567H20.7808ZM27.2152 17.4297C27.1247 17.4299 27.038 17.466 26.974 17.53C26.9101 17.594 26.874 17.6807 26.8738 17.7712V20.5024C26.8741 20.5929 26.9101 20.6796 26.9741 20.7435C27.0381 20.8075 27.1247 20.8435 27.2152 20.8438H29.9464C30.0369 20.8435 30.1236 20.8075 30.1876 20.7435C30.2515 20.6796 30.2876 20.5929 30.2879 20.5024V17.7712C30.2879 17.5834 30.1342 17.4297 29.9464 17.4297H27.2152ZM27.2152 24.6567C27.1247 24.657 27.0381 24.693 26.9741 24.7569C26.9101 24.8209 26.8741 24.9076 26.8738 24.998V27.7293C26.874 27.8198 26.9101 27.9065 26.974 27.9705C27.038 28.0345 27.1247 28.0705 27.2152 28.0708H29.9464C30.1342 28.0708 30.2879 27.9171 30.2879 27.7293V24.998C30.2876 24.9076 30.2515 24.8209 30.1876 24.7569C30.1236 24.693 30.0369 24.657 29.9464 24.6567H27.2152Z" fill="white"/>
</svg>
