<svg width="44" height="46" viewBox="0 0 44 46" fill="none" xmlns="http://www.w3.org/2000/svg">
<path d="M22.8675 22.3258V32.5927L31.7588 27.4593V17.1924L22.8675 22.3258ZM12.6284 14.8581L21.5198 19.9916L30.4112 14.8581L21.5198 9.72464L12.6284 14.8581ZM20.1721 22.3258L11.2808 17.1924V27.4593L20.1721 32.5927V22.3258Z" fill="white"/>
<path d="M39.1047 7.43813C38.1356 7.43813 37.2479 7.79094 36.5614 8.37394L21.5649 -0.284302L6.51439 8.40512C5.82313 7.80361 4.92128 7.43813 3.93516 7.43813C1.76525 7.43813 0 9.20338 0 11.3733C0 13.1025 1.1217 14.5738 2.67537 15.1004V32.4332L17.5734 41.0346C17.5259 41.2804 17.5018 41.5301 17.5017 41.7805C17.5017 43.9503 19.2669 45.7155 21.4368 45.7155C23.6066 45.7155 25.3719 43.9503 25.3719 41.7805C25.3719 41.5724 25.3553 41.3681 25.3241 41.1686L40.4544 32.4331V15.0699C41.9614 14.5179 43.0398 13.0692 43.0398 11.3733C43.0398 9.20347 41.2745 7.43813 39.1047 7.43813ZM37.7549 30.8748L24.0122 38.8091C23.3214 38.2096 22.421 37.8455 21.4367 37.8455C20.5013 37.8455 19.6415 38.1741 18.9654 38.7213L5.3749 30.8748V15.0344C6.83441 14.4584 7.87022 13.035 7.87022 11.3733C7.87022 11.1669 7.85405 10.9643 7.82332 10.7665L21.5649 2.83274L35.2249 10.7193C35.1883 10.9354 35.1698 11.1541 35.1695 11.3733C35.1695 13.0692 36.2479 14.5179 37.7549 15.0699V30.8748Z" fill="white"/>
</svg>
