<svg width="46" height="44" viewBox="0 0 46 44" fill="none" xmlns="http://www.w3.org/2000/svg">
<path d="M12.2188 8.95582C14.6997 8.95582 16.7109 6.94457 16.7109 4.46363C16.4907 -1.4887 7.94587 -1.48708 7.72656 4.46372C7.72656 6.94466 9.7378 8.95582 12.2188 8.95582ZM1.88672 43.9949H44.1133V29.1707H1.88672V43.9949ZM18.0586 32.5398H38.7227V35.2351H18.0586V32.5398ZM18.0586 37.9304H38.7227V40.6257H18.0586V37.9304ZM7.27734 35.2351H9.97266V32.5398H12.668V35.2351H15.3633V37.9304H12.668V40.6257H9.97266V37.9304H7.27734V35.2351ZM0 22.4324H46V26.4753H0V22.4324ZM20.7539 17.491C20.7539 14.3814 19.0821 11.6554 16.5905 10.1631C14.1744 12.1265 10.2629 12.1262 7.84713 10.1631C5.35541 11.6554 3.68359 14.3814 3.68359 17.491V19.7371H20.7539V17.491ZM29.0459 19.7371H36.7198L36.1208 16.1433H42.3164V3.56519H23.4492V16.1433H29.6448L29.0459 19.7371Z" fill="white"/>
</svg>
