<svg width="37" height="39" viewBox="0 0 37 39" fill="none" xmlns="http://www.w3.org/2000/svg">
<path fill-rule="evenodd" clip-rule="evenodd" d="M19.7316 15.1173C19.7742 15.1784 19.8226 15.2362 19.8766 15.2902L21.5836 16.9972C21.7673 17.1808 22.0022 17.3046 22.2575 17.3522C22.5129 17.3998 22.7766 17.3689 23.0141 17.2637L23.8754 16.8822C24.3033 17.1016 24.7482 17.286 25.2058 17.4337L25.5432 18.3102C25.6365 18.5528 25.8012 18.7614 26.0155 18.9086C26.2298 19.0557 26.4836 19.1345 26.7436 19.1345H26.7514V38.0255C26.7514 38.1747 26.6921 38.3179 26.5866 38.4234C26.481 38.5289 26.3379 38.5882 26.1886 38.5882H0.562745C0.413496 38.5882 0.270359 38.5289 0.164824 38.4234C0.0592891 38.3179 0 38.1747 0 38.0255V4.47977C0 4.33052 0.0592891 4.18739 0.164824 4.08185C0.270359 3.97632 0.413496 3.91703 0.562745 3.91703H19.581C19.5901 3.94155 19.6001 3.96591 19.6108 3.9901L19.993 4.84966C19.7736 5.27747 19.5891 5.72231 19.4413 6.17983L18.5636 6.51755C18.3365 6.60496 18.1388 6.75499 17.9936 6.95023C17.8484 7.14546 17.7615 7.37789 17.743 7.62053C17.7034 7.61303 17.6632 7.60926 17.6229 7.60928H4.81493C4.45992 7.60928 4.17179 7.89748 4.17179 8.25242C4.17179 8.60735 4.45992 8.89555 4.81493 8.89555H17.6229C17.662 8.89557 17.7009 8.89204 17.7393 8.88502V10.1326C17.7393 10.3926 17.8181 10.6464 17.9652 10.8607C18.1124 11.075 18.321 11.2397 18.5636 11.333L19.4417 11.671C19.5894 12.1278 19.7737 12.5719 19.9928 12.999L19.6228 13.831H14.1276C13.7727 13.831 13.4845 14.1192 13.4845 14.4741C13.4845 14.8291 13.7727 15.1173 14.1276 15.1173H19.7316ZM14.1276 17.4593H18.9505C19.3055 17.4593 19.5937 17.1711 19.5937 16.8162C19.5937 16.4613 19.3055 16.1731 18.9505 16.1731H14.1276C13.7727 16.1731 13.4845 16.4613 13.4845 16.8162C13.4845 17.1711 13.7727 17.4593 14.1276 17.4593ZM5.40541 29.0833C5.08038 29.0833 4.81493 29.3508 4.81493 29.6757V34.2013C4.81493 34.5263 5.08038 34.7918 5.40541 34.7918H9.931C10.2559 34.7918 10.5215 34.5263 10.5215 34.2013V29.6757C10.5215 29.3508 10.2559 29.0833 9.931 29.0833H5.40541ZM6.00915 32.2768C5.75793 32.0261 5.75753 31.6186 6.00827 31.3673C6.25901 31.1161 6.66652 31.1156 6.91774 31.3664L7.40508 31.8527L8.37083 30.6584C8.47813 30.5258 8.63366 30.4412 8.80326 30.4233C8.97286 30.4053 9.14265 30.4554 9.27533 30.5626C9.40788 30.6699 9.49242 30.8255 9.51035 30.9951C9.52829 31.1647 9.47817 31.3344 9.37099 31.4671L7.95625 33.2168C7.8996 33.2868 7.82885 33.3442 7.74859 33.3852C7.66833 33.4262 7.58035 33.4499 7.49036 33.4547C7.40036 33.4595 7.31037 33.4453 7.22621 33.413C7.14205 33.3808 7.0656 33.3312 7.00184 33.2676L6.00915 32.2768ZM5.40541 12.7919C5.08038 12.7919 4.81493 13.0574 4.81493 13.3824V17.908C4.81493 18.2329 5.08038 18.4984 5.40541 18.4984H9.931C10.2559 18.4984 10.5215 18.2329 10.5215 17.908V13.3824C10.5215 13.0574 10.2559 12.7919 9.931 12.7919H5.40541ZM6.00915 15.9835C5.75793 15.7327 5.75753 15.3252 6.00827 15.0739C6.25901 14.8227 6.66652 14.8223 6.91774 15.073L7.40508 15.5593L8.37083 14.365C8.594 14.089 8.99926 14.0461 9.27533 14.2693C9.55131 14.4925 9.59416 14.8977 9.37099 15.1738L7.95625 16.9234C7.89959 16.9934 7.82883 17.0508 7.74857 17.0918C7.66831 17.1327 7.58034 17.1564 7.49035 17.1612C7.40037 17.166 7.31038 17.1518 7.22622 17.1196C7.14206 17.0874 7.06562 17.0378 7.00184 16.9742L6.00915 15.9835ZM14.1276 31.4107H21.5363C21.8912 31.4107 22.1794 31.1225 22.1794 30.7675C22.1794 30.4125 21.8912 30.1244 21.5363 30.1244H14.1276C13.7727 30.1244 13.4845 30.4125 13.4845 30.7675C13.4845 31.1225 13.7727 31.4107 14.1276 31.4107ZM14.1276 23.263H21.5363C21.8912 23.263 22.1794 22.9748 22.1794 22.6199C22.1794 22.2648 21.8912 21.9767 21.5363 21.9767H14.1276C13.7727 21.9767 13.4845 22.2648 13.4845 22.6199C13.4845 22.9748 13.7727 23.263 14.1276 23.263ZM5.40541 20.9376C5.08038 20.9376 4.81493 21.2031 4.81493 21.5281V26.0537C4.81493 26.3786 5.08038 26.6441 5.40541 26.6441H9.931C10.2559 26.6441 10.5215 26.3786 10.5215 26.0537V21.5281C10.5215 21.2031 10.2559 20.9376 9.931 20.9376H5.40541ZM6.00867 24.1287C5.75769 23.8778 5.75769 23.4702 6.00867 23.2192C6.25965 22.9682 6.66724 22.9682 6.91823 23.2192L7.40548 23.7064L8.37083 22.5126C8.594 22.2366 8.99926 22.1938 9.27533 22.417C9.55131 22.6401 9.59416 23.0454 9.37099 23.3214L7.95625 25.071C7.89956 25.1411 7.82876 25.1985 7.74845 25.2395C7.66813 25.2805 7.5801 25.3041 7.49007 25.3089C7.40003 25.3136 7.31 25.2994 7.22582 25.2671C7.14164 25.2348 7.06519 25.1852 7.00143 25.1214L6.00867 24.1287ZM14.1276 25.605H18.9505C19.3055 25.605 19.5937 25.3169 19.5937 24.9618C19.5937 24.6069 19.3055 24.3187 18.9505 24.3187H14.1276C13.7727 24.3187 13.4845 24.6069 13.4845 24.9618C13.4845 25.3169 13.7727 25.605 14.1276 25.605ZM14.1276 33.7527H18.9505C19.3055 33.7527 19.5937 33.4645 19.5937 33.1096C19.5937 32.7546 19.3055 32.4665 18.9505 32.4665H14.1276C13.7727 32.4665 13.4845 32.7546 13.4845 33.1096C13.4845 33.4645 13.7727 33.7527 14.1276 33.7527ZM29.7273 1.48082C30.515 1.66802 31.2678 1.97996 31.957 2.40485L33.4063 1.76051L35.1133 3.46747L34.4714 4.91678C34.8967 5.60666 35.2087 6.36029 35.3954 7.14895L36.8738 7.71797V10.1326L35.3954 10.7016C35.2081 11.4895 34.8945 12.2408 34.4714 12.9314L35.1133 14.3806L33.4063 16.0877L31.957 15.4457C31.268 15.8711 30.5152 16.183 29.7273 16.3697L29.1582 17.8482H26.7436L26.1746 16.3697C25.3843 16.1825 24.633 15.8688 23.9424 15.4457L22.4932 16.0877L20.7861 14.3806L21.4305 12.9314C21.0049 12.2432 20.6937 11.4895 20.504 10.7016L19.0256 10.1326V7.71797L20.504 7.14895C20.6927 6.36051 21.0054 5.60706 21.4305 4.91678L20.7861 3.46747L22.4932 1.76051L23.9424 2.40485C24.6316 1.97996 25.3844 1.66802 26.1721 1.48082L26.7436 0H29.1582L29.7273 1.48082ZM27.9497 4.71251C25.6227 4.71251 23.7381 6.59698 23.7381 8.92409C23.7381 11.2511 25.6227 13.1381 27.9497 13.1381C30.2768 13.1381 32.1637 11.2511 32.1637 8.92409C32.1637 6.59698 30.2768 4.71251 27.9497 4.71251Z" fill="white"/>
</svg>
