<svg width="36" height="37" viewBox="0 0 36 37" fill="none" xmlns="http://www.w3.org/2000/svg">
<path d="M14.1052 31.5C15.283 31.5 16.4493 31.2624 17.5374 30.8006C18.6255 30.3389 19.6142 29.6622 20.4471 28.809C21.2799 27.9559 21.9405 26.9431 22.3912 25.8284C22.842 24.7137 23.0739 23.519 23.0739 22.3125C23.0739 21.106 22.842 19.9113 22.3912 18.7966C21.9405 17.6819 21.2799 16.6691 20.4471 15.816C19.6142 14.9628 18.6255 14.2861 17.5374 13.8244C16.4493 13.3626 15.283 13.125 14.1052 13.125C11.7265 13.125 9.4453 14.093 7.76334 15.816C6.08137 17.5389 5.13645 19.8758 5.13645 22.3125C5.13645 24.7492 6.08137 27.0861 7.76334 28.809C9.4453 30.532 11.7265 31.5 14.1052 31.5ZM6.68164 21.672C8.71626 19.5457 11.3518 18.375 14.1052 18.375C16.8586 18.375 19.4954 19.5457 21.5288 21.672C21.6125 21.7552 21.679 21.8548 21.7244 21.9648C21.7699 22.0748 21.7933 22.193 21.7933 22.3125C21.7933 22.432 21.7699 22.5502 21.7244 22.6602C21.679 22.7702 21.6125 22.8698 21.5288 22.953C19.4954 25.0793 16.8586 26.25 14.1052 26.25C11.3518 26.25 8.71626 25.0793 6.68164 22.953C6.59795 22.8698 6.53141 22.7702 6.48598 22.6602C6.44054 22.5502 6.41713 22.432 6.41713 22.3125C6.41713 22.193 6.44054 22.0748 6.48598 21.9648C6.53141 21.8548 6.59795 21.7552 6.68164 21.672ZM5.55414 28.0875L0.613638 33.1472C0.420134 33.3427 0.266295 33.5754 0.160981 33.8321C0.0556677 34.0887 0.000961116 34.3642 1.25508e-05 34.6426C-0.000936014 34.9209 0.0518922 35.1968 0.155454 35.4542C0.259016 35.7116 0.411265 35.9454 0.603433 36.1423C0.795601 36.3391 1.02389 36.4951 1.27515 36.6012C1.52641 36.7073 1.79568 36.7614 2.06744 36.7604C2.33921 36.7594 2.6081 36.7034 2.85863 36.5955C3.10916 36.4876 3.33638 36.33 3.5272 36.1318L8.4677 31.0721C7.31066 30.2878 6.31975 29.2728 5.55414 28.0875Z" fill="white"/>
<path d="M14.1052 24.9375C15.5205 24.9375 16.6677 23.7622 16.6677 22.3125C16.6677 20.8628 15.5205 19.6875 14.1052 19.6875C12.69 19.6875 11.5427 20.8628 11.5427 22.3125C11.5427 23.7622 12.69 24.9375 14.1052 24.9375Z" fill="white"/>
<path d="M32.0427 0H14.1052C11.986 0 10.2615 1.76662 10.2615 3.9375V7.875H35.8865V3.9375C35.8865 1.76662 34.1619 0 32.0427 0ZM24.3552 4.59375C24.3552 4.7678 24.2877 4.93472 24.1676 5.05779C24.0475 5.18086 23.8845 5.25 23.7146 5.25C23.5447 5.25 23.3817 5.18086 23.2616 5.05779C23.1415 4.93472 23.074 4.7678 23.074 4.59375V3.28125C23.074 3.1072 23.1415 2.94028 23.2616 2.81721C23.3817 2.69414 23.5447 2.625 23.7146 2.625C23.8845 2.625 24.0475 2.69414 24.1676 2.81721C24.2877 2.94028 24.3552 3.1072 24.3552 3.28125V4.59375ZM26.9177 4.59375C26.9177 4.7678 26.8502 4.93472 26.7301 5.05779C26.6099 5.18086 26.447 5.25 26.2771 5.25C26.1072 5.25 25.9442 5.18086 25.8241 5.05779C25.704 4.93472 25.6365 4.7678 25.6365 4.59375V3.28125C25.6365 3.1072 25.704 2.94028 25.8241 2.81721C25.9442 2.69414 26.1072 2.625 26.2771 2.625C26.447 2.625 26.6099 2.69414 26.7301 2.81721C26.8502 2.94028 26.9177 3.1072 26.9177 3.28125V4.59375ZM29.4802 4.59375C29.4802 4.7678 29.4127 4.93472 29.2926 5.05779C29.1724 5.18086 29.0095 5.25 28.8396 5.25C28.6697 5.25 28.5068 5.18086 28.3866 5.05779C28.2665 4.93472 28.199 4.7678 28.199 4.59375V3.28125C28.199 3.1072 28.2665 2.94028 28.3866 2.81721C28.5068 2.69414 28.6697 2.625 28.8396 2.625C29.0095 2.625 29.1724 2.69414 29.2926 2.81721C29.4127 2.94028 29.4802 3.1072 29.4802 3.28125V4.59375ZM32.0427 4.59375C32.0427 4.7678 31.9752 4.93472 31.8551 5.05779C31.7349 5.18086 31.572 5.25 31.4021 5.25C31.2322 5.25 31.0693 5.18086 30.9491 5.05779C30.829 4.93472 30.7615 4.7678 30.7615 4.59375V3.28125C30.7615 3.1072 30.829 2.94028 30.9491 2.81721C31.0693 2.69414 31.2322 2.625 31.4021 2.625C31.572 2.625 31.7349 2.69414 31.8551 2.81721C31.9752 2.94028 32.0427 3.1072 32.0427 3.28125V4.59375ZM14.1052 32.8125C12.8071 32.8115 11.5211 32.5562 10.3166 32.0604C10.4465 32.9958 10.901 33.8519 11.5967 34.472C12.2925 35.0922 13.183 35.4349 14.1052 35.4375H32.0427C34.1619 35.4375 35.8865 33.6709 35.8865 31.5V27.5625H22.9689C21.1931 30.6954 17.8888 32.8125 14.1052 32.8125ZM30.7615 30.8438C30.7615 30.6697 30.829 30.5028 30.9491 30.3797C31.0693 30.2566 31.2322 30.1875 31.4021 30.1875C31.572 30.1875 31.7349 30.2566 31.8551 30.3797C31.9752 30.5028 32.0427 30.6697 32.0427 30.8438V32.1562C32.0427 32.3303 31.9752 32.4972 31.8551 32.6203C31.7349 32.7434 31.572 32.8125 31.4021 32.8125C31.2322 32.8125 31.0693 32.7434 30.9491 32.6203C30.829 32.4972 30.7615 32.3303 30.7615 32.1562V30.8438ZM28.199 30.8438C28.199 30.6697 28.2665 30.5028 28.3866 30.3797C28.5068 30.2566 28.6697 30.1875 28.8396 30.1875C29.0095 30.1875 29.1724 30.2566 29.2926 30.3797C29.4127 30.5028 29.4802 30.6697 29.4802 30.8438V32.1562C29.4802 32.3303 29.4127 32.4972 29.2926 32.6203C29.1724 32.7434 29.0095 32.8125 28.8396 32.8125C28.6697 32.8125 28.5068 32.7434 28.3866 32.6203C28.2665 32.4972 28.199 32.3303 28.199 32.1562V30.8438ZM25.6365 30.8438C25.6365 30.6697 25.704 30.5028 25.8241 30.3797C25.9442 30.2566 26.1072 30.1875 26.2771 30.1875C26.447 30.1875 26.6099 30.2566 26.7301 30.3797C26.8502 30.5028 26.9177 30.6697 26.9177 30.8438V32.1562C26.9177 32.3303 26.8502 32.4972 26.7301 32.6203C26.6099 32.7434 26.447 32.8125 26.2771 32.8125C26.1072 32.8125 25.9442 32.7434 25.8241 32.6203C25.704 32.4972 25.6365 32.3303 25.6365 32.1562V30.8438ZM23.074 30.8438C23.074 30.6697 23.1415 30.5028 23.2616 30.3797C23.3817 30.2566 23.5447 30.1875 23.7146 30.1875C23.8845 30.1875 24.0475 30.2566 24.1676 30.3797C24.2877 30.5028 24.3552 30.6697 24.3552 30.8438V32.1562C24.3552 32.3303 24.2877 32.4972 24.1676 32.6203C24.0475 32.7434 23.8845 32.8125 23.7146 32.8125C23.5447 32.8125 23.3817 32.7434 23.2616 32.6203C23.1415 32.4972 23.074 32.3303 23.074 32.1562V30.8438ZM24.3117 21.4358C24.3373 21.5053 24.3552 21.5775 24.3552 21.6562V22.9688C24.3552 23.0475 24.336 23.1197 24.3117 23.1892C24.2273 24.2405 23.9875 25.2725 23.6006 26.25H35.8865V18.375H23.6006C23.9811 19.3331 24.2245 20.3621 24.3117 21.4358ZM30.7615 21.6562C30.7615 21.4822 30.829 21.3153 30.9491 21.1922C31.0693 21.0691 31.2322 21 31.4021 21C31.572 21 31.7349 21.0691 31.8551 21.1922C31.9752 21.3153 32.0427 21.4822 32.0427 21.6562V22.9688C32.0427 23.1428 31.9752 23.3097 31.8551 23.4328C31.7349 23.5559 31.572 23.625 31.4021 23.625C31.2322 23.625 31.0693 23.5559 30.9491 23.4328C30.829 23.3097 30.7615 23.1428 30.7615 22.9688V21.6562ZM28.199 21.6562C28.199 21.4822 28.2665 21.3153 28.3866 21.1922C28.5068 21.0691 28.6697 21 28.8396 21C29.0095 21 29.1724 21.0691 29.2926 21.1922C29.4127 21.3153 29.4802 21.4822 29.4802 21.6562V22.9688C29.4802 23.1428 29.4127 23.3097 29.2926 23.4328C29.1724 23.5559 29.0095 23.625 28.8396 23.625C28.6697 23.625 28.5068 23.5559 28.3866 23.4328C28.2665 23.3097 28.199 23.1428 28.199 22.9688V21.6562ZM25.6365 21.6562C25.6365 21.4822 25.704 21.3153 25.8241 21.1922C25.9442 21.0691 26.1072 21 26.2771 21C26.447 21 26.6099 21.0691 26.7301 21.1922C26.8502 21.3153 26.9177 21.4822 26.9177 21.6562V22.9688C26.9177 23.1428 26.8502 23.3097 26.7301 23.4328C26.6099 23.5559 26.447 23.625 26.2771 23.625C26.1072 23.625 25.9442 23.5559 25.8241 23.4328C25.704 23.3097 25.6365 23.1428 25.6365 22.9688V21.6562ZM10.2615 12.5856C11.4818 12.0756 12.7872 11.813 14.1052 11.8125C17.8888 11.8125 21.1931 13.9296 22.9689 17.0625H35.8865V9.1875H10.2615V12.5856ZM30.7615 12.4688C30.7615 12.2947 30.829 12.1278 30.9491 12.0047C31.0693 11.8816 31.2322 11.8125 31.4021 11.8125C31.572 11.8125 31.7349 11.8816 31.8551 12.0047C31.9752 12.1278 32.0427 12.2947 32.0427 12.4688V13.7812C32.0427 13.9553 31.9752 14.1222 31.8551 14.2453C31.7349 14.3684 31.572 14.4375 31.4021 14.4375C31.2322 14.4375 31.0693 14.3684 30.9491 14.2453C30.829 14.1222 30.7615 13.9553 30.7615 13.7812V12.4688ZM28.199 12.4688C28.199 12.2947 28.2665 12.1278 28.3866 12.0047C28.5068 11.8816 28.6697 11.8125 28.8396 11.8125C29.0095 11.8125 29.1724 11.8816 29.2926 12.0047C29.4127 12.1278 29.4802 12.2947 29.4802 12.4688V13.7812C29.4802 13.9553 29.4127 14.1222 29.2926 14.2453C29.1724 14.3684 29.0095 14.4375 28.8396 14.4375C28.6697 14.4375 28.5068 14.3684 28.3866 14.2453C28.2665 14.1222 28.199 13.9553 28.199 13.7812V12.4688ZM25.6365 12.4688C25.6365 12.2947 25.704 12.1278 25.8241 12.0047C25.9442 11.8816 26.1072 11.8125 26.2771 11.8125C26.447 11.8125 26.6099 11.8816 26.7301 12.0047C26.8502 12.1278 26.9177 12.2947 26.9177 12.4688V13.7812C26.9177 13.9553 26.8502 14.1222 26.7301 14.2453C26.6099 14.3684 26.447 14.4375 26.2771 14.4375C26.1072 14.4375 25.9442 14.3684 25.8241 14.2453C25.704 14.1222 25.6365 13.9553 25.6365 13.7812V12.4688ZM23.074 12.4688C23.074 12.2947 23.1415 12.1278 23.2616 12.0047C23.3817 11.8816 23.5447 11.8125 23.7146 11.8125C23.8845 11.8125 24.0475 11.8816 24.1676 12.0047C24.2877 12.1278 24.3552 12.2947 24.3552 12.4688V13.7812C24.3552 13.9553 24.2877 14.1222 24.1676 14.2453C24.0475 14.3684 23.8845 14.4375 23.7146 14.4375C23.5447 14.4375 23.3817 14.3684 23.2616 14.2453C23.1415 14.1222 23.074 13.9553 23.074 13.7812V12.4688Z" fill="white"/>
</svg>
