<svg width="38" height="38" viewBox="0 0 38 38" fill="none" xmlns="http://www.w3.org/2000/svg">
<path d="M9.66587 10.262L6.3737 10.5163C5.45763 10.5872 4.64175 11.0673 4.13514 11.8336L0.338358 17.576C-0.0458698 18.1571 -0.106951 18.8844 0.174855 19.5215C0.456736 20.1586 1.03601 20.6025 1.72438 20.7092L4.73875 21.176C5.4439 17.4339 7.13192 13.7011 9.66587 10.262ZM16.8237 33.261L17.2906 36.2753C17.3973 36.9637 17.8412 37.543 18.4782 37.8248C18.7379 37.9401 19.0188 37.9997 19.303 37.9999C19.7017 37.9996 20.0916 37.8818 20.4238 37.6613L26.1664 33.8646C26.9327 33.3579 27.4128 32.5419 27.4834 31.626L27.7378 28.3338C24.2987 30.8679 20.5659 32.5559 16.8237 33.261ZM15.69 31.1716C15.7947 31.1716 15.8999 31.163 16.0049 31.1455C17.5727 30.8834 19.0838 30.4418 20.5253 29.8638L8.13602 17.4745C7.558 18.9159 7.11641 20.427 6.85427 21.9949C6.75096 22.6129 6.95825 23.2425 7.40126 23.6855L14.3142 30.5985C14.6821 30.9663 15.1785 31.1716 15.69 31.1716ZM34.9697 16.8478C38.0015 10.9864 38.1138 4.79249 37.9553 1.88759C37.9011 0.892255 37.1075 0.0987142 36.1121 0.0444607C35.5575 0.0145449 35.0022 -0.000279495 34.4467 3.98949e-06C31.1985 3.98949e-06 26.0588 0.491996 21.152 3.03004C17.2524 5.04706 12.139 9.48835 9.12215 15.325C9.15778 15.3528 9.19258 15.3824 9.22539 15.4152L22.5847 28.7745C22.6175 28.8073 22.6469 28.842 22.6748 28.8776C28.5114 25.8607 32.9527 20.7473 34.9697 16.8478ZM22.0944 8.03338C24.2646 5.86317 27.796 5.86294 29.9663 8.03338C31.0177 9.08468 31.5967 10.4826 31.5967 11.9694C31.5967 13.4562 31.0177 14.8541 29.9663 15.9054C28.8813 16.9904 27.4556 17.533 26.0304 17.5332C24.6047 17.5332 23.1797 16.9907 22.0944 15.9054C21.043 14.8541 20.464 13.4562 20.464 11.9694C20.464 10.4826 21.043 9.08468 22.0944 8.03338Z" fill="white"/>
<path d="M23.669 14.3309C24.9711 15.6331 27.0901 15.6331 28.3922 14.3309C29.023 13.7001 29.3704 12.8614 29.3704 11.9693C29.3704 11.0772 29.023 10.2385 28.3922 9.60774C27.7412 8.95662 26.8859 8.6311 26.0306 8.6311C25.1754 8.6311 24.3201 8.95662 23.669 9.60774C23.0383 10.2385 22.6908 11.0772 22.6908 11.9693C22.6908 12.8614 23.0382 13.7001 23.669 14.3309ZM1.13589 31.3154C1.42082 31.3154 1.70574 31.2068 1.92305 30.9893L5.55774 27.3546C5.99251 26.9199 5.99251 26.215 5.55774 25.7803C5.12304 25.3455 4.41812 25.3455 3.98335 25.7803L0.348661 29.4149C-0.0861087 29.8497 -0.0861087 30.5546 0.348661 30.9893C0.451926 31.0929 0.574634 31.175 0.709733 31.2309C0.844833 31.2869 0.989661 31.3156 1.13589 31.3154ZM8.88872 29.1112C8.45403 28.6765 7.7491 28.6765 7.31433 29.1112L0.326322 36.0992C-0.108448 36.534 -0.108448 37.2389 0.326322 37.6736C0.543707 37.891 0.82863 37.9997 1.11355 37.9997C1.39848 37.9997 1.6834 37.891 1.90071 37.6736L8.88865 30.6856C9.32349 30.2509 9.32349 29.546 8.88872 29.1112ZM10.6452 32.4422L7.01063 36.0769C6.57586 36.5117 6.57586 37.2165 7.01063 37.6513C7.22802 37.8687 7.51294 37.9774 7.79779 37.9774C8.08264 37.9774 8.36764 37.8688 8.58495 37.6513L12.2196 34.0166C12.6544 33.5818 12.6544 32.877 12.2196 32.4422C11.7849 32.0075 11.08 32.0075 10.6452 32.4422Z" fill="white"/>
</svg>
