<svg width="43" height="35" viewBox="0 0 43 35" fill="none" xmlns="http://www.w3.org/2000/svg">
<path d="M31.9677 24.156C31.6352 21.897 30.5041 19.832 28.7794 18.3356C27.0548 16.8392 24.8509 16.0106 22.5677 16H20.4397C18.1564 16.0106 15.9525 16.8392 14.2279 18.3356C12.5033 19.832 11.3721 21.897 11.0397 24.156L10.0197 31.288C9.98707 31.5185 10.0086 31.7535 10.0825 31.9743C10.1565 32.1951 10.2808 32.3956 10.4457 32.56C10.8457 32.96 13.2997 35 21.5057 35C29.7117 35 32.1597 32.968 32.5657 32.56C32.7305 32.3956 32.8548 32.1951 32.9288 31.9743C33.0027 31.7535 33.0242 31.5185 32.9917 31.288L31.9677 24.156ZM12.6217 17.1C10.6887 18.8819 9.43106 21.2771 9.06166 23.88L8.32166 29C2.38166 28.96 0.581659 26.8 0.281659 26.36C0.165695 26.2002 0.0829408 26.0187 0.0382844 25.8263C-0.0063721 25.634 -0.0120253 25.4346 0.0216587 25.24L0.461659 22.76C0.690904 21.4639 1.2293 20.2422 2.0312 19.1985C2.83311 18.1547 3.87487 17.3197 5.06815 16.7643C6.26144 16.2089 7.57106 15.9494 8.88599 16.0078C10.2009 16.0663 11.4823 16.4409 12.6217 17.1ZM42.9817 25.24C43.0153 25.4346 43.0097 25.634 42.965 25.8263C42.9204 26.0187 42.8376 26.2002 42.7217 26.36C42.4217 26.8 40.6217 28.96 34.6817 29L33.9417 23.88C33.5723 21.2771 32.3146 18.8819 30.3817 17.1C31.521 16.4409 32.8024 16.0663 34.1173 16.0078C35.4323 15.9494 36.7419 16.2089 37.9352 16.7643C39.1285 17.3197 40.1702 18.1547 40.9721 19.1985C41.774 20.2422 42.3124 21.4639 42.5417 22.76L42.9817 25.24ZM12.9617 12.7C12.4582 13.414 11.7899 13.9959 11.0134 14.3963C10.2369 14.7968 9.37529 15.0038 8.50166 15C7.63017 15 6.77116 14.7929 5.99542 14.3958C5.21967 13.9987 4.54939 13.4229 4.03983 12.7159C3.53026 12.0089 3.19599 11.191 3.06456 10.3294C2.93313 9.46793 3.00831 8.58751 3.2839 7.76075C3.55949 6.93399 4.0276 6.18455 4.64965 5.57419C5.2717 4.96383 6.02989 4.51003 6.86174 4.25018C7.69358 3.99033 8.57527 3.93187 9.43414 4.07963C10.293 4.22738 11.1045 4.57711 11.8017 5.1C11.6011 5.8842 11.5003 6.69057 11.5017 7.5C11.5032 9.3343 12.0082 11.133 12.9617 12.7ZM40.0017 9.5C40.0022 10.2224 39.8603 10.9379 39.5841 11.6054C39.3079 12.2729 38.9027 12.8794 38.3919 13.3903C37.8811 13.9011 37.2746 14.3062 36.607 14.5824C35.9395 14.8586 35.2241 15.0005 34.5017 15C33.628 15.0038 32.7664 14.7968 31.9899 14.3963C31.2134 13.9959 30.5451 13.414 30.0417 12.7C30.9951 11.133 31.5001 9.3343 31.5017 7.5C31.503 6.69057 31.4022 5.8842 31.2017 5.1C32.0188 4.48715 32.9904 4.11396 34.0077 4.02223C35.025 3.9305 36.0478 4.12386 36.9613 4.58065C37.8749 5.03744 38.6433 5.73961 39.1802 6.60848C39.7172 7.47735 40.0017 8.47859 40.0017 9.5Z" fill="white"/>
<path d="M21.5015 15C25.6436 15 29.0015 11.6421 29.0015 7.5C29.0015 3.35786 25.6436 0 21.5015 0C17.3593 0 14.0015 3.35786 14.0015 7.5C14.0015 11.6421 17.3593 15 21.5015 15Z" fill="white"/>
</svg>
