<svg width="39" height="40" viewBox="0 0 39 40" fill="none" xmlns="http://www.w3.org/2000/svg">
<path d="M7.27765 28.7137C3.24867 28.7137 0 32.0457 0 36.178C0 36.717 0.0636993 37.2233 0.151286 37.7378C2.16578 38.8158 4.61024 39.4528 7.26969 39.4528C9.92914 39.4528 12.3816 38.8158 14.3881 37.7378C14.4836 37.2315 14.5394 36.7252 14.5394 36.178C14.5871 32.0784 11.2987 28.7137 7.27765 28.7137Z" fill="white"/>
<path d="M7.27783 26.9905C9.39743 26.9905 11.1157 25.2282 11.1157 23.0542C11.1157 20.8803 9.39743 19.1179 7.27783 19.1179C5.15822 19.1179 3.43994 20.8803 3.43994 23.0542C3.43994 25.2282 5.15822 26.9905 7.27783 26.9905Z" fill="white"/>
<path d="M31.7381 28.7137C27.7091 28.7137 24.4604 32.0457 24.4604 36.178C24.4604 36.717 24.5241 37.2233 24.6117 37.7378C26.6262 38.8158 29.0707 39.4528 31.7301 39.4528C34.3896 39.4528 36.842 38.8158 38.8485 37.7378C38.9441 37.2315 38.9998 36.7252 38.9998 36.178C39.0157 32.0784 35.7671 28.7137 31.7381 28.7137Z" fill="white"/>
<path d="M31.7383 26.9905C33.8579 26.9905 35.5762 25.2282 35.5762 23.0542C35.5762 20.8803 33.8579 19.1179 31.7383 19.1179C29.6187 19.1179 27.9004 20.8803 27.9004 23.0542C27.9004 25.2282 29.6187 26.9905 31.7383 26.9905Z" fill="white"/>
<path d="M19.5078 20.3593C22.1672 20.3593 24.6197 19.7223 26.6262 18.6443C26.7217 18.138 26.7775 17.6317 26.7775 17.0845C26.7775 12.9522 23.5288 9.62024 19.4998 9.62024C15.4708 9.62024 12.2222 12.9522 12.2222 17.0845C12.2222 17.6235 12.2859 18.1298 12.3735 18.6443C14.3959 19.7223 16.8483 20.3593 19.5078 20.3593Z" fill="white"/>
<path d="M19.5078 7.87259C21.6274 7.87259 23.3457 6.11025 23.3457 3.93629C23.3457 1.76234 21.6274 0 19.5078 0C17.3882 0 15.6699 1.76234 15.6699 3.93629C15.6699 6.11025 17.3882 7.87259 19.5078 7.87259Z" fill="white"/>
<path d="M20.5592 26.7129V22.1641C20.5592 21.7149 20.2009 21.3311 19.755 21.3392C19.333 21.3556 19.0065 21.6986 19.0065 22.1314V26.7047L15.4473 30.3225C15.1448 30.6328 15.1368 31.131 15.4314 31.4495C15.7419 31.7761 16.2675 31.768 16.578 31.4413L19.747 28.191L22.9638 31.4576C23.2744 31.768 23.7681 31.768 24.0786 31.4576C24.3891 31.1391 24.3891 30.6246 24.0786 30.3143L20.5592 26.7129Z" fill="white"/>
</svg>
