<svg width="42" height="36" viewBox="0 0 42 36" fill="none" xmlns="http://www.w3.org/2000/svg">
<path d="M33.2824 17.4311L33.8926 16.8208C34.1837 16.5301 34.2818 16.107 34.1488 15.7167C34.0167 15.3293 33.681 15.056 33.2729 15.0038L30.6514 14.6677V8.49327C30.6514 8.37807 30.6211 8.2649 30.5635 8.16514C30.5059 8.06538 30.423 7.98254 30.3233 7.92496L21.2461 2.68431C21.1463 2.62671 21.0332 2.59639 20.918 2.59639C20.8028 2.59639 20.6896 2.62671 20.5898 2.68431L11.5127 7.92496C11.4129 7.98254 11.3301 8.06538 11.2725 8.16514C11.2149 8.2649 11.1845 8.37807 11.1846 8.49327V18.9746C11.1845 19.0898 11.2149 19.203 11.2725 19.3028C11.3301 19.4025 11.4129 19.4854 11.5127 19.543L20.5898 24.7837C20.6913 24.8423 20.8047 24.8716 20.918 24.8716C21.0313 24.8716 21.1446 24.8423 21.2461 24.7837L27.8682 20.9604C27.9971 21.1788 28.2003 21.3437 28.4406 21.4249C28.8307 21.5578 29.2537 21.4599 29.5443 21.1691L30.155 20.5585L32.9389 23.3423C33.0499 23.4538 33.1818 23.5422 33.3272 23.6023C33.4725 23.6625 33.6283 23.6932 33.7856 23.6927C34.1057 23.6927 34.4064 23.5682 34.6324 23.3424L36.0662 21.9086C36.5329 21.4417 36.533 20.682 36.0662 20.215L33.2822 17.4311L33.2824 17.4311ZM17.387 11.6954L20.2617 10.0356V13.3463L17.387 14.9311V11.6953V11.6954ZM21.5742 13.3487V10.0356L24.4489 11.6954V14.9532L21.5742 13.3487ZM20.2617 23.0788L12.4971 18.5957V9.62998L16.0745 11.6954V16.1515C16.0745 16.2667 16.1048 16.3799 16.1624 16.4797C16.22 16.5794 16.3029 16.6623 16.4026 16.7199L20.2617 18.9478V23.0788ZM27.3924 14.6687C27.2765 14.7839 27.1887 14.9244 27.1359 15.0791C27.0831 15.2338 27.0668 15.3987 27.0882 15.5608L27.6055 19.5966L21.5743 23.0788V18.9477L25.4334 16.7198C25.5332 16.6622 25.616 16.5794 25.6736 16.4796C25.7312 16.3798 25.7615 16.2667 25.7615 16.1515V11.6954L29.339 9.62989V14.4994L28.2846 14.3642C28.1225 14.3428 27.9576 14.3591 27.8029 14.4119C27.6481 14.4647 27.5077 14.5526 27.3924 14.6686V14.6687ZM39.0642 0H2.77175C1.24343 0 0 1.24343 0 2.77184V28.2385C0 29.7668 1.24343 31.0103 2.77175 31.0103H12.1403L10.1323 34.4562C9.95228 34.7649 9.9499 35.1322 10.126 35.4388C10.3026 35.7463 10.6312 35.9373 10.9832 35.9373H30.8528C31.2048 35.9373 31.5332 35.7463 31.7098 35.439C31.886 35.1326 31.8837 34.7652 31.7038 34.4563L29.6958 31.0103H39.0643C40.5926 31.0103 41.836 29.7668 41.836 28.2385V2.77184C41.836 1.24351 40.5926 0 39.0643 0H39.0642ZM30.2829 34.6247H11.553L13.6594 31.0103H28.1767L30.2829 34.6247ZM40.5234 26.1555H1.3125V2.77184C1.3125 1.96719 1.96711 1.3125 2.77175 1.3125H39.0642C39.8688 1.3125 40.5234 1.96711 40.5234 2.77184V26.1555Z" fill="white"/>
</svg>
