<svg width="37" height="42" viewBox="0 0 37 42" fill="none" xmlns="http://www.w3.org/2000/svg">
<path d="M8.7803 38.2001L9.52186 39.3627L5.62521 41.8478L0 33.0281L3.89493 30.5431L8.76816 38.1809C8.76906 38.1826 8.76988 38.1852 8.77078 38.1871C8.77423 38.1913 8.77677 38.1957 8.7803 38.2001ZM31.4151 29.2669L25.0657 33.3365C24.9007 34.1148 24.4412 34.8022 23.8001 35.211C23.3808 35.4782 22.9021 35.6137 22.4007 35.6137C22.088 35.6137 21.7657 35.5612 21.4434 35.4547L16.8698 33.9427C16.5449 33.8352 16.3684 33.4841 16.4759 33.1583C16.5015 33.081 16.542 33.0095 16.5952 32.9478C16.6485 32.8862 16.7133 32.8356 16.7861 32.7991C16.8588 32.7625 16.938 32.7406 17.0193 32.7346C17.1005 32.7287 17.1821 32.7388 17.2594 32.7644L21.8329 34.2764C22.3247 34.4389 22.7615 34.4013 23.1336 34.1646C23.5336 33.9095 23.8202 33.4282 23.8804 32.9102C23.883 32.8858 23.8873 32.8631 23.8935 32.8403C23.9145 32.1555 23.4725 31.5144 22.8173 31.2977L12.7783 27.9767C11.8009 27.6535 10.8618 27.7601 9.98566 28.2947L5.62521 30.9475L9.49823 37.0182L11.6514 35.7088C11.7282 35.6623 11.8143 35.6329 11.9035 35.6228C11.9928 35.6127 12.0832 35.6221 12.1685 35.6503L20.4344 38.3826C21.5446 38.7513 22.6522 38.6115 23.6366 37.9799L33.1088 31.9092C33.8364 31.4428 34.0495 30.4688 33.584 29.7386C33.1167 29.0119 32.1435 28.7996 31.4151 29.2669ZM37.0063 18.9431C37.0063 19.7755 36.684 20.5556 36.0987 21.1399L31.2656 25.9756L26.4326 21.1399C25.222 19.9293 25.222 17.9577 26.4326 16.7445C27.0161 16.161 27.797 15.8395 28.6294 15.8395C29.4627 15.8395 30.2436 16.161 30.8271 16.7453C30.9434 16.8615 31.1012 16.9268 31.2656 16.9268C31.43 16.9268 31.5878 16.8615 31.7041 16.7453C32.9165 15.5347 34.8889 15.5347 36.0995 16.7453C36.684 17.3298 37.0063 18.1106 37.0063 18.9431ZM33.8154 20.2978C33.8154 19.9545 33.5377 19.6768 33.1953 19.6768H31.8859V18.3683C31.8859 18.0259 31.6081 17.7481 31.2657 17.7481C30.9233 17.7481 30.6456 18.0259 30.6456 18.3683V19.6768H29.3397C29.2581 19.6767 29.1773 19.6928 29.102 19.7239C29.0266 19.7551 28.9581 19.8009 28.9004 19.8586C28.8428 19.9162 28.797 19.9847 28.7658 20.0601C28.7346 20.1355 28.7186 20.2163 28.7186 20.2978C28.7186 20.6402 28.9964 20.918 29.3397 20.918H30.6456V22.2239C30.6456 22.5663 30.9233 22.844 31.2657 22.844C31.6081 22.844 31.8859 22.5663 31.8859 22.2239V20.918H33.1953C33.2767 20.918 33.3573 20.902 33.4326 20.8708C33.5078 20.8396 33.5762 20.7939 33.6338 20.7364C33.6914 20.6788 33.737 20.6104 33.7682 20.5352C33.7994 20.4599 33.8154 20.3793 33.8154 20.2978ZM13.1678 26.7993L23.2069 30.1194C23.6242 30.2568 24.0034 30.4901 24.3141 30.8006C24.6248 31.1112 24.8583 31.4903 24.9958 31.9075L30.6456 28.286V27.1102L25.5549 22.0169C23.8612 20.3232 23.8612 17.5647 25.5549 15.8684V15.8675C25.6068 15.816 25.6598 15.7656 25.7138 15.7164C24.9277 15.4395 24.0953 15.2945 23.2585 15.2945H17.5319C13.4588 15.2945 10.1448 18.6077 10.1448 22.6808V26.8412C11.1099 26.4769 12.1397 26.4586 13.1678 26.7993ZM20.3951 14.0533C24.29 14.0533 27.4582 10.8852 27.4582 6.99024C27.4582 3.09712 24.29 -0.0701904 20.3951 -0.0701904C16.502 -0.0701904 13.3347 3.09712 13.3347 6.99024C13.3347 10.8852 16.502 14.0533 20.3951 14.0533Z" fill="white"/>
</svg>
