<svg width="39" height="36" viewBox="0 0 39 36" fill="none" xmlns="http://www.w3.org/2000/svg">
<path d="M37.5 32.7243H34.977V15.0187C34.977 14.1973 34.287 13.5227 33.432 13.5227H28.077V1.496C28.077 0.674667 27.387 0 26.547 0H12.462C11.622 0 10.932 0.674667 10.932 1.496V13.5227H5.562C4.707 13.5227 4.017 14.1973 4.017 15.0187V32.7243H1.5C1.10218 32.7243 0.720644 32.8788 0.43934 33.1538C0.158035 33.4289 0 33.802 0 34.1909C0 34.5799 0.158035 34.953 0.43934 35.228C0.720644 35.5031 1.10218 35.6576 1.5 35.6576H37.5C37.8978 35.6576 38.2794 35.5031 38.5607 35.228C38.842 34.953 39 34.5799 39 34.1909C39 33.802 38.842 33.4289 38.5607 33.1538C38.2794 32.8788 37.8978 32.7243 37.5 32.7243ZM25.212 19.1987C25.212 18.8613 25.497 18.5827 25.842 18.5827H28.152C28.497 18.5827 28.782 18.8613 28.782 19.1987V21.4573C28.782 21.7947 28.497 22.0733 28.152 22.0733H25.842C25.497 22.0733 25.212 21.7947 25.212 21.4573V19.1987ZM13.782 28.7907C13.782 29.128 13.497 29.4067 13.152 29.4067H10.842C10.497 29.4067 10.212 29.128 10.212 28.7907V26.532C10.212 26.1947 10.497 25.916 10.842 25.916H13.152C13.497 25.916 13.782 26.1947 13.782 26.532V28.7907ZM13.872 21.516C13.872 21.868 13.572 22.1613 13.212 22.1613H10.782C10.422 22.1613 10.122 21.868 10.122 21.516V19.14C10.122 18.788 10.422 18.4947 10.782 18.4947H13.212C13.572 18.4947 13.872 18.788 13.872 19.14V21.516ZM21.297 28.8053C21.297 29.1427 21.012 29.4213 20.667 29.4213H18.327C17.982 29.4213 17.697 29.1427 17.697 28.8053V26.5173C17.697 26.18 17.982 25.9013 18.327 25.9013H20.667C21.012 25.9013 21.297 26.18 21.297 26.5173V28.8053ZM21.297 21.472C21.297 21.8093 21.012 22.088 20.667 22.088H18.327C17.982 22.088 17.697 21.8093 17.697 21.472V19.184C17.697 18.8467 17.982 18.568 18.327 18.568H20.667C21.012 18.568 21.297 18.8467 21.297 19.184V21.472ZM22.437 8.82933H20.772V10.4573C20.772 11.264 20.097 11.924 19.272 11.924C18.447 11.924 17.772 11.264 17.772 10.4573V8.82933H16.107C15.282 8.82933 14.607 8.16933 14.607 7.36267C14.607 6.556 15.282 5.896 16.107 5.896H17.772V4.268C17.772 3.46133 18.447 2.80133 19.272 2.80133C20.097 2.80133 20.772 3.46133 20.772 4.268V5.896H22.437C23.262 5.896 23.937 6.556 23.937 7.36267C23.937 8.16933 23.262 8.82933 22.437 8.82933ZM28.872 28.8493C28.872 29.2013 28.572 29.4947 28.212 29.4947H25.782C25.422 29.4947 25.122 29.2013 25.122 28.8493V26.4733C25.122 26.1213 25.422 25.828 25.782 25.828H28.212C28.572 25.828 28.872 26.1213 28.872 26.4733V28.8493Z" fill="#166AAF"/>
</svg>
