<svg width="37" height="44" viewBox="0 0 37 44" fill="none" xmlns="http://www.w3.org/2000/svg">
<path fill-rule="evenodd" clip-rule="evenodd" d="M31.8969 31.9505L34.1466 37.2026C34.1819 37.2849 34.194 37.3753 34.1815 37.4639C34.1691 37.5526 34.1326 37.6361 34.0761 37.7055C34.0195 37.7749 33.945 37.8275 33.8607 37.8575C33.7764 37.8875 33.6854 37.8939 33.5977 37.8759L28.701 36.8741L26.0692 41.1109C26.0218 41.1872 25.9543 41.2489 25.8741 41.2895C25.7939 41.33 25.7042 41.3477 25.6146 41.3407C25.5251 41.3337 25.4392 41.3023 25.3663 41.2498C25.2934 41.1973 25.2363 41.1258 25.2013 41.043L22.6227 34.9418L22.8225 34.4229C24.0153 34.0768 25.1662 33.6 26.2544 33.0013L28.4528 33.9751C28.7424 34.1034 29.0641 34.141 29.3755 34.083C29.6869 34.025 29.9734 33.8741 30.1974 33.6501L31.8969 31.9505ZM13.9648 36.1907L10.8139 42.8932C10.7759 42.9741 10.7164 43.0431 10.6419 43.0926C10.5675 43.1422 10.4809 43.1704 10.3916 43.1743C10.3023 43.1782 10.2136 43.1576 10.1351 43.1147C10.0567 43.0718 9.99143 43.0083 9.94647 42.931L7.43432 38.6077L2.51216 39.47C2.42395 39.4854 2.33321 39.4764 2.24978 39.4439C2.16634 39.4114 2.0934 39.3566 2.03887 39.2856C1.98434 39.2146 1.95029 39.13 1.94043 39.041C1.93058 38.952 1.94528 38.862 1.98294 38.7808L4.85235 32.5977L5.90461 33.6501C6.12858 33.8741 6.41511 34.025 6.72649 34.083C7.03787 34.141 7.35952 34.1034 7.64912 33.9751L9.8502 33.0002C10.9396 33.5984 12.0912 34.0756 13.2845 34.4231L13.9648 36.1907ZM21.6464 2.99539C23.2398 3.37396 24.7625 4.00493 26.1567 4.86441L29.0881 3.56108L32.5409 7.01382L31.2425 9.9453C32.1028 11.3408 32.7338 12.8652 33.1115 14.4605L36.102 15.6114V20.4955L33.1115 21.6464C32.7327 23.24 32.0982 24.7598 31.2425 26.1567L32.5409 29.0881L29.0881 32.5409L26.1567 31.2425C24.7647 32.1031 23.24 32.7327 21.6464 33.1115L20.4955 36.102H15.6114L14.4605 33.1115C12.862 32.7327 11.3422 32.0982 9.9453 31.2425L7.01382 32.5409L3.56108 29.0881L4.86441 26.1567C4.00373 24.7647 3.37412 23.24 2.99049 21.6464L0 20.4955V15.6114L2.99049 14.4605C3.37412 12.862 4.00373 11.3422 4.86441 9.9453L3.56108 7.01382L7.01382 3.56108L9.9453 4.86441C11.3395 4.00493 12.8621 3.37396 14.4556 2.99539L15.6114 0H20.4955L21.6464 2.99539ZM18.051 7.88245C12.4388 7.88245 7.88245 12.4388 7.88245 18.051C7.88245 23.6631 12.4388 28.2195 18.051 28.2195C23.6631 28.2195 28.2195 23.6631 28.2195 18.051C28.2195 12.4388 23.6631 7.88245 18.051 7.88245ZM18.3561 11.6957L19.9256 15.8246C19.973 15.95 20.0816 16.028 20.2137 16.0348L24.6274 16.2518C24.9291 16.2653 25.0511 16.645 24.8172 16.8314L21.373 19.601C21.2679 19.6824 21.2274 19.8111 21.2612 19.9399L22.4206 24.2044C22.5019 24.4926 22.1799 24.7265 21.929 24.5637L18.2307 22.1433C18.1188 22.0688 17.9831 22.0688 17.8713 22.1433L14.1764 24.5637C13.9255 24.7265 13.6034 24.4926 13.6814 24.2044L14.8408 19.9399C14.8746 19.8111 14.834 19.6824 14.7289 19.601L11.2848 16.8314C11.0509 16.645 11.1728 16.2653 11.4746 16.2518L15.8882 16.0348C16.0204 16.028 16.1289 15.95 16.1764 15.8246L17.7459 11.6957C17.851 11.4144 18.251 11.4144 18.3561 11.6957Z" fill="#166AAF"/>
</svg>
