<svg width="41" height="44" viewBox="0 0 41 44" fill="none" xmlns="http://www.w3.org/2000/svg">
<path d="M7.31146 4.18377C7.40585 4.2725 7.5179 4.34288 7.64122 4.39089C7.76455 4.43891 7.89672 4.46363 8.03021 4.46363C8.16369 4.46363 8.29587 4.43891 8.41919 4.39089C8.54252 4.34288 8.65457 4.2725 8.74896 4.18377C8.84335 4.09505 8.91822 3.98972 8.9693 3.87379C9.02038 3.75787 9.04667 3.63362 9.04667 3.50815C9.04667 3.38267 9.02038 3.25843 8.9693 3.1425C8.91822 3.02658 8.84335 2.92125 8.74896 2.83252L6.01979 0.267106C5.8279 0.093758 5.57135 -0.00194849 5.30522 0.000536766C5.0391 0.00302202 4.78462 0.103501 4.59643 0.280398C4.40824 0.457295 4.30135 0.696505 4.29871 0.946663C4.29606 1.19682 4.39788 1.43798 4.58229 1.61836L7.31146 4.18377ZM32.3286 4.46332C32.588 4.46332 32.8474 4.36981 33.0458 4.18328L35.775 1.61787C35.9594 1.43749 36.0612 1.19633 36.0586 0.946173C36.0559 0.696015 35.949 0.456806 35.7609 0.279908C35.5727 0.103011 35.3182 0.00253248 35.0521 4.72186e-05C34.7859 -0.00243804 34.5294 0.0932685 34.3375 0.266616L31.6083 2.83203C31.4661 2.96577 31.3693 3.13617 31.3301 3.32165C31.291 3.50713 31.3113 3.69937 31.3884 3.87402C31.4655 4.04867 31.596 4.19789 31.7634 4.30279C31.9308 4.4077 32.1275 4.46356 32.3286 4.46332ZM0.174479 12.9179C0.0609375 12.938 0 13.0061 0 13.1231V41.6232L0.313542 41.5728C6.53854 40.7238 12.7172 41.1757 18.6786 42.9147L19.162 43.0542V31.5539C16.9177 31.1109 15.2276 29.2367 15.2276 26.9974V25.2652C14.2099 24.4369 13.5505 23.2286 13.549 21.8665C13.549 21.2017 13.2302 20.5594 12.65 20.0566C10.4937 18.1917 9.25729 15.5867 9.11979 12.8489C6.07083 12.4416 2.89531 12.4685 0.174479 12.9179ZM13.3568 33.6542C13.9182 33.6542 14.3745 34.0821 14.3745 34.6099C14.3745 35.1377 13.9182 35.5656 13.3568 35.5656H4.83073C4.26927 35.5656 3.81562 35.1377 3.81562 34.6099C3.81562 34.0821 4.26927 33.6542 4.83073 33.6542H13.3568ZM12.4849 28.1983C12.4849 28.4518 12.3778 28.6949 12.1871 28.8741C11.9965 29.0533 11.7379 29.154 11.4682 29.154H4.83177C4.56213 29.154 4.30354 29.0533 4.11288 28.8741C3.92222 28.6949 3.8151 28.4518 3.8151 28.1983C3.8151 27.9449 3.92222 27.7018 4.11288 27.5226C4.30354 27.3433 4.56213 27.2427 4.83177 27.2427H11.4682C12.0297 27.2427 12.4849 27.6706 12.4849 28.1983ZM9.58281 21.3471C9.58254 21.6006 9.47519 21.8437 9.28436 22.0229C9.09354 22.2021 8.83484 22.3028 8.5651 22.3028H4.83385C4.2724 22.3028 3.81615 21.8749 3.81615 21.3471C3.81615 20.8193 4.2724 20.3914 4.83385 20.3914H8.5651C9.12604 20.3914 9.58281 20.8193 9.58281 21.3471ZM23.0792 26.9974V26.2571C22.7258 26.3369 22.3639 26.3786 22.0005 26.3815H18.3542C17.9856 26.3786 17.6187 26.3352 17.2609 26.2522V26.9969C17.2615 27.7249 17.5693 28.423 18.1168 28.9379C18.6643 29.4528 19.4068 29.7425 20.1812 29.7435C21.7792 29.7439 23.0792 28.5126 23.0792 26.9974ZM11.0953 12.302C11.086 13.4938 11.3419 14.6743 11.8465 15.7676C12.3512 16.861 13.0934 17.8431 14.0255 18.651C15.0292 19.52 15.5823 20.6622 15.5823 21.8665C15.5837 22.557 15.8762 23.2189 16.3958 23.707C16.9153 24.1951 17.6196 24.4697 18.3542 24.4706H19.1609V18.5951C19.1609 18.3417 19.2681 18.0986 19.4587 17.9194C19.6494 17.7402 19.908 17.6395 20.1776 17.6395C20.4472 17.6395 20.7058 17.7402 20.8965 17.9194C21.0872 18.0986 21.1943 18.3417 21.1943 18.5951V24.4706H22.001C22.7357 24.4701 23.4402 24.1956 23.9599 23.7074C24.4796 23.2192 24.7719 22.5572 24.7729 21.8665C24.7729 20.6617 25.326 19.5185 26.3323 18.6495C27.254 17.8496 27.9899 16.8792 28.4937 15.7993C28.9975 14.7194 29.2584 13.5532 29.2599 12.374C29.2599 10.0514 28.2844 7.87768 26.5135 6.25716C25.646 5.45796 24.6157 4.83183 23.4843 4.41638C22.3528 4.00093 21.1438 3.80474 19.9297 3.8396C15.0974 3.96101 11.1349 7.75773 11.0953 12.302ZM19.7833 6.84074C21.5781 6.86473 23.2948 7.65883 24.2589 9.09576C24.3937 9.31013 24.4342 9.56548 24.3719 9.80751C24.3095 10.0495 24.1491 10.2591 23.9249 10.3917C23.7006 10.5243 23.4302 10.5695 23.1711 10.5175C22.912 10.4656 22.6847 10.3207 22.5375 10.1136C21.9562 9.24606 20.9526 8.71046 19.838 8.75159C19.2766 8.77557 18.8089 8.35062 18.7948 7.82284C18.7874 7.5694 18.8873 7.32355 19.0727 7.13938C19.2581 6.95521 19.5137 6.84779 19.7833 6.84074ZM39.9844 41.5728L40.3573 41.6232V13.1231C40.3573 13.0056 40.2963 12.938 40.1687 12.915C37.2568 12.4675 34.25 12.4582 31.2401 12.8509C31.1042 15.5867 29.8594 18.1937 27.7073 20.0556C27.126 20.5594 26.8057 21.2017 26.8057 21.8665C26.8057 23.2354 26.1396 24.4491 25.113 25.278V26.9974C25.1131 28.0635 24.7243 29.0974 24.0114 29.9267C23.2986 30.7559 22.3048 31.3302 21.1958 31.5539V43.0704C27.2687 41.2536 33.7391 40.7038 39.9844 41.5728ZM31.7927 20.834H35.5271C35.7967 20.834 36.0553 20.9347 36.246 21.1139C36.4366 21.2931 36.5437 21.5362 36.5437 21.7897C36.5437 22.0431 36.4366 22.2862 36.246 22.4654C36.0553 22.6447 35.7967 22.7453 35.5271 22.7453H31.7927C31.2313 22.7453 30.7776 22.3175 30.7776 21.7897C30.7776 21.2619 31.2313 20.834 31.7927 20.834ZM28.8891 27.2427H35.5271C36.0885 27.2427 36.5422 27.6706 36.5422 28.1983C36.5422 28.7261 36.0885 29.154 35.5271 29.154H28.8891C28.6194 29.154 28.3608 29.0533 28.1702 28.8741C27.9795 28.6949 27.8724 28.4518 27.8724 28.1983C27.8724 27.9449 27.9795 27.7018 28.1702 27.5226C28.3608 27.3433 28.6194 27.2427 28.8891 27.2427ZM26.9979 35.5573C26.4365 35.5573 25.9802 35.1294 25.9802 34.6016C25.9802 34.0738 26.4365 33.6459 26.9979 33.6459H34.6932C35.2547 33.6459 35.7109 34.0738 35.7109 34.6016C35.7109 35.1294 35.2547 35.5573 34.6932 35.5573H26.9979Z" fill="white"/>
</svg>
