<svg width="41" height="42" viewBox="0 0 41 42" fill="none" xmlns="http://www.w3.org/2000/svg">
<path fill-rule="evenodd" clip-rule="evenodd" d="M7.1875 27.4694C9.56944 27.4694 11.5 29.4029 11.5 31.7848V36.8189C11.5002 37.3855 11.3888 37.9465 11.1722 38.4699C10.9555 38.9934 10.6379 39.4691 10.2375 39.8698C9.83704 40.2705 9.36158 40.5884 8.83826 40.8054C8.31494 41.0224 7.75401 41.1341 7.1875 41.1343H4.3125C1.93056 41.1343 2.39605e-07 39.2009 2.39605e-07 36.8189V31.7848C-0.000188567 31.2183 0.111208 30.6573 0.327829 30.1338C0.54445 29.6104 0.862054 29.1347 1.26251 28.734C1.66296 28.3333 2.13842 28.0153 2.66174 27.7984C3.18506 27.5814 3.74599 27.4696 4.3125 27.4694H7.1875ZM21.5625 20.9978C22.1289 20.9978 22.6898 21.1094 23.2132 21.3262C23.7365 21.543 24.2119 21.8608 24.6124 22.2614C25.0129 22.662 25.3305 23.1376 25.5471 23.661C25.7638 24.1844 25.8752 24.7453 25.875 25.3118V36.8189C25.8754 37.3855 25.7641 37.9466 25.5476 38.4701C25.331 38.9937 25.0134 39.4694 24.6129 39.8702C24.2124 40.271 23.7369 40.5889 23.2135 40.8058C22.6901 41.0227 22.1291 41.1343 21.5625 41.1343H18.6875C16.3056 41.1343 14.375 39.2009 14.375 36.8189V25.3118C14.375 24.1679 14.8293 23.0708 15.638 22.2618C16.4467 21.4529 17.5436 20.9982 18.6875 20.9978H21.5625ZM35.9375 12.3685C38.3194 12.3685 40.25 14.3005 40.25 16.6824V36.8189C40.2502 37.3855 40.1388 37.9465 39.9222 38.4699C39.7056 38.9934 39.3879 39.4691 38.9875 39.8698C38.587 40.2705 38.1116 40.5884 37.5883 40.8054C37.0649 41.0224 36.504 41.1341 35.9375 41.1343H33.0625C32.4959 41.1343 31.9349 41.0227 31.4115 40.8058C30.8881 40.5889 30.4126 40.271 30.0121 39.8702C29.6116 39.4694 29.294 38.9937 29.0774 38.4701C28.8609 37.9466 28.7496 37.3855 28.75 36.8189V16.6824C28.7498 16.116 28.8612 15.5551 29.0779 15.0317C29.2945 14.5083 29.6121 14.0327 30.0126 13.6321C30.4131 13.2315 30.8885 12.9137 31.4118 12.6969C31.9352 12.4801 32.4961 12.3685 33.0625 12.3685H35.9375ZM35.4444 5.71576L3.57938 23.6888C3.24712 23.876 2.8541 23.9235 2.4868 23.821C2.11949 23.7184 1.80797 23.4741 1.62078 23.1419C1.43359 22.8096 1.38605 22.4166 1.48863 22.0493C1.5912 21.682 1.83549 21.3704 2.16775 21.1833L34.0371 3.20732L32.4372 2.82494C32.0787 2.72493 31.7729 2.48991 31.5841 2.16925C31.3952 1.84859 31.3379 1.46721 31.4242 1.1052C31.5105 0.74319 31.7337 0.428702 32.047 0.227766C32.3602 0.0268294 32.7392 -0.0449251 33.1042 0.0275679L37.9974 1.19338C38.1813 1.23712 38.3547 1.31668 38.5078 1.42752C38.6609 1.53836 38.7906 1.67829 38.8895 1.83931C38.9885 2.00033 39.0547 2.17928 39.0844 2.36592C39.1141 2.55256 39.1067 2.74323 39.0626 2.92701L37.8968 7.82313C37.8563 8.01003 37.7788 8.18696 37.669 8.34356C37.5592 8.50015 37.4193 8.63326 37.2574 8.73509C37.0955 8.83692 36.9149 8.90542 36.7262 8.93657C36.5375 8.96773 36.3445 8.96092 36.1584 8.91654C35.9724 8.87216 35.7971 8.7911 35.6428 8.67812C35.4885 8.56513 35.3583 8.42249 35.2598 8.25854C35.1613 8.0946 35.0965 7.91265 35.0692 7.72335C35.0419 7.53405 35.0527 7.34122 35.1009 7.15613L35.4444 5.71576Z" fill="white"/>
</svg>
