<svg width="47" height="47" viewBox="0 0 47 47" fill="none" xmlns="http://www.w3.org/2000/svg">
<path fill-rule="evenodd" clip-rule="evenodd" d="M1.98115 18.4365C2.83506 18.4365 3.5627 17.8963 3.84111 17.139H5.31719V22.0068H6.68437V16.4554C6.68437 16.2741 6.61235 16.1002 6.48416 15.972C6.35596 15.8438 6.18208 15.7718 6.00078 15.7718H3.84111C3.5627 15.0144 2.83496 14.4742 1.98115 14.4742C0.887012 14.4742 0 15.3612 0 16.4554C0 17.5495 0.887012 18.4365 1.98115 18.4365ZM16.3998 6.52792L19.4122 6.52802V20.0391C19.4122 20.1467 19.4999 20.2344 19.6075 20.2344H27.2675C27.3751 20.2344 27.4628 20.1467 27.4628 20.0391V6.52802L30.4751 6.52792C30.5581 6.52792 30.6289 6.4789 30.658 6.40117C30.6871 6.32343 30.666 6.24003 30.6035 6.18544L23.5658 0.0484323C23.5303 0.0172179 23.4847 0 23.4375 0C23.3902 0 23.3446 0.0172179 23.3091 0.0484323L16.2715 6.18544C16.2411 6.2113 16.2196 6.24596 16.2098 6.28461C16.2001 6.32327 16.2026 6.364 16.217 6.40117C16.2305 6.43865 16.2554 6.47099 16.2882 6.4937C16.3209 6.51642 16.3599 6.52837 16.3998 6.52792ZM31.6515 23.8926C31.3839 28.1963 27.8087 31.6041 23.4375 31.6041C19.0663 31.6041 15.4911 28.1963 15.2235 23.8926C15.2191 23.826 15.2284 23.7591 15.2509 23.6963C15.2735 23.6334 15.3087 23.5759 15.3544 23.5272C15.4001 23.4786 15.4554 23.4399 15.5167 23.4135C15.5781 23.3872 15.6442 23.3737 15.7109 23.374H31.1642C31.2309 23.3737 31.297 23.3872 31.3583 23.4135C31.4197 23.4399 31.4749 23.4786 31.5206 23.5273C31.5664 23.5759 31.6016 23.6335 31.6241 23.6963C31.6466 23.7592 31.6559 23.826 31.6515 23.8926ZM45.3354 27.2572C46.186 27.2572 46.875 26.5678 46.875 25.7177V23.8623C46.875 23.5934 46.6557 23.374 46.3867 23.374H35.3693C35.2433 23.3741 35.1221 23.4229 35.0312 23.5102C34.9403 23.5976 34.8867 23.7167 34.8816 23.8427C34.6358 29.951 29.6062 34.8275 23.4375 34.8275C17.2688 34.8275 12.2393 29.9509 11.9934 23.8427C11.9883 23.7167 11.9347 23.5975 11.8438 23.5101C11.7529 23.4228 11.6317 23.374 11.5056 23.374H0.488281C0.35886 23.3743 0.234814 23.4258 0.143299 23.5173C0.0517846 23.6088 0.000258068 23.7329 0 23.8623V25.7177C0 26.5678 0.688965 27.2572 1.53955 27.2572C6.15508 27.2572 8.4708 32.8488 5.20742 36.1122C4.60625 36.7134 4.60625 37.6885 5.20742 38.2896L8.52197 41.6042C9.12314 42.2054 10.0981 42.2054 10.6993 41.6042C13.9669 38.3366 19.5543 40.6509 19.5543 45.2721C19.5543 46.1227 20.2438 46.8116 21.0938 46.8116H25.7812C26.6312 46.8116 27.3207 46.1227 27.3207 45.2721C27.3207 40.6565 32.9123 38.3408 36.1758 41.6042C36.777 42.2054 37.7521 42.2054 38.3531 41.6042L41.6677 38.2896C42.2688 37.6885 42.2688 36.7135 41.6677 36.1122C38.4042 32.8487 40.72 27.2572 45.3354 27.2572ZM43.0339 17.139H41.5578V22.0068H40.1906V16.4554C40.1906 16.2741 40.2626 16.1002 40.3908 15.972C40.519 15.8438 40.6929 15.7718 40.8742 15.7718H43.0338C43.3122 15.0144 44.0399 14.4742 44.8938 14.4742C45.9879 14.4742 46.8749 15.3612 46.8749 16.4554C46.8749 17.5495 45.9879 18.4365 44.8938 18.4365C44.04 18.4365 43.3123 17.8963 43.0339 17.139ZM3.84111 7.09365H10.2112C10.3925 7.09365 10.5664 7.16567 10.6946 7.29387C10.8228 7.42207 10.8948 7.59594 10.8948 7.77724V22.0068H9.52764V8.46083H3.84111C3.5627 9.21816 2.83496 9.75839 1.98115 9.75839C0.887012 9.7583 0 8.87138 0 7.77724C0 6.6831 0.887012 5.79609 1.98115 5.79609C2.83506 5.79609 3.5627 6.33632 3.84111 7.09365ZM43.0339 8.46083C43.3123 9.21816 44.04 9.75839 44.8938 9.75839C45.988 9.75839 46.875 8.87138 46.875 7.77724C46.875 6.6831 45.988 5.79609 44.8938 5.79609C44.0399 5.79609 43.3123 6.33632 43.0339 7.09365H36.6638C36.4825 7.09365 36.3086 7.16567 36.1804 7.29387C36.0522 7.42207 35.9802 7.59594 35.9802 7.77724V22.0069H37.3474V8.46083H43.0339Z" fill="white"/>
</svg>
