<svg width="38" height="38" viewBox="0 0 38 38" fill="none" xmlns="http://www.w3.org/2000/svg">
<path d="M9.66587 10.2619L6.3737 10.5163C5.45762 10.5871 4.64174 11.0672 4.13513 11.8335L0.33835 17.5759C-0.0458774 18.157 -0.106959 18.8843 0.174847 19.5214C0.456728 20.1585 1.036 20.6025 1.72437 20.7091L4.73875 21.1759C5.44389 17.4339 7.13191 13.701 9.66587 10.2619ZM16.8237 33.2609L17.2906 36.2753C17.3972 36.9636 17.8412 37.5429 18.4782 37.8247C18.7379 37.94 19.0188 37.9997 19.3029 37.9999C19.7017 37.9996 20.0916 37.8818 20.4238 37.6612L26.1663 33.8645C26.9326 33.3578 27.4128 32.5419 27.4834 31.6259L27.7378 28.3338C24.2986 30.8678 20.5658 32.5558 16.8237 33.2609ZM15.69 31.1716C15.7947 31.1716 15.8999 31.163 16.0049 31.1455C17.5727 30.8833 19.0838 30.4417 20.5252 29.8637L8.13601 17.4745C7.558 18.9159 7.1164 20.4269 6.85426 21.9948C6.75095 22.6128 6.95824 23.2424 7.40125 23.6855L14.3142 30.5985C14.682 30.9662 15.1785 31.1716 15.69 31.1716ZM34.9697 16.8477C38.0015 10.9864 38.1138 4.79243 37.9553 1.88753C37.9011 0.892194 37.1075 0.0986531 36.1121 0.0443996C35.5575 0.0144838 35.0021 -0.00034053 34.4467 -5.70457e-05C31.1985 -5.70457e-05 26.0588 0.491935 21.1519 3.02997C17.2524 5.047 12.139 9.48829 9.12214 15.325C9.15777 15.3528 9.19258 15.3823 9.22538 15.4151L22.5847 28.7744C22.6175 28.8072 22.6469 28.8419 22.6748 28.8776C28.5114 25.8607 32.9527 20.7473 34.9697 16.8477ZM22.0944 8.03332C24.2646 5.8631 27.796 5.86288 29.9663 8.03332C31.0177 9.08462 31.5967 10.4825 31.5967 11.9693C31.5967 13.4561 31.0177 14.854 29.9663 15.9053C28.8813 16.9903 27.4556 17.5329 26.0304 17.5331C24.6047 17.5332 23.1797 16.9906 22.0944 15.9053C21.043 14.854 20.4639 13.4561 20.4639 11.9693C20.4639 10.4825 21.043 9.08462 22.0944 8.03332Z" fill="white"/>
<path d="M23.669 14.3309C24.9711 15.6331 27.0901 15.6331 28.3922 14.3309C29.023 13.7001 29.3704 12.8614 29.3704 11.9693C29.3704 11.0772 29.023 10.2385 28.3922 9.60774C27.7412 8.95662 26.8859 8.6311 26.0306 8.6311C25.1754 8.6311 24.3201 8.95662 23.6691 9.60774C23.0383 10.2385 22.6908 11.0772 22.6908 11.9693C22.6908 12.8614 23.0382 13.7001 23.669 14.3309ZM1.13591 31.3154C1.42083 31.3154 1.70576 31.2068 1.92307 30.9893L5.55775 27.3546C5.99252 26.9199 5.99252 26.215 5.55775 25.7803C5.12306 25.3455 4.41813 25.3455 3.98336 25.7803L0.348677 29.4149C-0.0860934 29.8497 -0.0860934 30.5546 0.348677 30.9893C0.451941 31.0929 0.574649 31.175 0.709749 31.2309C0.844848 31.2869 0.989676 31.3156 1.13591 31.3154ZM8.88874 29.1112C8.45404 28.6765 7.74912 28.6765 7.31435 29.1112L0.326337 36.0992C-0.108433 36.534 -0.108433 37.2389 0.326337 37.6736C0.543722 37.891 0.828645 37.9997 1.11357 37.9997C1.39849 37.9997 1.68342 37.891 1.90073 37.6736L8.88866 30.6856C9.32351 30.2509 9.32351 29.546 8.88874 29.1112ZM10.6453 32.4422L7.01065 36.0769C6.57588 36.5117 6.57588 37.2165 7.01065 37.6513C7.22803 37.8687 7.51296 37.9774 7.79781 37.9774C8.08266 37.9774 8.36765 37.8688 8.58496 37.6513L12.2197 34.0166C12.6544 33.5818 12.6544 32.877 12.2197 32.4422C11.785 32.0075 11.08 32.0075 10.6453 32.4422Z" fill="white"/>
</svg>
