<svg width="43" height="41" viewBox="0 0 43 41" fill="none" xmlns="http://www.w3.org/2000/svg">
<path d="M12.0382 17.6624C12.8565 17.6624 13.6485 17.5507 14.4004 17.3424L17.5149 20.2921C17.851 20.6105 18.3375 20.6678 18.7384 20.4363C19.1394 20.2048 19.333 19.7548 19.2254 19.3046L18.2275 15.1299C19.8579 13.5277 20.8694 11.2978 20.8694 8.83119C20.8694 3.9539 16.9155 0 12.0382 0C7.16095 0 3.20705 3.95398 3.20705 8.83128C3.20705 13.7086 7.16086 17.6624 12.0382 17.6624ZM7.14556 7.73584C7.64056 7.22691 8.45439 7.21566 8.96331 7.71066L10.8953 9.59389L15.098 5.35167C15.5986 4.84834 16.4125 4.8461 16.9158 5.3466C17.4191 5.84719 17.4214 6.66101 16.9209 7.16435L11.8224 12.3107C11.3252 12.8107 10.519 12.8162 10.0148 12.3257L7.17066 9.55367C6.66182 9.05867 6.65056 8.24476 7.14556 7.73584ZM33.622 2.8215C28.7447 2.8215 24.7908 6.7754 24.7908 11.6527C24.7908 14.1192 25.8023 16.3491 27.4327 17.9514L26.4348 22.1261C26.3272 22.5764 26.5207 23.0264 26.9218 23.2578C27.3227 23.4893 27.8092 23.432 28.1453 23.1137L31.2598 20.1639C32.0291 20.3768 32.8237 20.4844 33.6219 20.4839C38.4992 20.4839 42.4531 16.5301 42.4531 11.6527C42.4532 6.7754 38.4993 2.8215 33.622 2.8215ZM37.401 13.6089C37.9043 14.1122 37.9043 14.9284 37.401 15.4317C36.8976 15.935 36.0815 15.935 35.5782 15.4317L33.622 13.4755L31.6658 15.4317C31.1624 15.935 30.3463 15.935 29.8429 15.4317C29.3396 14.9284 29.3396 14.1122 29.8429 13.6089L31.7991 11.6527L29.8429 9.6965C29.3396 9.19316 29.3396 8.37701 29.8429 7.87368C30.3463 7.37034 31.1624 7.37034 31.6658 7.87368L33.622 9.82987L35.5782 7.87376C36.0815 7.37043 36.8976 7.37043 37.401 7.87376C37.9043 8.3771 37.9043 9.19325 37.401 9.69659L35.4448 11.6528L37.401 13.6089ZM39.4417 24.8281C40.2349 26.2024 39.76 27.9756 38.386 28.7689L22.987 37.6592C21.7409 38.3786 20.4231 38.5028 19.021 38.1813L12.8633 36.7696C11.1672 36.3808 9.77551 36.6474 8.44503 37.4308L5.38926 26.0267L7.94392 24.0703C9.08655 23.195 10.3821 22.8496 11.8089 23.0385L22.5593 25.9645C24.2504 26.4248 25.285 28.1972 24.8006 29.8813C24.4186 31.2092 23.0816 32.0082 21.7264 31.6393L15.9838 30.0763C15.8079 30.0286 15.6202 30.0527 15.4621 30.1434C15.3039 30.234 15.1883 30.3838 15.1406 30.5597C15.0929 30.7356 15.117 30.9233 15.2077 31.0814C15.2983 31.2396 15.4481 31.3552 15.624 31.4029L21.3666 32.966C23.3664 33.5103 25.6599 32.282 26.1338 30.2164C26.2299 29.8547 26.2726 29.481 26.2604 29.1069L35.501 23.772C36.875 22.9787 38.6486 23.454 39.4417 24.8281ZM7.51535 39.2737C7.60585 39.6114 7.40372 39.9614 7.06616 40.0519L4.50823 40.7373C4.17075 40.8277 3.82064 40.6257 3.73006 40.2879L0.0216036 26.448C-0.0688886 26.1102 0.133322 25.7602 0.470799 25.6697L3.02873 24.9844C3.36638 24.8939 3.7164 25.096 3.80689 25.4337L7.51535 39.2737Z" fill="white"/>
</svg>
