<svg width="38" height="50" viewBox="0 0 38 50" fill="none" xmlns="http://www.w3.org/2000/svg">
<path d="M3.26509 14.7472C3.26509 8.41587 8.41598 3.26498 14.7473 3.26498C21.0786 3.26498 26.2295 8.41587 26.2295 14.7472C26.2295 15.8259 26.0791 16.8944 25.7825 17.9234L28.9198 18.8279C29.3017 17.5014 29.4952 16.1277 29.4946 14.7473C29.4946 6.61561 22.879 0 14.7473 0C6.61561 0 0 6.61561 0 14.7473C0 18.3565 1.32301 21.8325 3.72546 24.5352L6.16579 22.3658C4.29533 20.2615 3.26509 17.5558 3.26509 14.7472Z" fill="white"/>
<path d="M23.9814 15.8826C24.0288 15.4956 24.0528 15.1135 24.0528 14.7472C24.0528 9.61612 19.8784 5.44171 14.7473 5.44171C9.61622 5.44171 5.4418 9.61612 5.4418 14.7472C5.4418 16.8427 6.12649 18.8241 7.42186 20.4771L9.99181 18.4632C9.15116 17.3905 8.70678 16.1055 8.70678 14.7472C8.70678 11.4165 11.4165 8.7068 14.7472 8.7068C18.0779 8.7068 20.7876 11.4165 20.7876 14.7472C20.7876 14.9847 20.7721 15.2263 20.7404 15.4859L23.9814 15.8826Z" fill="white"/>
<path d="M34.6643 24.5915C33.1316 24.5915 31.889 25.8341 31.889 27.3669H30.8006V24.3767C30.8006 22.8439 29.5581 21.6014 28.0253 21.6014C26.4926 21.6014 25.25 22.8439 25.25 24.3767V27.3669H24.1616V21.6457C24.1616 20.1129 22.9191 18.8703 21.3863 18.8703C19.8536 18.8703 18.611 20.1129 18.611 21.6457V27.3669H17.5226V14.7472C17.5226 13.2144 16.28 11.9719 14.7473 11.9719C13.2146 11.9719 11.972 13.2144 11.972 14.7472V35.2952H10.8836V28.5941C10.8836 27.0613 9.64104 25.8188 8.1083 25.8188C6.57556 25.8188 5.33298 27.0613 5.33298 28.5941V38.8085C5.33298 44.9795 10.3535 50 16.5245 50H26.2482C32.4192 50 37.4397 44.9795 37.4397 38.8085V27.3669C37.4397 25.8341 36.1971 24.5915 34.6643 24.5915Z" fill="white"/>
</svg>
