<svg width="42" height="42" viewBox="0 0 42 42" fill="none" xmlns="http://www.w3.org/2000/svg">
<path d="M40.74 15.714C40.6136 15.7444 40.5044 15.8235 40.4361 15.9342C40.3679 16.0449 40.3462 16.178 40.3758 16.3046C40.7346 17.8273 40.9162 19.3864 40.9172 20.9509C40.9109 26.2443 38.8052 31.3192 35.0622 35.0622C31.3191 38.8053 26.2443 40.9109 20.9508 40.9173C16.6031 40.9325 12.3721 39.5114 8.91518 36.8748C9.37933 36.1827 9.56479 35.3407 9.43438 34.5177C9.30397 33.6946 8.86732 32.9513 8.21195 32.4366C7.55658 31.9219 6.7309 31.6739 5.90039 31.7423C5.06988 31.8107 4.2959 32.1904 3.73355 32.8054C3.17121 33.4204 2.86205 34.2251 2.86804 35.0584C2.87403 35.8917 3.19472 36.692 3.76585 37.2988C4.33697 37.9056 5.11633 38.2742 5.94774 38.3307C6.77915 38.3871 7.60118 38.1273 8.24908 37.6032C11.8889 40.4053 16.3573 41.9175 20.9508 41.9016C24.1153 41.8982 27.238 41.1788 30.085 39.7972C32.932 38.4156 35.4295 36.4076 37.3903 33.9238C39.3511 31.44 40.7244 28.5446 41.4073 25.4547C42.0903 22.3648 42.0652 19.1603 41.3339 16.0815C41.3193 16.0182 41.2922 15.9585 41.2544 15.9058C41.2165 15.853 41.1687 15.8083 41.1135 15.7741C41.0582 15.74 40.9968 15.7171 40.9327 15.7068C40.8687 15.6964 40.8032 15.6989 40.74 15.714ZM0.984395 20.9509C0.98461 17.3993 1.93209 13.912 3.72914 10.8487C5.52619 7.78528 8.10777 5.25664 11.2077 3.52345C14.3077 1.79026 17.8138 0.915237 21.3646 0.988609C24.9154 1.06198 28.3824 2.08109 31.4081 3.94086C31.0958 4.60901 31.0459 5.37008 31.2681 6.07333C31.4903 6.77659 31.9686 7.37073 32.6081 7.73809C33.2477 8.10544 34.0018 8.21922 34.7213 8.05688C35.4407 7.89454 36.073 7.46792 36.4928 6.86153C36.9126 6.25513 37.0894 5.51319 36.9881 4.78264C36.8868 4.0521 36.5148 3.38624 35.9458 2.91694C35.3769 2.44765 34.6524 2.20915 33.9159 2.24868C33.1795 2.28821 32.4847 2.60289 31.9692 3.13039C28.7955 1.16843 25.1554 0.0895809 21.4251 0.00534176C17.6949 -0.0788974 14.0098 0.834528 10.7507 2.65122C7.49166 4.46791 4.77684 7.12196 2.88684 10.3391C0.996847 13.5562 0.000240008 17.2196 1.97565e-05 20.9509C-0.00174474 22.2298 0.114688 23.5062 0.347832 24.7637C0.367844 24.877 0.427195 24.9796 0.515431 25.0534C0.603667 25.1272 0.715127 25.1675 0.830176 25.1673C0.859979 25.1672 0.889688 25.1639 0.91877 25.1574C1.04707 25.1342 1.16094 25.0611 1.23538 24.9541C1.30981 24.847 1.33874 24.7148 1.3158 24.5865C1.09462 23.3873 0.983686 22.1703 0.984395 20.9509Z" fill="white"/>
<path d="M17.9977 17.6992V17.9945H23.9039V17.6992C23.858 13.7092 18.0436 13.7092 17.9977 17.6992Z" fill="white"/>
<path d="M34.7157 10.7232C29.1769 10.779 23.8482 7.35666 21.8105 5.8801C21.5603 5.69934 21.2595 5.60205 20.9508 5.60205C20.6422 5.60205 20.3413 5.69934 20.0911 5.8801C18.0535 7.35666 12.7116 10.7659 7.18598 10.7232C6.98974 10.7213 6.79505 10.7582 6.61313 10.8318C6.43121 10.9054 6.26564 11.0142 6.12596 11.1521C5.98628 11.2899 5.87524 11.454 5.79925 11.635C5.72326 11.8159 5.68381 12.0101 5.68317 12.2064C5.68645 19.7828 7.20239 30.6207 20.2847 37.2423C20.491 37.3474 20.7193 37.4023 20.9508 37.4023C21.1824 37.4023 21.4106 37.3474 21.6169 37.2423C34.6993 30.6207 36.2152 19.7828 36.2185 12.2064C36.2155 11.8105 36.0556 11.432 35.7739 11.1539C35.4921 10.8759 35.1115 10.721 34.7157 10.7232ZM26.3649 25.7054C26.3649 26.3581 26.1056 26.984 25.6441 27.4456C25.1826 27.9071 24.5566 28.1664 23.9039 28.1664H17.9977C17.345 28.1664 16.7191 27.9071 16.2576 27.4456C15.796 26.984 15.5368 26.3581 15.5368 25.7054V20.4554C15.537 19.9768 15.6768 19.5086 15.9391 19.1082C16.2013 18.7079 16.5747 18.3926 17.0133 18.2012V17.6926C17.0724 12.4262 24.8293 12.4262 24.8883 17.6926V18.2012C25.327 18.3926 25.7003 18.7079 25.9626 19.1082C26.2248 19.5086 26.3646 19.9768 26.3649 20.4554V25.7054Z" fill="white"/>
<path d="M21.7567 22.5153C21.7494 22.4713 21.7514 22.4262 21.7627 22.383C21.774 22.3398 21.7943 22.2995 21.8223 22.2647C21.9322 22.1057 21.9965 21.9197 22.0083 21.7269C22.0201 21.534 21.9789 21.3415 21.8892 21.1704C21.7995 20.9992 21.6646 20.8559 21.4993 20.7559C21.3339 20.6559 21.1444 20.603 20.9511 20.603C20.7579 20.603 20.5683 20.6559 20.403 20.7559C20.2376 20.8559 20.1028 20.9992 20.013 21.1704C19.9233 21.3415 19.8821 21.534 19.8939 21.7269C19.9057 21.9197 19.97 22.1057 20.0799 22.2647C20.1078 22.2991 20.128 22.339 20.1393 22.3818C20.1506 22.4246 20.1527 22.4694 20.1456 22.5131C20.0685 22.8973 19.8502 23.9958 19.6964 24.7584C19.6777 24.8535 19.6802 24.9516 19.704 25.0456C19.7277 25.1396 19.7719 25.2271 19.8335 25.302C19.8951 25.3769 19.9725 25.4371 20.0601 25.4785C20.1478 25.5199 20.2435 25.5413 20.3405 25.5413H21.5611C21.6582 25.5414 21.7541 25.5198 21.8419 25.4783C21.9297 25.4368 22.0072 25.3763 22.0688 25.3013C22.1303 25.2262 22.1745 25.1384 22.198 25.0441C22.2216 24.9499 22.2239 24.8517 22.2049 24.7564L21.7567 22.5153Z" fill="white"/>
</svg>
